<svg xmlns="http://www.w3.org/2000/svg" viewBox="0 0 568.28 491.04"><defs><linearGradient id="linear-gradient" x1="194.39" y1="89.18" x2="372.76" y2="89.18" gradientUnits="userSpaceOnUse"><stop offset="0" stop-color="#ecf3fa"/><stop offset="1" stop-color="#fbdbe0"/></linearGradient><linearGradient id="linear-gradient-2" x1="222.29" y1="88.61" x2="341.47" y2="88.61" gradientUnits="userSpaceOnUse"><stop offset="0" stop-color="#f9bc31"/><stop offset="1" stop-color="#ee3937"/></linearGradient><style>.cls-3{fill:#fef9f8}.cls-4{fill:#f7c0b7}.cls-5{fill:#f47964}.cls-6{fill:#fea3fe}.cls-9{fill:#e84b27}.cls-10{fill:#4b80e7}.cls-11{mix-blend-mode:multiply;opacity:.3}</style><mask id="mask" x="222.29" y="29.32" width="119.19" height="118.58" maskUnits="userSpaceOnUse"><g id="mask-4"><path id="path-3" d="M281.56 29.32a28.77 28.77 0 0 0-3.45.21 23.71 23.71 0 0 0-14.17 6.8c-2.81 2.76-5.57 5.58-8.36 8.36q-2.15 2.14-4.32 4.27c-1.51 1.48-3 2.95-4.55 4.44-1.4 1.38-2.76 2.81-4.16 4.19-2.17 2.16-4.36 4.29-6.52 6.46-1.68 1.69-3.31 3.42-5 5.13-1 1-2 1.94-2.92 3-3.93 4.61-5.79 10-5.84 17.14-.18 2.73 1 6.28 2.61 9.65a38 38 0 0 0 3.26 5.1c.8 1.12 1.39 1.11 2.46.24a5.69 5.69 0 0 0 .56-.54c1-1.08 2.08-2.17 3.13-3.24 1.52-1.56 3-3.1 4.56-4.67 1.58-1.63 3.14-3.3 4.72-4.94.75-.78 1.55-1.52 2.3-2.3 1.62-1.68 3.19-3.4 4.82-5.07 1.59-1.63 3.23-3.21 4.82-4.83 1.78-1.82 3.52-3.68 5.3-5.49 1.64-1.65 3.35-3.25 5-4.91 2.15-2.18 4.24-4.41 6.38-6.59 1.31-1.34 2.67-2.62 4-3.94 1.79-1.8 3.54-3.63 5.35-5.43 1.54-1.53 3.13-3 4.67-4.54q5.19-5.16 10.34-10.33c.22-.22.42-.45.62-.69.83-1 .9-1.28-.13-2a32.28 32.28 0 0 0-5.11-3.23 24.1 24.1 0 0 0-10.25-2.23h-.13Zm26.49 21.46a10.28 10.28 0 0 0-8.05 3.67 5.6 5.6 0 0 1-.55.54c-1.87 1.8-3.74 3.58-5.59 5.4-1.93 1.88-3.82 3.8-5.74 5.69-1.58 1.57-3.19 3.12-4.76 4.7-1.65 1.65-3.25 3.34-4.91 5-1.74 1.71-3.52 3.37-5.26 5.08-2.11 2.06-4.19 4.15-6.28 6.23L255.28 98.6l-15.35 15.25c-1 1-1 1.1 0 2.12 2.45 2.47 4.93 4.91 7.39 7.37a10 10 0 0 0 5.39 2.92 13.31 13.31 0 0 0 6-.2 9.2 9.2 0 0 0 4-2.09l6.06-5.81c1.42-1.36 2.88-2.69 4.28-4.07 2.81-2.75 5.59-5.55 8.41-8.3 2.3-2.24 4.64-4.45 6.95-6.68l9.5-9.19c3-2.89 6-5.78 9-8.66 1.31-1.26 2.53-1.13 3.47.37a13.39 13.39 0 0 1 2.27 8.87 12.65 12.65 0 0 1-3.2 7.29c-2.21 2.34-4.54 4.55-6.84 6.8-1.62 1.59-3.28 3.16-4.91 4.76-2.1 2.07-4.18 4.17-6.26 6.25-.33.33-.63.7-.95 1-.69.71-1.37 1.42-2.07 2.11-1.54 1.53-3.11 3-4.64 4.58-1.65 1.66-3.26 3.34-4.88 5l-.47.41q-2.62 2.53-5.24 5.08c-.82.79-1.61 1.6-2.41 2.41-1.39 1.39-2.81 2.75-4.16 4.18-.82.86-.81 1.39.15 2.06a34.71 34.71 0 0 0 5.13 3.22 24.27 24.27 0 0 0 10.38 2.21h.08a30.65 30.65 0 0 0 3.68-.22 23.18 23.18 0 0 0 12.85-5.78c2.69-2.35 5.11-5 7.65-7.54l5.6-5.62 5.29-5.27c1.61-1.61 3.21-3.24 4.84-4.83 1.81-1.78 3.67-3.5 5.47-5.29 1.84-1.82 3.68-3.65 5.45-5.55a42.28 42.28 0 0 0 4-4.71 25.8 25.8 0 0 0 4.15-11.41 24.89 24.89 0 0 0 0-6.1 25.26 25.26 0 0 0-3.86-10.09c-1.12-1.73-1.7-2.46-5.12-5.83-5.06-5-10.12-10-15.07-15.11a11.55 11.55 0 0 0-8.64-3.78h-.53Z" fill="#fff"/></g></mask></defs><g style="isolation:isolate"><g id="Слой_2" data-name="Слой 2"><g id="_Layer_" data-name="&lt;Layer&gt;"><path class="cls-3" d="M226.44 91.38h-15a16.71 16.71 0 1 1 0-33.41h15a16.71 16.71 0 1 1 0 33.41Zm-15-26.45a9.74 9.74 0 0 0 0 19.48h15a9.74 9.74 0 1 0 0-19.48Z"/><path class="cls-3" d="M257 91.38h-15a16.71 16.71 0 1 1 0-33.41h15a16.71 16.71 0 1 1 0 33.41Zm-15-26.45a9.74 9.74 0 1 0 0 19.48h15a9.74 9.74 0 1 0 0-19.48Z"/><path class="cls-3" d="M287.62 91.38h-15a16.71 16.71 0 0 1 0-33.41h15a16.71 16.71 0 1 1 0 33.41Zm-15-26.45a9.74 9.74 0 0 0 0 19.48h15a9.74 9.74 0 1 0 0-19.48Z"/><path class="cls-3" d="M318.21 91.38h-15a16.71 16.71 0 1 1 0-33.41h15a16.71 16.71 0 1 1 0 33.41Zm-15-26.45a9.74 9.74 0 0 0 0 19.48h15a9.74 9.74 0 1 0 0-19.48Z"/><path class="cls-3" d="M348.8 91.38h-15a16.71 16.71 0 1 1 0-33.41h15a16.71 16.71 0 1 1 0 33.41Zm-15-26.45a9.74 9.74 0 0 0 0 19.48h15a9.74 9.74 0 1 0 0-19.48Z"/><path class="cls-3" d="M436.86 127a3.46 3.46 0 0 1-1.82-.51l-84.81-51.93a3.49 3.49 0 0 1 3.64-6l84.82 52a3.49 3.49 0 0 1 1.14 4.79 3.45 3.45 0 0 1-2.97 1.65Zm-308.22 0a3.48 3.48 0 0 1-1.83-6.44l79.61-49.35a3.48 3.48 0 1 1 3.67 5.92l-79.62 49.37a3.48 3.48 0 0 1-1.83.5ZM214 440a2.1 2.1 0 0 1-1.12-.32L93.6 365.7a2.14 2.14 0 0 1-1-1.83V235.63a2.15 2.15 0 1 1 4.3 0v127.05L215.14 436a2.15 2.15 0 0 1-1.14 4Zm140.27 0a2.14 2.14 0 0 1-1.13-4l118.26-73.3v-127a2.15 2.15 0 1 1 4.3 0v128.17a2.17 2.17 0 0 1-1 1.83l-119.3 73.93a2.11 2.11 0 0 1-1.13.37Zm-9.44-162.15a10.53 10.53 0 0 1-2.42-.29 10.3 10.3 0 0 1-3-18.8l7.88-4.84a10.31 10.31 0 0 1 14.17 3.38 10.32 10.32 0 0 1-3.38 14.18l-7.88 4.84a10.21 10.21 0 0 1-5.37 1.53Zm7.84-21.15a5.94 5.94 0 0 0-3.13.88l-7.88 4.84a6 6 0 0 0-2.7 3.73 6 6 0 0 0 9 6.51l7.88-4.84a6 6 0 0 0 2-8.27 6 6 0 0 0-5.17-2.85Z"/><path class="cls-3" d="M360.9 268a10.38 10.38 0 0 1-2.41-.29 10.3 10.3 0 0 1-3-18.8l7.88-4.84a10.31 10.31 0 0 1 10.79 17.56l-7.88 4.84a10.21 10.21 0 0 1-5.38 1.53Zm7.84-21.16a6 6 0 0 0-3.13.89l-7.88 4.84a6 6 0 1 0 6.3 10.24l7.87-4.84a6 6 0 0 0 2-8.26 6 6 0 0 0-3.72-2.7 6.18 6.18 0 0 0-1.44-.2Z"/><path class="cls-3" d="M377 258.09a10.37 10.37 0 0 1-2.41-.28 10.3 10.3 0 0 1-3-18.8l7.88-4.84a10.29 10.29 0 0 1 14.17 3.38 10.31 10.31 0 0 1-3.38 14.17l-7.87 4.84a10.28 10.28 0 0 1-5.39 1.53Zm7.84-21.16a5.86 5.86 0 0 0-3.13.9l-7.88 4.83a6 6 0 0 0-2 8.27 6 6 0 0 0 3.72 2.7 6.05 6.05 0 0 0 4.55-.73l7.87-4.84a6 6 0 0 0 2-8.26 6 6 0 0 0-3.72-2.7 6.18 6.18 0 0 0-1.44-.17Z"/><path class="cls-3" d="M393 248.21a10.3 10.3 0 0 1-5.42-19.08l7.88-4.84a10.31 10.31 0 0 1 10.79 17.56l-7.87 4.83a10.18 10.18 0 0 1-5.38 1.53Zm7.84-21.15a5.86 5.86 0 0 0-3.13.89l-7.88 4.84a6 6 0 1 0 6.3 10.23l7.87-4.83a6 6 0 0 0 2-8.27 6 6 0 0 0-5.12-2.86Z"/><path class="cls-3" transform="rotate(-31.58 320.089 282.214)" d="M299.5 280.06h41.17v4.29H299.5z"/><path class="cls-3" transform="rotate(-31.58 425.476 217.455)" d="M404.86 215.3h41.17v4.29h-41.17z"/><path class="cls-3" d="M224.44 277.85a10.22 10.22 0 0 1-5.38-1.53l-7.88-4.84a10.33 10.33 0 0 1-3.38-14.18 10.32 10.32 0 0 1 14.2-3.38l7.87 4.84a10.31 10.31 0 0 1-3 18.8 10.45 10.45 0 0 1-2.43.29Zm-7.85-21.16a6 6 0 0 0-1.4.17 5.93 5.93 0 0 0-3.73 2.69 6 6 0 0 0 2 8.27l7.88 4.84a6 6 0 0 0 6.29-10.24l-7.87-4.84a6 6 0 0 0-3.17-.89Z"/><path class="cls-3" d="M208.37 268a10.22 10.22 0 0 1-5.38-1.53l-7.88-4.84a10.31 10.31 0 0 1-3.38-14.17 10.31 10.31 0 0 1 14.18-3.46l7.87 4.84a10.32 10.32 0 0 1 3.38 14.18 10.21 10.21 0 0 1-6.38 4.62 10.45 10.45 0 0 1-2.41.36Zm-7.85-21.16a6.18 6.18 0 0 0-1.41.17 6 6 0 0 0-3.72 2.7 6 6 0 0 0 2 8.26l7.88 4.84a6 6 0 0 0 6.29-10.24l-7.87-4.84a6.07 6.07 0 0 0-3.17-.92Z"/><path class="cls-3" d="M192.29 258.09a10.21 10.21 0 0 1-5.37-1.53l-7.92-4.84a10.31 10.31 0 0 1-3.38-14.17 10.3 10.3 0 0 1 14.18-3.38l7.87 4.84a10.3 10.3 0 0 1-5.42 19.08Zm-7.84-21.16a6.18 6.18 0 0 0-1.41.17 6 6 0 0 0-3.72 2.7 6 6 0 0 0 2 8.26l7.88 4.84a6 6 0 0 0 4.54.73 6 6 0 0 0 3.72-2.7 6 6 0 0 0-2-8.27l-7.87-4.83a5.89 5.89 0 0 0-3.14-.9Z"/><path class="cls-3" d="M176.22 248.21a10.15 10.15 0 0 1-5.37-1.53l-7.85-4.83a10.31 10.31 0 0 1 10.79-17.56l7.88 4.84a10.3 10.3 0 0 1-5.42 19.08Zm-7.84-21.15a6 6 0 0 0-5.13 2.86 6 6 0 0 0 2 8.27l7.85 4.81a6 6 0 1 0 6.29-10.23l-7.88-4.77a5.86 5.86 0 0 0-3.13-.94Z"/><path class="cls-3" transform="rotate(-58.42 249.19 282.215)" d="M247.03 261.62h4.29v41.17h-4.29z"/><path class="cls-3" transform="rotate(-58.43 143.798 217.446)" d="M141.67 196.87h4.29v41.17h-4.29z"/><path class="cls-3" d="M186.88 138.51h35.75v4.3h-35.75zm135.55.45h58.45v4.3h-58.45z"/><circle class="cls-3" cx="94.73" cy="363.87" r="12.94" transform="rotate(-45 94.73 363.871)"/><circle class="cls-3" cx="473.55" cy="363.87" r="12.94" transform="rotate(-80.78 473.568 363.872)"/><path class="cls-4" d="m284.19 373.6 94.73-58.71v117.43l-94.73 58.72V373.6z"/><path class="cls-5" d="m309.29 390.54 40.08-24.84v49.68l-40.08 24.84v-49.68z"/><path class="cls-6" d="m189.46 314.89 94.73 58.71v117.44l-94.73-58.72V314.89z"/><path class="cls-6" d="m284.19 256.17 94.73 58.72-94.73 58.71-94.73-58.71 94.73-58.72z"/><path d="m189.46 314.89 94.73 58.71v117.44l-94.73-58.72V314.89z" fill="#f4adab"/><path d="m284.19 256.17 94.73 58.72-94.73 58.71-94.73-58.71 94.73-58.72z" fill="#fcd8d4"/><path class="cls-4" d="m283.4 284.64 48.8 30.25-48.8 30.24-48.8-30.24 48.8-30.25z"/><path class="cls-9" d="m259.08 390.54-40.07-24.84v49.68l40.07 24.84v-49.68z"/><path class="cls-5" d="m94.73 138.73 94.73-58.71v117.43l-94.73 58.72V138.73z"/><path class="cls-10" d="m0 80.02 94.73 58.71v117.44L0 197.45V80.02z"/><path class="cls-10" d="m94.73 21.3 94.73 58.72-94.73 58.71L0 80.02 94.73 21.3z"/><path class="cls-9" d="m0 80.02 94.73 58.71v117.44L0 197.45V80.02z"/><path class="cls-4" d="m94.73 21.3 94.73 58.72-94.73 58.71L0 80.02 94.73 21.3z"/><path class="cls-5" d="m94.73 49.77 48.8 30.25-48.8 30.25-48.8-30.25 48.8-30.25z"/><g class="cls-11"><path class="cls-10" d="m119.83 161.66 40.08-24.84v49.68l-40.08 24.84v-49.68z"/></g><g class="cls-11"><path class="cls-10" d="m69.62 161.66-40.07-24.84v49.68l40.07 24.84v-49.68z"/></g><path class="cls-5" d="m473.55 138.73 94.73-58.71v117.43l-94.73 58.72V138.73z"/><path class="cls-10" d="m378.82 80.02 94.73 58.71v117.44l-94.73-58.72V80.02z"/><path class="cls-10" d="m473.55 21.3 94.73 58.72-94.73 58.71-94.73-58.71 94.73-58.72z"/><path class="cls-9" d="m378.82 80.02 94.73 58.71v117.44l-94.73-58.72V80.02z"/><path class="cls-4" d="m473.55 21.3 94.73 58.72-94.73 58.71-94.73-58.71 94.73-58.72z"/><path class="cls-5" d="m473.55 49.77 48.8 30.25-48.8 30.25-48.8-30.25 48.8-30.25z"/><g class="cls-11"><path class="cls-10" d="m498.65 161.66 40.08-24.84v49.68l-40.08 24.84v-49.68z"/></g><g class="cls-11"><path class="cls-10" d="m448.44 161.66-40.07-24.84v49.68l40.07 24.84v-49.68z"/></g><circle cx="283.58" cy="89.18" r="89.18" fill="url(#linear-gradient)"/><g id="Group-9" mask="url(#mask)"><path id="Fill-7" d="M281.56 29.32a28.77 28.77 0 0 0-3.45.21 23.71 23.71 0 0 0-14.17 6.8c-2.81 2.76-5.57 5.58-8.36 8.36q-2.15 2.14-4.32 4.27c-1.51 1.48-3 2.95-4.55 4.44-1.4 1.38-2.76 2.81-4.16 4.19-2.17 2.16-4.36 4.29-6.52 6.46-1.68 1.69-3.31 3.42-5 5.13-1 1-2 1.94-2.92 3-3.93 4.61-5.79 10-5.84 17.14-.18 2.73 1 6.28 2.61 9.65a38 38 0 0 0 3.26 5.1c.8 1.12 1.39 1.11 2.46.24a5.69 5.69 0 0 0 .56-.54c1-1.08 2.08-2.17 3.13-3.24 1.52-1.56 3-3.1 4.56-4.67 1.58-1.63 3.14-3.3 4.72-4.94.75-.78 1.55-1.52 2.3-2.3 1.62-1.68 3.19-3.4 4.82-5.07 1.59-1.63 3.23-3.21 4.82-4.83 1.78-1.82 3.52-3.68 5.3-5.49 1.64-1.65 3.35-3.25 5-4.91 2.15-2.18 4.24-4.41 6.38-6.59 1.31-1.34 2.67-2.62 4-3.94 1.79-1.8 3.54-3.63 5.35-5.43 1.54-1.53 3.13-3 4.67-4.54q5.19-5.16 10.34-10.33c.22-.22.42-.45.62-.69.83-1 .9-1.28-.13-2a32.28 32.28 0 0 0-5.11-3.23 24.1 24.1 0 0 0-10.25-2.23h-.13Zm26.49 21.46a10.28 10.28 0 0 0-8.05 3.67 5.6 5.6 0 0 1-.55.54c-1.87 1.8-3.74 3.58-5.59 5.4-1.93 1.88-3.82 3.8-5.74 5.69-1.58 1.57-3.19 3.12-4.76 4.7-1.65 1.65-3.25 3.34-4.91 5-1.74 1.71-3.52 3.37-5.26 5.08-2.11 2.06-4.19 4.15-6.28 6.23L255.28 98.6l-15.35 15.25c-1 1-1 1.1 0 2.12 2.45 2.47 4.93 4.91 7.39 7.37a10 10 0 0 0 5.39 2.92 13.31 13.31 0 0 0 6-.2 9.2 9.2 0 0 0 4-2.09l6.06-5.81c1.42-1.36 2.88-2.69 4.28-4.07 2.81-2.75 5.59-5.55 8.41-8.3 2.3-2.24 4.64-4.45 6.95-6.68l9.5-9.19c3-2.89 6-5.78 9-8.66 1.31-1.26 2.53-1.13 3.47.37a13.39 13.39 0 0 1 2.27 8.87 12.65 12.65 0 0 1-3.2 7.29c-2.21 2.34-4.54 4.55-6.84 6.8-1.62 1.59-3.28 3.16-4.91 4.76-2.1 2.07-4.18 4.17-6.26 6.25-.33.33-.63.7-.95 1-.69.71-1.37 1.42-2.07 2.11-1.54 1.53-3.11 3-4.64 4.58-1.65 1.66-3.26 3.34-4.88 5l-.47.41q-2.62 2.53-5.24 5.08c-.82.79-1.61 1.6-2.41 2.41-1.39 1.39-2.81 2.75-4.16 4.18-.82.86-.81 1.39.15 2.06a34.71 34.71 0 0 0 5.13 3.22 24.27 24.27 0 0 0 10.38 2.21h.08a30.65 30.65 0 0 0 3.68-.22 23.18 23.18 0 0 0 12.85-5.78c2.69-2.35 5.11-5 7.65-7.54l5.6-5.62 5.29-5.27c1.61-1.61 3.21-3.24 4.84-4.83 1.81-1.78 3.67-3.5 5.47-5.29 1.84-1.82 3.68-3.65 5.45-5.55a42.28 42.28 0 0 0 4-4.71 25.8 25.8 0 0 0 4.15-11.41 24.89 24.89 0 0 0 0-6.1 25.26 25.26 0 0 0-3.86-10.09c-1.12-1.73-1.7-2.46-5.12-5.83-5.06-5-10.12-10-15.07-15.11a11.55 11.55 0 0 0-8.64-3.78h-.53Z" fill="url(#linear-gradient-2)"/></g></g></g></g></svg>