<svg xmlns="http://www.w3.org/2000/svg" viewBox="0 0 600 135.6"><defs><style>.cls-1{fill:#159e49}</style></defs><g id="Слой_2" data-name="Слой 2"><g id="layer"><g id="line"><path id="Fill-10" class="cls-1" d="M0 135.4h519.4v-13.6H0v13.6z"/><path id="Fill-11" class="cls-1" d="M555.4 135.4H600v-13.6h-44.6v13.6z"/></g><path d="M101.2 101.2h18.6v-70h-18.6ZM99.4 11a10.7 10.7 0 0 1 3.2-8 11 11 0 0 1 8-3 10.71 10.71 0 0 1 8 3 10.83 10.83 0 0 1 3.2 8 10.7 10.7 0 0 1-3.2 8 11 11 0 0 1-8 3 11.35 11.35 0 0 1-8-3 10.41 10.41 0 0 1-3.2-8Zm63.2 20h19v14h-19v33.6a9.67 9.67 0 0 0 2.6 7.2 9.33 9.33 0 0 0 7 2.8 37 37 0 0 0 8.8-1.2l2.4 13.8a62.39 62.39 0 0 1-15.6 2.2 28.07 28.07 0 0 1-9.4-1.6 21.92 21.92 0 0 1-7.4-4.6 21.79 21.79 0 0 1-6.4-16.4V45.4h-12.8v-14h12.8V10.8h17.8V31Zm30 19.4a18.14 18.14 0 0 1 2-8.6A25.33 25.33 0 0 1 200 35a27.94 27.94 0 0 1 8.4-4.4 37.06 37.06 0 0 1 10.8-1.6 66.71 66.71 0 0 1 12.4 1.2 84.61 84.61 0 0 1 13 3.6l-4 13.2a66.64 66.64 0 0 0-10.2-3.2 42 42 0 0 0-9.6-1.2 13.3 13.3 0 0 0-7.8 2 6.26 6.26 0 0 0-2.8 5.6A5.17 5.17 0 0 0 213 55a31.74 31.74 0 0 0 6.8 2.8c2.8.8 5.6 1.6 8.8 2.2a31.31 31.31 0 0 1 8.8 3.6 20.83 20.83 0 0 1 6.8 6.4 19.65 19.65 0 0 1 2.8 10.8 18.94 18.94 0 0 1-2 8.8 23.39 23.39 0 0 1-5.6 7 26.15 26.15 0 0 1-8.8 4.6 39.86 39.86 0 0 1-11.2 1.6 74.51 74.51 0 0 1-27.4-5.6l3.8-13c8.2 3.4 15.6 5 22.2 5a14.23 14.23 0 0 0 8.2-2.2 6.88 6.88 0 0 0 3-6 5.7 5.7 0 0 0-2.8-5 23.93 23.93 0 0 0-6.8-3c-2.8-.8-5.6-1.6-8.8-2.4A34 34 0 0 1 202 67a20.24 20.24 0 0 1-6.8-6.2c-1.8-2.4-2.6-6-2.6-10.4M284.4 31h19v14h-19v33.6a9.67 9.67 0 0 0 2.6 7.2 9.33 9.33 0 0 0 7 2.8 37 37 0 0 0 8.8-1.2l2.4 13.8a62.39 62.39 0 0 1-15.6 2.2 28.07 28.07 0 0 1-9.4-1.6 21.92 21.92 0 0 1-7.4-4.6A19.8 19.8 0 0 1 268 90a22.84 22.84 0 0 1-1.6-9.2V45.4h-12.8v-14h12.8V10.8h17.8V31Zm48.4 48.8a9.5 9.5 0 0 0 3.4 7.2 12.88 12.88 0 0 0 8.6 3 15.67 15.67 0 0 0 11.6-4.6c3-3 4.4-7 4.4-11.8v-4.2a40.47 40.47 0 0 0-11.4-1.4c-5.2 0-9.2 1-12.2 3.2a10.26 10.26 0 0 0-4.4 8.6m-17.4 1c0-7.4 2.8-13.2 8.4-17.2s13.4-6 23.6-6c2.2 0 4.4.2 6.6.4s4.6.6 6.8 1v-3.8a11 11 0 0 0-3.8-8.8c-2.6-2.2-6-3.4-10.4-3.4a59.63 59.63 0 0 0-22.8 5l-4.6-12.8a78.47 78.47 0 0 1 29.4-5.8 31.78 31.78 0 0 1 11.8 2 24.9 24.9 0 0 1 9.2 5.4 22.37 22.37 0 0 1 6 8.2 26.44 26.44 0 0 1 2.2 10.6v28.6a4.89 4.89 0 0 0 1.2 3.6 4.28 4.28 0 0 0 3.6 1.4 8.2 8.2 0 0 0 2.2-.2 11.28 11.28 0 0 0 1.4-.2l1.2 13.4c-1.6.2-3 .6-4.6.8a40.17 40.17 0 0 1-5 .2 15.56 15.56 0 0 1-9.2-2.6 14 14 0 0 1-5.6-7 31.57 31.57 0 0 1-22.8 9.4 31.76 31.76 0 0 1-10-1.6 21.79 21.79 0 0 1-7.8-4.6 19.53 19.53 0 0 1-5-7 19.77 19.77 0 0 1-2-9m82.4-50h14.4l2.2 9.6a28.84 28.84 0 0 1 10-8.4 28 28 0 0 1 12.8-3 27.43 27.43 0 0 1 13.6 3.4 22.2 22.2 0 0 1 8.8 9.4 33.82 33.82 0 0 1 11.2-9.6 29.46 29.46 0 0 1 14-3.2 29.12 29.12 0 0 1 10.4 1.8 21 21 0 0 1 8.2 5.4 21 21 0 0 1 5.4 8.2 29.17 29.17 0 0 1 2 10.4v46.4h-18.2V57.8a13.11 13.11 0 0 0-3.8-9.8 13.92 13.92 0 0 0-9.8-3.8 15 15 0 0 0-11.4 4.8c-3 3.2-4.4 7.2-4.4 12.4v39.8H445V57.8a13.78 13.78 0 0 0-3.6-9.8 13.11 13.11 0 0 0-9.6-3.8 15.09 15.09 0 0 0-11.6 4.8c-3 3.2-4.4 7.2-4.4 12.4v39.8h-18.2V30.8Zm182.2 35a26.53 26.53 0 0 0-1.4-9 18.1 18.1 0 0 0-3.8-7 17.71 17.71 0 0 0-5.6-4.6 14.65 14.65 0 0 0-7.2-1.6 15.28 15.28 0 0 0-11.8 5 17.74 17.74 0 0 0-4.6 12.6v9.4a19 19 0 0 0 1.2 7 17.5 17.5 0 0 0 3.4 5.6 13.53 13.53 0 0 0 5.2 3.6A17.62 17.62 0 0 0 562 88a17.25 17.25 0 0 0 7.2-1.6 15.39 15.39 0 0 0 5.6-4.6 26.13 26.13 0 0 0 3.8-7 25.77 25.77 0 0 0 1.4-9Zm-52-35h14.4l2.2 9a27.89 27.89 0 0 1 9.4-8 29.11 29.11 0 0 1 12.6-2.8 29.76 29.76 0 0 1 22.8 10.4A34.5 34.5 0 0 1 596 51a43.35 43.35 0 0 1 2.4 14.8 43.35 43.35 0 0 1-2.4 14.8 36.57 36.57 0 0 1-6.6 11.6 30.9 30.9 0 0 1-10 7.6 30 30 0 0 1-12.8 2.8 27.36 27.36 0 0 1-11.6-2.4 22.53 22.53 0 0 1-9-7.2v42.6h-18V30.8ZM61.2 83.2c-2.8 2.8-6.6 4-11.4 4H27.4v-29h22.4a16.84 16.84 0 0 1 11.4 4 13.71 13.71 0 0 1 4.2 10.4c.2 4.4-1.2 8-4.2 10.6ZM27.4 19H48a14.52 14.52 0 0 1 10.4 3.8c2.8 2.4 4 5.8 4 9.8a12.51 12.51 0 0 1-4 9.6A15.3 15.3 0 0 1 48 45.8H27.4Zm52.2 41a24.62 24.62 0 0 0-12-9 21.54 21.54 0 0 0 9.4-8 22.18 22.18 0 0 0 3.6-12.6 23.87 23.87 0 0 0-2.2-10.2 22.17 22.17 0 0 0-6.2-8A28.54 28.54 0 0 0 62.8 7a37.79 37.79 0 0 0-12-1.8H0V18a14.08 14.08 0 0 1 14 14.2A14.08 14.08 0 0 1 0 46.4V58a14.08 14.08 0 0 1 14 14.2v2.2A14.08 14.08 0 0 1 0 88.6v12.8h53a35.08 35.08 0 0 0 12.4-2 27.49 27.49 0 0 0 9.8-5.4 23.55 23.55 0 0 0 6.4-8.4A23.82 23.82 0 0 0 84 74.8 24.45 24.45 0 0 0 79.6 60Z" id="text" fill="#333433"/></g></g></svg>