<svg xmlns="http://www.w3.org/2000/svg" viewBox="0 0 700.71 695.96"><defs><clipPath id="clip-path"><path class="cls-2" d="m126.6 385.86 14.03-8.69v-44.03l-14.03 8.7v44.02z"/></clipPath><clipPath id="clip-path-2"><path class="cls-2" d="m112.57 377.17 14.03 8.69v-44.02l-14.03-8.7v44.03z"/></clipPath><clipPath id="clip-path-4"><path class="cls-3" d="m548.68 278.37 10.68-7.1c-23.27 15.47-29.14 49.71-13.11 76.46s47.9 35.9 71.18 20.44l-10.69 7.1c-23.27 15.46-55.14 6.31-71.17-20.44s-10.16-61 13.11-76.46Z"/></clipPath><clipPath id="clip-path-5"><path class="cls-3" d="m542.35 241.4 10.65-7.1a73.63 73.63 0 0 1 36.72-5.36L579.08 236a73.45 73.45 0 0 0-36.73 5.4Z"/></clipPath><clipPath id="clip-path-6"><path class="cls-3" d="m656.12 364.59 10.68-7.1a81.59 81.59 0 0 1-20.41 32.6l-10.68 7.1a81.7 81.7 0 0 0 20.41-32.6Z"/></clipPath><clipPath id="clip-path-7"><path class="cls-3" d="m606.14 243.8 10.68-7.1a93.4 93.4 0 0 1 31.53 25l-10.69 7.1a93.27 93.27 0 0 0-31.52-25Z"/></clipPath><clipPath id="clip-path-8"><path class="cls-3" d="m653.27 294.82 10.69-7.1a102.14 102.14 0 0 1 7.83 40.71l-10.68 7.1a102 102 0 0 0-7.84-40.71Z"/></clipPath><linearGradient id="linear-gradient" x1="485.8" y1="139.7" x2="615.19" y2="139.7" gradientUnits="userSpaceOnUse"><stop offset="0" stop-color="#ecf3fa"/><stop offset="1" stop-color="#fbdbe0"/></linearGradient><linearGradient id="linear-gradient-2" x1="506.03" y1="139.29" x2="592.5" y2="139.29" gradientUnits="userSpaceOnUse"><stop offset="0" stop-color="#f9bc31"/><stop offset="1" stop-color="#ee3937"/></linearGradient><style>.cls-1{fill:#fff}.cls-2{fill:none}.cls-171,.cls-3{fill:#e84b27}.cls-4{isolation:isolate}.cls-5{fill:#fef9f8}.cls-6{fill:#fea3fe}.cls-165,.cls-169,.cls-171{mix-blend-mode:screen}.cls-157,.cls-164,.cls-165,.cls-168,.cls-169,.cls-8{opacity:.3}.cls-157,.cls-164,.cls-168,.cls-170,.cls-8,.cls-9{mix-blend-mode:multiply}.cls-9{opacity:.4}.cls-11{fill:#5b2a93}.cls-12{fill:#5d2c95}.cls-13{fill:#5f2e96}.cls-14{fill:#613197}.cls-15{fill:#623398}.cls-16{fill:#643599}.cls-17{fill:#66379a}.cls-18{fill:#683a9c}.cls-19{fill:#6b3e9e}.cls-20{fill:#6d419f}.cls-21{fill:#316dcd}.cls-22{fill:#336ece}.cls-23{fill:#3570ce}.cls-24{fill:#3872cf}.cls-25{fill:#3a74d0}.cls-26{fill:#3c75d1}.cls-27{fill:#3d76d1}.cls-28{fill:#3e7bde}.cls-29{fill:#407dde}.cls-30{fill:#437fe0}.cls-31{fill:#4682e0}.cls-32{fill:#4883e1}.cls-33{fill:#4a84e2}.cls-34{fill:#030303}.cls-35{fill:#050505}.cls-36{fill:#080808}.cls-37{fill:#0a0a0a}.cls-38{fill:#0d0d0d}.cls-39{fill:#0f0f0f}.cls-40{fill:#121212}.cls-41{fill:#141414}.cls-42{fill:#171717}.cls-43{fill:#1a1a1a}.cls-44{fill:#1c1c1c}.cls-45{fill:#1f1f1f}.cls-46{fill:#212121}.cls-47{fill:#7c188c}.cls-48{fill:#7d1a8d}.cls-49{fill:#7f1d8e}.cls-50{fill:#801f8f}.cls-51{fill:#832492}.cls-52{fill:#842693}.cls-53{fill:#852894}.cls-54{fill:#882d96}.cls-55{fill:#892f98}.cls-56{fill:#8a3199}.cls-57{fill:#8c349a}.cls-58{fill:#8d369b}.cls-59{fill:#8e389c}.cls-60{fill:#913d9e}.cls-61{fill:#923fa0}.cls-62{fill:#9442a1}.cls-63{fill:#9646a3}.cls-64{fill:#141736}.cls-65{fill:#161938}.cls-66{fill:#191b3a}.cls-67{fill:#1d203e}.cls-68{fill:#202340}.cls-69{fill:#222542}.cls-70{fill:#252744}.cls-71{fill:#272a47}.cls-72{fill:#292c49}.cls-73{fill:#2c2e4b}.cls-74{fill:#2e314d}.cls-75{fill:#31334f}.cls-76{fill:#333651}.cls-77{fill:#353853}.cls-78{fill:#383a55}.cls-79{fill:#3d3f59}.cls-80{fill:#3f415b}.cls-81{fill:#41445d}.cls-82{fill:#44465f}.cls-83{fill:#464961}.cls-84{fill:#494b63}.cls-85{fill:#4b4d65}.cls-86{fill:#4d5067}.cls-87{fill:#52546b}.cls-88{fill:#55576d}.cls-89{fill:#575970}.cls-90{fill:#595b72}.cls-91{fill:#5c5e74}.cls-92{fill:#5e6076}.cls-93{fill:#616378}.cls-94{fill:#63657a}.cls-95{fill:#65677c}.cls-96{fill:#686a7e}.cls-97{fill:#6a6c80}.cls-98{fill:#6f7184}.cls-99{fill:#717386}.cls-100{fill:#747688}.cls-101{fill:#76788a}.cls-102{fill:#581086}.cls-103{fill:#5b1588}.cls-104{fill:#5f1a8b}.cls-105{fill:#621e8d}.cls-106{fill:#64218e}.cls-107{fill:#672691}.cls-108{fill:#6a2a93}.cls-109{fill:#6e2f96}.cls-110{fill:#713498}.cls-111{fill:#74399b}.cls-112{fill:#763b9c}.cls-113{fill:#79409e}.cls-114{fill:#7d45a1}.cls-115{fill:#8049a3}.cls-116{fill:#834ea5}.cls-117{fill:#8551a7}.cls-118{fill:#8855a9}.cls-119{fill:#8c5aac}.cls-120{fill:#8d5cad}.cls-121{fill:#9161af}.cls-122{fill:#9264b0}.cls-123{fill:#9668b3}.cls-124{fill:#996db5}.cls-125{fill:#9c72b8}.cls-126{fill:#a077ba}.cls-127{fill:#a37cbc}.cls-128{fill:#a57ebe}.cls-129{fill:#a680bf}.cls-130{fill:#aa85c1}.cls-131{fill:#ad8ac4}.cls-132{fill:#af8cc5}.cls-133{fill:#b291c7}.cls-134{fill:#b696ca}.cls-135{fill:#b99bcc}.cls-136{fill:#bc9fcf}.cls-137{fill:#c0a4d1}.cls-138{fill:#c3a9d3}.cls-139{fill:#c6aed6}.cls-140{fill:#cab3d8}.cls-141{fill:#cdb7db}.cls-142{fill:#d0bcdd}.cls-143{fill:#d4c1e0}.cls-144{fill:#d7c6e2}.cls-145{fill:#dacae4}.cls-146{fill:#eec5fc}.cls-147{fill:#dfa4fd}.cls-148{clip-path:url(#clip-path-2)}.cls-152,.cls-168,.cls-169{fill:#f47964}.cls-153{fill:#4b80e7}.cls-154,.cls-164,.cls-165{fill:#f7c0b7}.cls-155,.cls-157{fill:#fcd8d4}.cls-158{fill:#ed6eab}.cls-159{fill:#f9ccc7}.cls-161{fill:#f4adab}.cls-172{fill:#c13d27}</style><mask id="mask" x="506.03" y="96.27" width="86.46" height="86.03" maskUnits="userSpaceOnUse"><g id="mask-4"><path id="path-3" class="cls-1" d="M549 96.27a21.25 21.25 0 0 0-2.5.16 17.18 17.18 0 0 0-10.28 4.92c-2 2-4 4.05-6.07 6.08-1 1-2.08 2.06-3.13 3.09-1.1 1.07-2.21 2.14-3.3 3.22l-3 3c-1.57 1.57-3.16 3.11-4.72 4.68-1.22 1.23-2.41 2.49-3.61 3.73-.7.73-1.46 1.41-2.11 2.18-2.85 3.34-4.2 7.24-4.24 12.43a15.11 15.11 0 0 0 1.9 7 26.62 26.62 0 0 0 2.36 3.7c.58.81 1 .81 1.78.18a5.08 5.08 0 0 0 .41-.39c.76-.79 1.51-1.58 2.27-2.36l3.31-3.38c1.15-1.19 2.27-2.4 3.42-3.59.54-.57 1.13-1.1 1.67-1.67 1.17-1.22 2.32-2.47 3.5-3.68 1.15-1.18 2.34-2.33 3.5-3.5 1.29-1.32 2.55-2.67 3.84-4 1.19-1.2 2.43-2.36 3.62-3.56 1.55-1.58 3.07-3.2 4.62-4.79 1-1 1.94-1.9 2.89-2.86 1.3-1.3 2.58-2.63 3.88-3.93 1.12-1.11 2.28-2.19 3.4-3.3q3.75-3.73 7.49-7.49c.16-.16.31-.33.45-.5.61-.75.66-.93-.09-1.47a23.6 23.6 0 0 0-3.71-2.34 17.53 17.53 0 0 0-7.43-1.62H549Zm19.22 15.57a7.49 7.49 0 0 0-5.86 2.66 5 5 0 0 1-.4.4c-1.35 1.3-2.72 2.6-4.06 3.91l-4.16 4.13c-1.15 1.14-2.31 2.27-3.45 3.41-1.2 1.2-2.36 2.43-3.57 3.61-1.25 1.25-2.55 2.45-3.81 3.68-1.53 1.5-3 3-4.55 4.53l-8.36 8.36-11.17 11.07c-.7.7-.73.79 0 1.53 1.78 1.79 3.58 3.57 5.36 5.35a7.12 7.12 0 0 0 3.91 2.11 9.63 9.63 0 0 0 4.37-.14 6.63 6.63 0 0 0 2.87-1.51l4.4-4.22c1-1 2.09-1.95 3.11-2.95 2-2 4-4 6.09-6 1.67-1.63 3.37-3.23 5-4.85l6.89-6.67 6.49-6.28a1.44 1.44 0 0 1 2.52.27 9.7 9.7 0 0 1 1.64 6.44 9.17 9.17 0 0 1-2.32 5.29c-1.6 1.69-3.29 3.29-5 4.92-1.18 1.16-2.38 2.3-3.56 3.46q-2.28 2.26-4.54 4.54c-.24.24-.46.5-.69.74l-1.5 1.53c-1.12 1.11-2.26 2.21-3.37 3.33-1.19 1.2-2.36 2.42-3.54 3.63-.11.1-.23.19-.34.3l-3.8 3.68c-.59.57-1.17 1.17-1.75 1.75l-3 3c-.59.62-.58 1 .11 1.49a24.88 24.88 0 0 0 3.72 2.33 17.67 17.67 0 0 0 7.54 1.61h.05a24.2 24.2 0 0 0 2.67-.16 16.86 16.86 0 0 0 9.32-4.2c2-1.7 3.71-3.63 5.55-5.47 1.36-1.35 2.71-2.72 4.07-4.07l3.83-3.83c1.17-1.17 2.33-2.34 3.51-3.5 1.31-1.29 2.66-2.54 4-3.84 1.34-1.32 2.67-2.65 4-4a30 30 0 0 0 2.93-3.42 18.75 18.75 0 0 0 3-8.28 18.48 18.48 0 0 0 0-4.42 18.19 18.19 0 0 0-2.8-7.32 21.34 21.34 0 0 0-3.71-4.23c-3.68-3.63-7.34-7.26-10.94-11a8.35 8.35 0 0 0-6.26-2.75h-.39Z"/></g></mask></defs><g class="cls-4"><g id="Слой_2" data-name="Слой 2"><g id="_Layer_" data-name="&lt;Layer&gt;"><path class="cls-5" d="m322.11 677-1.49-1L28.47 486l222.87-140 1.46.91L550.5 531.5ZM38.7 486.14l283.44 184.34 218-138.92-288.79-179Z"/><path class="cls-6" d="m106.92 377.94 19.68-12.19 19.68 12.19-19.68 12.2-19.68-12.2z"/><path class="cls-6" d="m106.92 377.94 19.68-12.19 19.68 12.19-19.68 12.2-19.68-12.2z" style="mix-blend-mode:screen" opacity=".3"/><path class="cls-6" d="m126.6 487.71 19.68-12.2v-97.57l-19.68 12.2v97.57zm-19.68-12.2 19.68 12.2v-97.57l-19.68-12.2v97.57z"/><g class="cls-8"><path class="cls-6" d="m106.92 475.51 19.68 12.2v-97.57l-19.68-12.2v97.57z"/></g><g class="cls-9" clip-path="url(#clip-path)"><path class="cls-11" d="M126.6 385.86Zm0-.23h14.03v.24H126.6zm0-.24h14.03v.24H126.6zm0-.24h14.03v.24H126.6z"/><path class="cls-11" d="M126.6 384.92h14.03v.24H126.6z"/><path class="cls-12" d="M126.6 384.68h14.03v.24H126.6zm0-.24h14.03v.24H126.6z"/><path class="cls-13" d="M126.6 384.21h14.03v.24H126.6z"/><path class="cls-13" d="M126.6 383.97h14.03v.24H126.6zm0-.24h14.03v.24H126.6z"/><path class="cls-14" d="M126.6 383.5h14.03v.24H126.6zm0-.24h14.03v.24H126.6z"/><path class="cls-15" d="M126.6 383.03h14.03v.24H126.6z"/><path class="cls-15" d="M126.6 382.79h14.03v.24H126.6z"/><path class="cls-16" d="M126.6 382.55h14.03v.24H126.6z"/><path class="cls-16" d="M126.6 382.32h14.03v.24H126.6z"/><path class="cls-17" d="M126.6 382.08h14.03v.24H126.6zm0-.24h14.03v.24H126.6z"/><path class="cls-17" d="M126.6 381.61h14.03v.24H126.6z"/><path class="cls-18" d="M126.6 381.37h14.03v.24H126.6zm0-.24h14.03v.24H126.6z"/><path class="cls-19" d="M126.6 380.9h14.03v.24H126.6z"/><path class="cls-19" d="M126.6 380.66h14.03v.24H126.6z"/><path class="cls-20" d="M126.6 380.42h14.03v.24H126.6z"/><path class="cls-20" d="M126.6 380.19h14.03v.24H126.6zm0-.24h14.03v.24H126.6z"/><path class="cls-21" d="M126.6 379.72h14.03v.24H126.6zm0-.24h14.03v.24H126.6z"/><path class="cls-22" d="M126.6 379.24h14.03v.24H126.6z"/><path class="cls-22" d="M126.6 379.01h14.03v.24H126.6z"/><path class="cls-23" d="M126.6 378.77h14.03v.24H126.6zm0-.24h14.03v.24H126.6z"/><path class="cls-24" d="M126.6 378.3h14.03v.24H126.6zm0-.24h14.03v.24H126.6zm0-.24h14.03v.24H126.6z"/><path class="cls-25" d="M126.6 377.59h14.03v.24H126.6z"/><path class="cls-25" d="M126.6 377.35h14.03v.24H126.6z"/><path class="cls-26" d="M126.6 377.12h14.03v.24H126.6zm0-.24h14.03v.24H126.6z"/><path class="cls-27" d="M126.6 376.64h14.03v.24H126.6z"/><path class="cls-27" d="M126.6 376.41h14.03v.24H126.6zm0-.24h14.03v.24H126.6z"/><path class="cls-28" d="M126.6 375.93h14.03v.24H126.6z"/><path class="cls-28" d="M126.6 375.7h14.03v.24H126.6z"/><path class="cls-29" d="M126.6 375.46h14.03v.24H126.6z"/><path class="cls-29" d="M126.6 375.22h14.03v.24H126.6z"/><path class="cls-30" d="M126.6 374.99h14.03v.24H126.6zm0-.24h14.03v.24H126.6z"/><path class="cls-31" d="M126.6 374.51h14.03v.24H126.6z"/><path class="cls-31" d="M126.6 374.28h14.03v.24H126.6z"/><path class="cls-31" d="M126.6 374.04h14.03v.24H126.6z"/><path class="cls-32" d="M126.6 373.81h14.03v.24H126.6zm0-.24h14.03v.24H126.6z"/><path class="cls-33" d="M126.6 373.33h14.03v.24H126.6z"/><path class="cls-33" d="M126.6 373.1h14.03v.24H126.6z"/><path d="M126.6 372.86h14.03v.24H126.6z"/><path class="cls-34" d="M126.6 372.62h14.03v.24H126.6z"/><path class="cls-34" d="M126.6 372.39h14.03v.24H126.6z"/><path class="cls-35" d="M126.6 372.15h14.03v.24H126.6z"/><path class="cls-35" d="M126.6 371.91h14.03v.24H126.6z"/><path class="cls-36" d="M126.6 371.68h14.03v.24H126.6z"/><path class="cls-37" d="M126.6 371.44h14.03v.24H126.6z"/><path class="cls-37" d="M126.6 371.21h14.03v.24H126.6z"/><path class="cls-38" d="M126.6 370.97h14.03v.24H126.6zm0-.24h14.03v.24H126.6z"/><path class="cls-39" d="M126.6 370.5h14.03v.24H126.6zm0-.24h14.03v.24H126.6z"/><path class="cls-40" d="M126.6 370.02h14.03v.24H126.6z"/><path class="cls-41" d="M126.6 369.79h14.03v.24H126.6zm0-.24h14.03v.24H126.6z"/><path class="cls-42" d="M126.6 369.31h14.03v.24H126.6z"/><path class="cls-42" d="M126.6 369.08h14.03v.24H126.6z"/><path class="cls-43" d="M126.6 368.84h14.03v.24H126.6z"/><path class="cls-43" d="M126.6 368.6h14.03v.24H126.6z"/><path class="cls-44" d="M126.6 368.37h14.03v.24H126.6zm0-.24h14.03v.24H126.6z"/><path class="cls-45" d="M126.6 367.9h14.03v.24H126.6z"/><path class="cls-46" d="M126.6 367.66h14.03v.24H126.6zm0-.24h14.03v.24H126.6z"/><path class="cls-47" d="M126.6 367.19h14.03v.24H126.6zm0-.24h14.03v.24H126.6z"/><path class="cls-48" d="M126.6 366.71h14.03v.24H126.6z"/><path class="cls-49" d="M126.6 366.48h14.03v.24H126.6zm0-.24h14.03v.24H126.6z"/><path class="cls-50" d="M126.6 366h14.03v.24H126.6z"/><path class="cls-50" d="M126.6 365.77h14.03v.24H126.6z"/><path class="cls-51" d="M126.6 365.53h14.03v.24H126.6z"/><path class="cls-51" d="M126.6 365.29h14.03v.24H126.6z"/><path class="cls-52" d="M126.6 365.06h14.03v.24H126.6zm0-.24h14.03v.24H126.6z"/><path class="cls-53" d="M126.6 364.59h14.03v.24H126.6z"/><path class="cls-54" d="M126.6 364.35h14.03v.24H126.6zm0-.24h14.03v.24H126.6z"/><path class="cls-55" d="M126.6 363.88h14.03v.24H126.6zm0-.24h14.03v.24H126.6z"/><path class="cls-56" d="M126.6 363.4h14.03v.24H126.6z"/><path class="cls-57" d="M126.6 363.17h14.03v.24H126.6zm0-.24h14.03v.24H126.6z"/><path class="cls-58" d="M126.6 362.69h14.03v.24H126.6z"/><path class="cls-58" d="M126.6 362.46h14.03v.24H126.6z"/><path class="cls-59" d="M126.6 362.22h14.03v.24H126.6z"/><path class="cls-59" d="M126.6 361.99h14.03v.24H126.6z"/><path class="cls-60" d="M126.6 361.75h14.03v.24H126.6z"/><path class="cls-61" d="M126.6 361.51h14.03v.24H126.6z"/><path class="cls-61" d="M126.6 361.28h14.03v.24H126.6z"/><path class="cls-62" d="M126.6 361.04h14.03v.24H126.6zm0-.24h14.03v.24H126.6z"/><path class="cls-63" d="M126.6 360.57h14.03v.24H126.6z"/><path class="cls-64" d="M126.6 360.33h14.03v.24H126.6z"/><path class="cls-65" d="M126.6 360.09h14.03v.24H126.6z"/><path class="cls-66" d="M126.6 359.86h14.03v.24H126.6zm0-.24h14.03v.24H126.6z"/><path class="cls-67" d="M126.6 359.38h14.03v.24H126.6z"/><path class="cls-68" d="M126.6 359.15h14.03v.24H126.6z"/><path class="cls-69" d="M126.6 358.91h14.03v.24H126.6z"/><path class="cls-70" d="M126.6 358.68h14.03v.24H126.6zm0-.24h14.03v.24H126.6z"/><path class="cls-71" d="M126.6 358.2h14.03v.24H126.6z"/><path class="cls-72" d="M126.6 357.97h14.03v.24H126.6z"/><path class="cls-73" d="M126.6 357.73h14.03v.24H126.6z"/><path class="cls-74" d="M126.6 357.49h14.03v.24H126.6z"/><path class="cls-74" d="M126.6 357.26h14.03v.24H126.6z"/><path class="cls-75" d="M126.6 357.02h14.03v.24H126.6z"/><path class="cls-76" d="M126.6 356.78h14.03v.24H126.6z"/><path class="cls-77" d="M126.6 356.55h14.03v.24H126.6z"/><path class="cls-78" d="M126.6 356.31h14.03v.24H126.6z"/><path class="cls-78" d="M126.6 356.08h14.03v.24H126.6z"/><path class="cls-79" d="M126.6 355.84h14.03v.24H126.6z"/><path class="cls-80" d="M126.6 355.6h14.03v.24H126.6z"/><path class="cls-81" d="M126.6 355.37h14.03v.24H126.6z"/><path class="cls-82" d="M126.6 355.13h14.03v.24H126.6z"/><path class="cls-83" d="M126.6 354.89h14.03v.24H126.6z"/><path class="cls-84" d="M126.6 354.66h14.03v.24H126.6zm0-.24h14.03v.24H126.6z"/><path class="cls-85" d="M126.6 354.18h14.03v.24H126.6z"/><path class="cls-85" d="M126.6 353.95h14.03v.24H126.6z"/><path class="cls-86" d="M126.6 353.71h14.03v.24H126.6z"/><path class="cls-87" d="M126.6 353.47h14.03v.24H126.6z"/><path class="cls-87" d="M126.6 353.24h14.03v.24H126.6z"/><path class="cls-88" d="M126.6 353h14.03v.24H126.6z"/><path class="cls-89" d="M126.6 352.77h14.03v.24H126.6z"/><path class="cls-90" d="M126.6 352.53h14.03v.24H126.6z"/><path class="cls-91" d="M126.6 352.29h14.03v.24H126.6z"/><path class="cls-91" d="M126.6 352.06h14.03v.24H126.6z"/><path class="cls-92" d="M126.6 351.82h14.03v.24H126.6z"/><path class="cls-93" d="M126.6 351.58h14.03v.24H126.6z"/><path class="cls-93" d="M126.6 351.35h14.03v.24H126.6z"/><path class="cls-94" d="M126.6 351.11h14.03v.24H126.6z"/><path class="cls-95" d="M126.6 350.87h14.03v.24H126.6z"/><path class="cls-95" d="M126.6 350.64h14.03v.24H126.6z"/><path class="cls-96" d="M126.6 350.4h14.03v.24H126.6z"/><path class="cls-97" d="M126.6 350.16h14.03v.24H126.6z"/><path class="cls-98" d="M126.6 349.93h14.03v.24H126.6z"/><path class="cls-99" d="M126.6 349.69h14.03v.24H126.6z"/><path class="cls-99" d="M126.6 349.46h14.03v.24H126.6z"/><path class="cls-100" d="M126.6 349.22h14.03v.24H126.6z"/><path class="cls-101" d="M126.6 348.98h14.03v.24H126.6z"/><path class="cls-101" d="M126.6 348.75h14.03v.24H126.6z"/><path class="cls-102" d="M126.6 348.51h14.03v.24H126.6zm0-.24h14.03v.24H126.6z"/><path class="cls-103" d="M126.6 348.04h14.03v.24H126.6z"/><path class="cls-104" d="M126.6 347.8h14.03v.24H126.6z"/><path class="cls-105" d="M126.6 347.56h14.03v.24H126.6z"/><path class="cls-106" d="M126.6 347.33h14.03v.24H126.6z"/><path class="cls-107" d="M126.6 347.09h14.03v.24H126.6z"/><path class="cls-108" d="M126.6 346.86h14.03v.24H126.6zm0-.24h14.03v.24H126.6z"/><path class="cls-109" d="M126.6 346.38h14.03v.24H126.6z"/><path class="cls-110" d="M126.6 346.15h14.03v.24H126.6z"/><path class="cls-111" d="M126.6 345.91h14.03v.24H126.6z"/><path class="cls-112" d="M126.6 345.67h14.03v.24H126.6z"/><path class="cls-112" d="M126.6 345.44h14.03v.24H126.6z"/><path class="cls-113" d="M126.6 345.2h14.03v.24H126.6z"/><path class="cls-114" d="M126.6 344.96h14.03v.24H126.6z"/><path class="cls-115" d="M126.6 344.73h14.03v.24H126.6z"/><path class="cls-116" d="M126.6 344.49h14.03v.24H126.6zm0-.24h14.03v.24H126.6z"/><path class="cls-117" d="M126.6 344.02h14.03v.24H126.6z"/><path class="cls-118" d="M126.6 343.78h14.03v.24H126.6z"/><path class="cls-119" d="M126.6 343.55h14.03v.24H126.6z"/><path class="cls-120" d="M126.6 343.31h14.03v.24H126.6z"/><path class="cls-121" d="M126.6 343.07h14.03v.24H126.6z"/><path class="cls-122" d="M126.6 342.84h14.03v.24H126.6z"/><path class="cls-122" d="M126.6 342.6h14.03v.24H126.6z"/><path class="cls-123" d="M126.6 342.36h14.03v.24H126.6z"/><path class="cls-124" d="M126.6 342.13h14.03v.24H126.6z"/><path class="cls-125" d="M126.6 341.89h14.03v.24H126.6z"/><path class="cls-126" d="M126.6 341.65h14.03v.24H126.6z"/><path class="cls-126" d="M126.6 341.42h14.03v.24H126.6z"/><path class="cls-127" d="M126.6 341.18h14.03v.24H126.6z"/><path class="cls-128" d="M126.6 340.95h14.03v.24H126.6z"/><path class="cls-129" d="M126.6 340.71h14.03v.24H126.6z"/><path class="cls-130" d="M126.6 340.47h14.03v.24H126.6z"/><path class="cls-130" d="M126.6 340.24h14.03v.24H126.6z"/><path class="cls-131" d="M126.6 340h14.03v.24H126.6z"/><path class="cls-132" d="M126.6 339.76h14.03v.24H126.6z"/><path class="cls-133" d="M126.6 339.53h14.03v.24H126.6z"/><path class="cls-134" d="M126.6 339.29h14.03v.24H126.6z"/><path class="cls-135" d="M126.6 339.05h14.03v.24H126.6z"/><path class="cls-136" d="M126.6 338.82h14.03v.24H126.6zm0-.24h14.03v.24H126.6z"/><path class="cls-137" d="M126.6 338.34h14.03v.24H126.6z"/><path class="cls-137" d="M126.6 338.11h14.03v.24H126.6z"/><path class="cls-138" d="M126.6 337.87h14.03v.24H126.6z"/><path class="cls-139" d="M126.6 337.64h14.03v.24H126.6zm0-.24h14.03v.24H126.6z"/><path class="cls-140" d="M126.6 337.16h14.03v.24H126.6z"/><path class="cls-141" d="M126.6 336.93h14.03v.24H126.6z"/><path class="cls-142" d="M126.6 336.69h14.03v.24H126.6zm0-.24h14.03v.24H126.6z"/><path class="cls-143" d="M126.6 336.22h14.03v.24H126.6z"/><path class="cls-144" d="M126.6 335.98h14.03v.24H126.6z"/><path class="cls-145" d="M126.6 335.74h14.03v.24H126.6z"/><path class="cls-145" d="M126.6 335.51h14.03v.24H126.6z"/><path class="cls-146" d="M126.6 335.27h14.03v.24H126.6z"/><path class="cls-146" d="M126.6 335.04h14.03v.24H126.6z"/><path class="cls-147" d="M126.6 334.8h14.03v.24H126.6zm0-.24h14.03v.24H126.6z"/><path class="cls-147" d="M126.6 334.33h14.03v.24H126.6zm0-.24h14.03v.24H126.6z"/><path class="cls-147" d="M126.6 333.85h14.03v.24H126.6z"/><path class="cls-6" d="M126.6 333.62h14.03v.24H126.6zm0-.24h14.03v.24H126.6zm0-.24h14.03v.24H126.6z"/></g><g class="cls-9"><g class="cls-148"><path class="cls-1" d="M112.57 385.86h14.03-14.03zm0-10.54h14.03v10.54h-14.03z"/><path d="M112.57 364.77h14.03v10.54h-14.03z" fill="#fefefe"/><path d="M112.57 354.23h14.03v10.54h-14.03z" fill="#fefeff"/><path class="cls-6" d="M112.57 343.69h14.03v10.54h-14.03zm0-10.55h14.03v10.55h-14.03v-10.55zm14.03 0h-14.02 14.02z"/></g></g><g class="cls-148" style="mix-blend-mode:multiply" opacity=".5"><path class="cls-11" d="M112.57 385.86h14.03-14.03zm0-.23h14.03v.24h-14.03zm0-.24h14.03v.24h-14.03zm0-.24h14.03v.24h-14.03z"/><path class="cls-11" d="M112.57 384.92h14.03v.24h-14.03z"/><path class="cls-12" d="M112.57 384.68h14.03v.24h-14.03zm0-.24h14.03v.24h-14.03z"/><path class="cls-13" d="M112.57 384.21h14.03v.24h-14.03z"/><path class="cls-13" d="M112.57 383.97h14.03v.24h-14.03zm0-.24h14.03v.24h-14.03z"/><path class="cls-14" d="M112.57 383.5h14.03v.24h-14.03zm0-.24h14.03v.24h-14.03z"/><path class="cls-15" d="M112.57 383.03h14.03v.24h-14.03z"/><path class="cls-15" d="M112.57 382.79h14.03v.24h-14.03z"/><path class="cls-16" d="M112.57 382.55h14.03v.24h-14.03z"/><path class="cls-16" d="M112.57 382.32h14.03v.24h-14.03z"/><path class="cls-17" d="M112.57 382.08h14.03v.24h-14.03zm0-.24h14.03v.24h-14.03z"/><path class="cls-17" d="M112.57 381.61h14.03v.24h-14.03z"/><path class="cls-18" d="M112.57 381.37h14.03v.24h-14.03zm0-.24h14.03v.24h-14.03z"/><path class="cls-19" d="M112.57 380.9h14.03v.24h-14.03z"/><path class="cls-19" d="M112.57 380.66h14.03v.24h-14.03z"/><path class="cls-20" d="M112.57 380.42h14.03v.24h-14.03z"/><path class="cls-20" d="M112.57 380.19h14.03v.24h-14.03zm0-.24h14.03v.24h-14.03z"/><path class="cls-21" d="M112.57 379.72h14.03v.24h-14.03zm0-.24h14.03v.24h-14.03z"/><path class="cls-22" d="M112.57 379.24h14.03v.24h-14.03z"/><path class="cls-22" d="M112.57 379.01h14.03v.24h-14.03z"/><path class="cls-23" d="M112.57 378.77h14.03v.24h-14.03zm0-.24h14.03v.24h-14.03z"/><path class="cls-24" d="M112.57 378.3h14.03v.24h-14.03zm0-.24h14.03v.24h-14.03zm0-.24h14.03v.24h-14.03z"/><path class="cls-25" d="M112.57 377.59h14.03v.24h-14.03z"/><path class="cls-25" d="M112.57 377.35h14.03v.24h-14.03z"/><path class="cls-26" d="M112.57 377.12h14.03v.24h-14.03zm0-.24h14.03v.24h-14.03z"/><path class="cls-27" d="M112.57 376.64h14.03v.24h-14.03z"/><path class="cls-27" d="M112.57 376.41h14.03v.24h-14.03zm0-.24h14.03v.24h-14.03z"/><path class="cls-28" d="M112.57 375.93h14.03v.24h-14.03z"/><path class="cls-28" d="M112.57 375.7h14.03v.24h-14.03z"/><path class="cls-29" d="M112.57 375.46h14.03v.24h-14.03z"/><path class="cls-29" d="M112.57 375.22h14.03v.24h-14.03z"/><path class="cls-30" d="M112.57 374.99h14.03v.24h-14.03zm0-.24h14.03v.24h-14.03z"/><path class="cls-31" d="M112.57 374.51h14.03v.24h-14.03z"/><path class="cls-31" d="M112.57 374.28h14.03v.24h-14.03z"/><path class="cls-31" d="M112.57 374.04h14.03v.24h-14.03z"/><path class="cls-32" d="M112.57 373.81h14.03v.24h-14.03zm0-.24h14.03v.24h-14.03z"/><path class="cls-33" d="M112.57 373.33h14.03v.24h-14.03z"/><path class="cls-33" d="M112.57 373.1h14.03v.24h-14.03z"/><path d="M112.57 372.86h14.03v.24h-14.03z"/><path class="cls-34" d="M112.57 372.62h14.03v.24h-14.03z"/><path class="cls-34" d="M112.57 372.39h14.03v.24h-14.03z"/><path class="cls-35" d="M112.57 372.15h14.03v.24h-14.03z"/><path class="cls-35" d="M112.57 371.91h14.03v.24h-14.03z"/><path class="cls-36" d="M112.57 371.68h14.03v.24h-14.03z"/><path class="cls-37" d="M112.57 371.44h14.03v.24h-14.03z"/><path class="cls-37" d="M112.57 371.21h14.03v.24h-14.03z"/><path class="cls-38" d="M112.57 370.97h14.03v.24h-14.03zm0-.24h14.03v.24h-14.03z"/><path class="cls-39" d="M112.57 370.5h14.03v.24h-14.03zm0-.24h14.03v.24h-14.03z"/><path class="cls-40" d="M112.57 370.02h14.03v.24h-14.03z"/><path class="cls-41" d="M112.57 369.79h14.03v.24h-14.03zm0-.24h14.03v.24h-14.03z"/><path class="cls-42" d="M112.57 369.31h14.03v.24h-14.03z"/><path class="cls-42" d="M112.57 369.08h14.03v.24h-14.03z"/><path class="cls-43" d="M112.57 368.84h14.03v.24h-14.03z"/><path class="cls-43" d="M112.57 368.6h14.03v.24h-14.03z"/><path class="cls-44" d="M112.57 368.37h14.03v.24h-14.03zm0-.24h14.03v.24h-14.03z"/><path class="cls-45" d="M112.57 367.9h14.03v.24h-14.03z"/><path class="cls-46" d="M112.57 367.66h14.03v.24h-14.03zm0-.24h14.03v.24h-14.03z"/><path class="cls-47" d="M112.57 367.19h14.03v.24h-14.03zm0-.24h14.03v.24h-14.03z"/><path class="cls-48" d="M112.57 366.71h14.03v.24h-14.03z"/><path class="cls-49" d="M112.57 366.48h14.03v.24h-14.03zm0-.24h14.03v.24h-14.03z"/><path class="cls-50" d="M112.57 366h14.03v.24h-14.03z"/><path class="cls-50" d="M112.57 365.77h14.03v.24h-14.03z"/><path class="cls-51" d="M112.57 365.53h14.03v.24h-14.03z"/><path class="cls-51" d="M112.57 365.29h14.03v.24h-14.03z"/><path class="cls-52" d="M112.57 365.06h14.03v.24h-14.03zm0-.24h14.03v.24h-14.03z"/><path class="cls-53" d="M112.57 364.59h14.03v.24h-14.03z"/><path class="cls-54" d="M112.57 364.35h14.03v.24h-14.03zm0-.24h14.03v.24h-14.03z"/><path class="cls-55" d="M112.57 363.88h14.03v.24h-14.03zm0-.24h14.03v.24h-14.03z"/><path class="cls-56" d="M112.57 363.4h14.03v.24h-14.03z"/><path class="cls-57" d="M112.57 363.17h14.03v.24h-14.03zm0-.24h14.03v.24h-14.03z"/><path class="cls-58" d="M112.57 362.69h14.03v.24h-14.03z"/><path class="cls-58" d="M112.57 362.46h14.03v.24h-14.03z"/><path class="cls-59" d="M112.57 362.22h14.03v.24h-14.03z"/><path class="cls-59" d="M112.57 361.99h14.03v.24h-14.03z"/><path class="cls-60" d="M112.57 361.75h14.03v.24h-14.03z"/><path class="cls-61" d="M112.57 361.51h14.03v.24h-14.03z"/><path class="cls-61" d="M112.57 361.28h14.03v.24h-14.03z"/><path class="cls-62" d="M112.57 361.04h14.03v.24h-14.03zm0-.24h14.03v.24h-14.03z"/><path class="cls-63" d="M112.57 360.57h14.03v.24h-14.03z"/><path class="cls-64" d="M112.57 360.33h14.03v.24h-14.03z"/><path class="cls-65" d="M112.57 360.09h14.03v.24h-14.03z"/><path class="cls-66" d="M112.57 359.86h14.03v.24h-14.03zm0-.24h14.03v.24h-14.03z"/><path class="cls-67" d="M112.57 359.38h14.03v.24h-14.03z"/><path class="cls-68" d="M112.57 359.15h14.03v.24h-14.03z"/><path class="cls-69" d="M112.57 358.91h14.03v.24h-14.03z"/><path class="cls-70" d="M112.57 358.68h14.03v.24h-14.03zm0-.24h14.03v.24h-14.03z"/><path class="cls-71" d="M112.57 358.2h14.03v.24h-14.03z"/><path class="cls-72" d="M112.57 357.97h14.03v.24h-14.03z"/><path class="cls-73" d="M112.57 357.73h14.03v.24h-14.03z"/><path class="cls-74" d="M112.57 357.49h14.03v.24h-14.03z"/><path class="cls-74" d="M112.57 357.26h14.03v.24h-14.03z"/><path class="cls-75" d="M112.57 357.02h14.03v.24h-14.03z"/><path class="cls-76" d="M112.57 356.78h14.03v.24h-14.03z"/><path class="cls-77" d="M112.57 356.55h14.03v.24h-14.03z"/><path class="cls-78" d="M112.57 356.31h14.03v.24h-14.03z"/><path class="cls-78" d="M112.57 356.08h14.03v.24h-14.03z"/><path class="cls-79" d="M112.57 355.84h14.03v.24h-14.03z"/><path class="cls-80" d="M112.57 355.6h14.03v.24h-14.03z"/><path class="cls-81" d="M112.57 355.37h14.03v.24h-14.03z"/><path class="cls-82" d="M112.57 355.13h14.03v.24h-14.03z"/><path class="cls-83" d="M112.57 354.89h14.03v.24h-14.03z"/><path class="cls-84" d="M112.57 354.66h14.03v.24h-14.03zm0-.24h14.03v.24h-14.03z"/><path class="cls-85" d="M112.57 354.18h14.03v.24h-14.03z"/><path class="cls-85" d="M112.57 353.95h14.03v.24h-14.03z"/><path class="cls-86" d="M112.57 353.71h14.03v.24h-14.03z"/><path class="cls-87" d="M112.57 353.47h14.03v.24h-14.03z"/><path class="cls-87" d="M112.57 353.24h14.03v.24h-14.03z"/><path class="cls-88" d="M112.57 353h14.03v.24h-14.03z"/><path class="cls-89" d="M112.57 352.77h14.03v.24h-14.03z"/><path class="cls-90" d="M112.57 352.53h14.03v.24h-14.03z"/><path class="cls-91" d="M112.57 352.29h14.03v.24h-14.03z"/><path class="cls-91" d="M112.57 352.06h14.03v.24h-14.03z"/><path class="cls-92" d="M112.57 351.82h14.03v.24h-14.03z"/><path class="cls-93" d="M112.57 351.58h14.03v.24h-14.03z"/><path class="cls-93" d="M112.57 351.35h14.03v.24h-14.03z"/><path class="cls-94" d="M112.57 351.11h14.03v.24h-14.03z"/><path class="cls-95" d="M112.57 350.87h14.03v.24h-14.03z"/><path class="cls-95" d="M112.57 350.64h14.03v.24h-14.03z"/><path class="cls-96" d="M112.57 350.4h14.03v.24h-14.03z"/><path class="cls-97" d="M112.57 350.16h14.03v.24h-14.03z"/><path class="cls-98" d="M112.57 349.93h14.03v.24h-14.03z"/><path class="cls-99" d="M112.57 349.69h14.03v.24h-14.03z"/><path class="cls-99" d="M112.57 349.46h14.03v.24h-14.03z"/><path class="cls-100" d="M112.57 349.22h14.03v.24h-14.03z"/><path class="cls-101" d="M112.57 348.98h14.03v.24h-14.03z"/><path class="cls-101" d="M112.57 348.75h14.03v.24h-14.03z"/><path class="cls-102" d="M112.57 348.51h14.03v.24h-14.03zm0-.24h14.03v.24h-14.03z"/><path class="cls-103" d="M112.57 348.04h14.03v.24h-14.03z"/><path class="cls-104" d="M112.57 347.8h14.03v.24h-14.03z"/><path class="cls-105" d="M112.57 347.56h14.03v.24h-14.03z"/><path class="cls-106" d="M112.57 347.33h14.03v.24h-14.03z"/><path class="cls-107" d="M112.57 347.09h14.03v.24h-14.03z"/><path class="cls-108" d="M112.57 346.86h14.03v.24h-14.03zm0-.24h14.03v.24h-14.03z"/><path class="cls-109" d="M112.57 346.38h14.03v.24h-14.03z"/><path class="cls-110" d="M112.57 346.15h14.03v.24h-14.03z"/><path class="cls-111" d="M112.57 345.91h14.03v.24h-14.03z"/><path class="cls-112" d="M112.57 345.67h14.03v.24h-14.03z"/><path class="cls-112" d="M112.57 345.44h14.03v.24h-14.03z"/><path class="cls-113" d="M112.57 345.2h14.03v.24h-14.03z"/><path class="cls-114" d="M112.57 344.96h14.03v.24h-14.03z"/><path class="cls-115" d="M112.57 344.73h14.03v.24h-14.03z"/><path class="cls-116" d="M112.57 344.49h14.03v.24h-14.03zm0-.24h14.03v.24h-14.03z"/><path class="cls-117" d="M112.57 344.02h14.03v.24h-14.03z"/><path class="cls-118" d="M112.57 343.78h14.03v.24h-14.03z"/><path class="cls-119" d="M112.57 343.55h14.03v.24h-14.03z"/><path class="cls-120" d="M112.57 343.31h14.03v.24h-14.03z"/><path class="cls-121" d="M112.57 343.07h14.03v.24h-14.03z"/><path class="cls-122" d="M112.57 342.84h14.03v.24h-14.03z"/><path class="cls-122" d="M112.57 342.6h14.03v.24h-14.03z"/><path class="cls-123" d="M112.57 342.36h14.03v.24h-14.03z"/><path class="cls-124" d="M112.57 342.13h14.03v.24h-14.03z"/><path class="cls-125" d="M112.57 341.89h14.03v.24h-14.03z"/><path class="cls-126" d="M112.57 341.65h14.03v.24h-14.03z"/><path class="cls-126" d="M112.57 341.42h14.03v.24h-14.03z"/><path class="cls-127" d="M112.57 341.18h14.03v.24h-14.03z"/><path class="cls-128" d="M112.57 340.95h14.03v.24h-14.03z"/><path class="cls-129" d="M112.57 340.71h14.03v.24h-14.03z"/><path class="cls-130" d="M112.57 340.47h14.03v.24h-14.03z"/><path class="cls-130" d="M112.57 340.24h14.03v.24h-14.03z"/><path class="cls-131" d="M112.57 340h14.03v.24h-14.03z"/><path class="cls-132" d="M112.57 339.76h14.03v.24h-14.03z"/><path class="cls-133" d="M112.57 339.53h14.03v.24h-14.03z"/><path class="cls-134" d="M112.57 339.29h14.03v.24h-14.03z"/><path class="cls-135" d="M112.57 339.05h14.03v.24h-14.03z"/><path class="cls-136" d="M112.57 338.82h14.03v.24h-14.03zm0-.24h14.03v.24h-14.03z"/><path class="cls-137" d="M112.57 338.34h14.03v.24h-14.03z"/><path class="cls-137" d="M112.57 338.11h14.03v.24h-14.03z"/><path class="cls-138" d="M112.57 337.87h14.03v.24h-14.03z"/><path class="cls-139" d="M112.57 337.64h14.03v.24h-14.03zm0-.24h14.03v.24h-14.03z"/><path class="cls-140" d="M112.57 337.16h14.03v.24h-14.03z"/><path class="cls-141" d="M112.57 336.93h14.03v.24h-14.03z"/><path class="cls-142" d="M112.57 336.69h14.03v.24h-14.03zm0-.24h14.03v.24h-14.03z"/><path class="cls-143" d="M112.57 336.22h14.03v.24h-14.03z"/><path class="cls-144" d="M112.57 335.98h14.03v.24h-14.03z"/><path class="cls-145" d="M112.57 335.74h14.03v.24h-14.03z"/><path class="cls-145" d="M112.57 335.51h14.03v.24h-14.03z"/><path class="cls-146" d="M112.57 335.27h14.03v.24h-14.03z"/><path class="cls-146" d="M112.57 335.04h14.03v.24h-14.03z"/><path class="cls-147" d="M112.57 334.8h14.03v.24h-14.03zm0-.24h14.03v.24h-14.03z"/><path class="cls-147" d="M112.57 334.33h14.03v.24h-14.03zm0-.24h14.03v.24h-14.03z"/><path class="cls-147" d="M112.57 333.85h14.03v.24h-14.03z"/><path class="cls-6" d="M112.57 333.62h14.03v.24h-14.03zm0-.24h14.03v.24h-14.03zm0-.24h14.03v.24h-14.03v-.24zm14.03 0h-14.02 14.02z"/></g><path class="cls-152" d="m551.08 509.52 38.7-23.99v47.97l-38.7 23.99v-47.97z"/><path class="cls-153" d="m512.39 485.53 38.69 23.99v47.97l-38.69-23.99v-47.97zm38.69-23.98 38.7 23.98-38.7 23.99-38.69-23.99 38.69-23.98z"/><path class="cls-3" d="m512.39 485.53 38.69 23.99v47.97l-38.69-23.99v-47.97z"/><path class="cls-154" d="m551.08 461.55 38.7 23.98-38.7 23.99-38.69-23.99 38.69-23.98z"/><path class="cls-152" d="m551.08 473.18 19.94 12.35-19.94 12.36-19.93-12.36 19.93-12.35z"/><g class="cls-8"><path class="cls-153" d="m561.34 518.88 16.37-10.14v20.29l-16.37 10.15v-20.3z"/></g><g class="cls-8"><path class="cls-153" d="m540.83 518.88-16.37-10.14v20.29l16.37 10.15v-20.3z"/></g><path class="cls-152" d="m38.7 467.12 38.69-23.99v47.98L38.7 515.09v-47.97z"/><path class="cls-153" d="m0 443.13 38.7 23.99v47.97L0 491.11v-47.98z"/><path class="cls-153" d="m38.7 419.14 38.69 23.99-38.69 23.99L0 443.13l38.7-23.99z"/><path class="cls-3" d="m0 443.13 38.7 23.99v47.97L0 491.11v-47.98z"/><path class="cls-154" d="m38.7 419.14 38.69 23.99-38.69 23.99L0 443.13l38.7-23.99z"/><path class="cls-152" d="m38.7 430.77 19.93 12.36-19.93 12.36-19.94-12.36 19.94-12.36z"/><g class="cls-8"><path class="cls-153" d="m48.95 476.48 16.37-10.14v20.29l-16.37 10.15v-20.3z"/></g><g class="cls-8"><path class="cls-153" d="m28.44 476.48-16.37-10.14v20.29l16.37 10.15v-20.3z"/></g><path class="cls-152" d="m319.94 647.99 38.7-23.99v47.97l-38.7 23.99v-47.97z"/><path class="cls-153" d="m281.24 624 38.7 23.99v47.97l-38.7-23.99V624z"/><path class="cls-153" d="m319.94 600.01 38.7 23.99-38.7 23.99-38.7-23.99 38.7-23.99z"/><path class="cls-3" d="m281.24 624 38.7 23.99v47.97l-38.7-23.99V624z"/><path class="cls-154" d="m319.94 600.01 38.7 23.99-38.7 23.99-38.7-23.99 38.7-23.99z"/><path class="cls-152" d="M319.94 611.64 339.88 624l-19.94 12.36L300 624l19.94-12.36z"/><g class="cls-8"><path class="cls-153" d="m330.2 657.35 16.37-10.14v20.29l-16.37 10.15v-20.3z"/></g><g class="cls-8"><path class="cls-153" d="m309.69 657.35-16.38-10.14v20.29l16.38 10.15v-20.3z"/></g><path class="cls-155" d="m200.86 539.09 133.38-71.97 66.19 35.71-132.88 72.25-66.69-35.99z"/><path style="mix-blend-mode:screen" d="m200.86 539.09 133.38-71.97 66.19 35.71-132.88 72.25-66.69-35.99z" fill="#fcd8d4" opacity=".4"/><path class="cls-155" d="M267.55 583.59v-8.51l132.88-72.25.35 8.91-133.23 71.85zm-66.69-44.5 66.69 35.99v8.51l-66.69-36.35v-8.15z"/><path class="cls-157" d="m200.86 539.09 66.69 35.99v8.51l-66.69-36.35v-8.15z"/><path class="cls-158" d="m258.49 501.03 94.11-50.78v50.78l-94.11 50.78v-50.78z"/><path class="cls-154" d="m258.49 501.03 94.11-50.78v50.78l-94.11 50.78v-50.78z"/><path class="cls-159" d="m248.69 546.52 9.8 5.29v-50.78l-9.33-5.03-.47 50.52z"/><path class="cls-158" d="m249.16 496 9.33 5.03 94.11-50.78-8.82-4.76L249.16 496z"/><path class="cls-154" d="M114.92 274.24 491.34 71.12V375.8L114.92 578.92V274.24z"/><path d="M133.75 279.7 472.51 96.35v271.92L133.75 551.62V279.7z" fill="#fcedeb"/><path class="cls-158" d="M97.62 264.9 473.29 61.38l18.05 9.74-376.42 203.12-17.3-9.34zm0 304.68 17.3 9.34V274.24l-17.3-9.34v304.68z"/><path class="cls-159" d="M97.62 264.9 473.29 61.38l18.05 9.74-376.42 203.12-17.3-9.34z"/><path class="cls-161" d="m97.62 569.58 17.3 9.34V274.24l-17.3-9.34v304.68z"/><path class="cls-3" d="m220.14 449.06 32.22-17.39v34.77l-32.22 17.39v-34.77zm-5.88 31.6 5.88 3.17v-34.77l-5.88-3.17v34.77z"/><path class="cls-3" d="m214.26 445.89 32.31-17.34 5.79 3.12-32.22 17.39-5.88-3.17z"/><path style="mix-blend-mode:multiply" d="m214.26 480.66 5.88 3.17v-34.77l-5.88-3.17v34.77z" opacity=".3" fill="#e84b27"/><path style="mix-blend-mode:screen" d="m214.26 445.89 32.31-17.34 5.79 3.12-32.22 17.39-5.88-3.17z" opacity=".3" fill="#e84b27"/><path class="cls-154" d="m282.03 415.93 32.22-17.39v34.77l-32.22 17.39v-34.77zm-5.88 31.59 5.88 3.18v-34.77l-5.88-3.18v34.77z"/><path class="cls-154" d="m276.15 412.75 32.31-17.33 5.79 3.12-32.22 17.39-5.88-3.18z"/><path class="cls-164" d="m276.15 447.52 5.88 3.18v-34.77l-5.88-3.18v34.77z"/><path class="cls-165" d="m276.15 412.75 32.31-17.33 5.79 3.12-32.22 17.39-5.88-3.18z"/><path class="cls-154" d="m343.92 382.79 32.22-17.38v34.77l-32.22 17.38v-34.77z"/><path class="cls-154" d="m338.04 414.39 5.88 3.17v-34.77l-5.88-3.17v34.77zm0-34.77 32.31-17.34 5.79 3.13-32.22 17.38-5.88-3.17z"/><path class="cls-164" d="m338.04 414.39 5.88 3.17v-34.77l-5.88-3.17v34.77z"/><path class="cls-165" d="m338.04 379.62 32.31-17.34 5.79 3.13-32.22 17.38-5.88-3.17z"/><path class="cls-155" d="m405.81 349.66 32.22-17.38v34.77l-32.22 17.38v-34.77z"/><path class="cls-155" d="m399.94 381.26 5.87 3.17v-34.77l-5.87-3.17v34.77zm0-34.77 32.3-17.34 5.79 3.13-32.22 17.38-5.87-3.17z"/><path class="cls-157" d="m399.94 381.26 5.87 3.17v-34.77l-5.87-3.17v34.77z"/><path style="mix-blend-mode:screen" d="m399.94 346.49 32.3-17.34 5.79 3.13-32.22 17.38-5.87-3.17z" fill="#fcd8d4" opacity=".3"/><path class="cls-5" d="M201.57 182.57v255.48L438.31 308.9V54.43L201.57 182.57z"/><path class="cls-5" d="M167.95 164.43 404.69 36.29l33.62 18.14-236.74 128.14-33.62-18.14z"/><path class="cls-5" d="m167.95 419.91 33.62 18.14V182.57l-33.62-18.14v255.48z"/><path style="mix-blend-mode:screen" d="M167.95 164.43 404.69 36.29l33.62 18.14-236.74 128.14-33.62-18.14z" opacity=".3" fill="#fef9f8"/><path class="cls-155" d="m167.95 419.91 33.62 18.14V182.57l-33.62-18.14v255.48z"/><path class="cls-154" d="M201.57 146.29v36.28L438.31 54.43V18.14L201.57 146.29z"/><path class="cls-6" d="M167.95 128.14 404.69 0l33.62 18.14-236.74 128.15-33.62-18.15z"/><path class="cls-6" d="m167.95 164.43 33.62 18.14v-36.28l-33.62-18.15v36.29z"/><path class="cls-159" d="M167.95 128.14 404.69 0l33.62 18.14-236.74 128.15-33.62-18.15z"/><path class="cls-161" d="m167.95 164.43 33.62 18.14v-36.28l-33.62-18.15v36.29z"/><path class="cls-152" d="m215.85 150.4 11.19-6.03v12.07l-11.19 6.04V150.4z"/><path class="cls-152" d="m213.8 161.38 2.05 1.1V150.4l-2.05-1.1v12.08z"/><path class="cls-152" d="m213.8 149.3 11.23-6.02 2.01 1.09-11.19 6.03-2.05-1.1z"/><path class="cls-168" d="m213.8 161.38 2.05 1.1V150.4l-2.05-1.1v12.08z"/><path class="cls-169" d="m213.8 149.3 11.23-6.02 2.01 1.09-11.19 6.03-2.05-1.1z"/><path class="cls-152" d="m235.55 140.8 11.2-6.04v12.08l-11.2 6.04V140.8zm-2.04 10.98 2.04 1.1V140.8l-2.04-1.1v12.08zm0-12.08 11.23-6.02 2.01 1.08-11.2 6.04-2.04-1.1z"/><path class="cls-168" d="m233.51 151.78 2.04 1.1V140.8l-2.04-1.1v12.08z"/><path class="cls-169" d="m233.51 139.7 11.23-6.02 2.01 1.08-11.2 6.04-2.04-1.1z"/><path class="cls-152" d="m255.26 131.2 11.19-6.04v12.08l-11.19 6.04V131.2zm-2.04 10.98 2.04 1.1V131.2l-2.04-1.1v12.08z"/><path class="cls-152" d="m253.22 130.1 11.22-6.03 2.01 1.09-11.19 6.04-2.04-1.1z"/><path class="cls-168" d="m253.22 142.18 2.04 1.1V131.2l-2.04-1.1v12.08z"/><path class="cls-169" d="m253.22 130.1 11.22-6.03 2.01 1.09-11.19 6.04-2.04-1.1z"/><path class="cls-3" d="m246.96 201.5 46.33-25.22v17.12l-46.33 24.15V201.5z"/><path class="cls-3" d="m241.15 198.37 46.98-24.87 5.16 2.78-46.33 25.22-5.81-3.13zm5.81 19.18-5.81-3.3v-15.88l5.81 3.13v16.05z"/><g class="cls-170"><path class="cls-171" d="m241.15 198.37 46.98-24.87 5.16 2.78-46.33 25.22-5.81-3.13z"/><path class="cls-3" d="m246.96 217.55-5.81-3.3v-15.88l5.81 3.13v16.05z"/></g><path class="cls-3" d="m302.98 171.45 46.33-25.22v17.12l-46.33 24.15v-16.05z"/><path class="cls-3" d="m297.17 168.31 46.99-24.86 5.15 2.78-46.33 25.22-5.81-3.14z"/><path class="cls-3" d="m302.98 187.5-5.81-3.31v-15.88l5.81 3.14v16.05z"/><g class="cls-170"><path class="cls-171" d="m297.17 168.31 46.99-24.86 5.15 2.78-46.33 25.22-5.81-3.14z"/><path class="cls-3" d="m302.98 187.5-5.81-3.31v-15.88l5.81 3.14v16.05z"/></g><path class="cls-3" d="m359 141.4 46.34-25.22v17.11L359 157.45V141.4zm-5.81-3.14 46.99-24.86 5.16 2.78L359 141.4l-5.81-3.14z"/><path class="cls-3" d="m359 157.45-5.81-3.31v-15.88l5.81 3.14v16.05z"/><g class="cls-170"><path class="cls-171" d="m353.19 138.26 46.99-24.86 5.16 2.78L359 141.4l-5.81-3.14z"/><path class="cls-3" d="m359 157.45-5.81-3.31v-15.88l5.81 3.14v16.05z"/></g><path class="cls-3" d="m246.96 291 46.33-25.22v17.11l-46.33 24.16V291z"/><path class="cls-3" d="M241.15 287.86 288.13 263l5.16 2.78L246.96 291l-5.81-3.14z"/><path class="cls-3" d="m246.96 307.05-5.81-3.31v-15.88l5.81 3.14v16.05z"/><g class="cls-170"><path class="cls-171" d="M241.15 287.86 288.13 263l5.16 2.78L246.96 291l-5.81-3.14z"/><path class="cls-3" d="m246.96 307.05-5.81-3.31v-15.88l5.81 3.14v16.05z"/></g><path class="cls-3" d="m302.98 260.94 46.33-25.21v17.11L302.98 277v-16.06z"/><path class="cls-3" d="m297.17 257.81 46.99-24.87 5.15 2.79-46.33 25.21-5.81-3.13z"/><path class="cls-3" d="m302.98 277-5.81-3.31v-15.88l5.81 3.13V277z"/><g class="cls-170"><path class="cls-171" d="m297.17 257.81 46.99-24.87 5.15 2.79-46.33 25.21-5.81-3.13z"/><path class="cls-3" d="m302.98 277-5.81-3.31v-15.88l5.81 3.13V277z"/></g><path class="cls-3" d="m359 230.89 46.34-25.21v17.11L359 246.94v-16.05z"/><path class="cls-3" d="m353.19 227.76 46.99-24.87 5.16 2.79L359 230.89l-5.81-3.13z"/><path class="cls-3" d="m359 246.94-5.81-3.3v-15.88l5.81 3.13v16.05z"/><g class="cls-170"><path class="cls-171" d="m353.19 227.76 46.99-24.87 5.16 2.79L359 230.89l-5.81-3.13z"/><path class="cls-3" d="m359 246.94-5.81-3.3v-15.88l5.81 3.13v16.05z"/></g><path class="cls-3" d="m246.96 231.69 162.07-87.45v17.11l-162.07 86.4v-16.06zm-5.81-3.13 162.72-87.1 5.16 2.78-162.07 87.45-5.81-3.13z"/><path class="cls-3" d="m246.96 247.75-5.81-3.31v-15.88l5.81 3.13v16.06z"/><g class="cls-170"><path class="cls-171" d="m241.15 228.56 162.72-87.1 5.16 2.78-162.07 87.45-5.81-3.13z"/><path class="cls-3" d="m246.96 247.75-5.81-3.31v-15.88l5.81 3.13v16.06z"/></g><path class="cls-3" d="m246.96 261.48 162.07-87.46v17.12l-162.07 86.39v-16.05zm-5.81-3.14 162.72-87.1 5.16 2.78-162.07 87.46-5.81-3.14z"/><path class="cls-3" d="m246.96 277.53-5.81-3.31v-15.88l5.81 3.14v16.05z"/><g class="cls-170"><path class="cls-171" d="m241.15 258.34 162.72-87.1 5.16 2.78-162.07 87.46-5.81-3.14z"/><path class="cls-3" d="m246.96 277.53-5.81-3.31v-15.88l5.81 3.14v16.05z"/></g><path class="cls-3" d="m246.96 321.05 162.07-87.46v17.12L246.96 337.1v-16.05z"/><path class="cls-3" d="m241.15 317.91 162.72-87.1 5.16 2.78-162.07 87.46-5.81-3.14zm5.81 19.19-5.81-3.31v-15.88l5.81 3.14v16.05z"/><g class="cls-170"><path class="cls-171" d="m241.15 317.91 162.72-87.1 5.16 2.78-162.07 87.46-5.81-3.14z"/><path class="cls-3" d="m246.96 337.1-5.81-3.31v-15.88l5.81 3.14v16.05z"/></g><path class="cls-3" d="m246.96 350.83 162.07-87.45v17.11l-162.07 86.39v-16.05z"/><path class="cls-3" d="m241.15 347.7 162.72-87.1 5.16 2.78-162.07 87.45-5.81-3.13zm5.81 19.18-5.81-3.3V347.7l5.81 3.13v16.05z"/><g class="cls-170"><path class="cls-171" d="m241.15 347.7 162.72-87.1 5.16 2.78-162.07 87.45-5.81-3.13z"/><path class="cls-3" d="m246.96 366.88-5.81-3.3V347.7l5.81 3.13v16.05z"/></g><path class="cls-3" d="m517.76 384.86 10.68-7.09-24.21 16.08-10.68 7.1 24.21-16.09z"/><path class="cls-172" d="m470.38 280.74 10.68-7.1 28.91 8.31-10.68 7.1-28.91-8.31zm105.95 136.87 10.68-7.1-5.31 31.06-10.69 7.1 5.32-31.06z"/><path class="cls-3" d="m548.68 278.37 10.68-7.1c-23.27 15.47-29.14 49.71-13.11 76.46s47.9 35.9 71.18 20.44l-10.69 7.1c-23.27 15.46-55.14 6.31-71.17-20.44s-10.16-61 13.11-76.46Z"/><g class="cls-4" clip-path="url(#clip-path-4)"><path class="cls-3" d="m548.68 278.37 10.68-7.1a46.93 46.93 0 0 0-7.09 5.8l-10.68 7.1a45.86 45.86 0 0 1 7.09-5.8m-7.09 5.8 10.68-7.1a48.56 48.56 0 0 0-7.71 10.05l-10.68 7.09a48.77 48.77 0 0 1 7.71-10m-7.71 10 10.68-7.09c-10 17.31-10.07 41 1.69 60.61 16 26.76 47.9 35.9 71.18 20.44l-10.69 7.1c-23.27 15.46-55.14 6.31-71.17-20.44-11.77-19.63-11.74-43.3-1.69-60.62"/></g><path class="cls-172" d="m525.68 213.57 10.68-7.09 16.68 27.83-10.68 7.09-16.68-27.83zm110.03 183.62 10.68-7.1 16.68 27.83-10.68 7.09-16.68-27.82z"/><path class="cls-3" d="m652.39 425.01 10.68-7.09-22.65 15.04-10.68 7.1 22.65-15.05zM542.35 241.4l10.65-7.1a73.63 73.63 0 0 1 36.72-5.36L579.08 236a73.45 73.45 0 0 0-36.73 5.4Z"/><g class="cls-4" clip-path="url(#clip-path-5)"><path class="cls-3" d="m542.35 241.4 10.65-7.1a73.63 73.63 0 0 1 36.72-5.36L579.08 236a73.45 73.45 0 0 0-36.73 5.36"/></g><path class="cls-3" d="m656.12 364.59 10.68-7.1a81.59 81.59 0 0 1-20.41 32.6l-10.68 7.1a81.7 81.7 0 0 0 20.41-32.6Z"/><g class="cls-4" clip-path="url(#clip-path-6)"><path class="cls-3" d="m656.12 364.59 10.68-7.1a86.44 86.44 0 0 1-7 15.47l-10.69 7.1a86.1 86.1 0 0 0 7-15.47"/><path class="cls-3" d="m649.09 380.06 10.69-7.1a79 79 0 0 1-12.47 16.23l-10.69 7.1a78.53 78.53 0 0 0 12.47-16.23"/><path class="cls-3" d="m636.62 396.29 10.69-7.1-.92.9-10.68 7.1.91-.9"/></g><path class="cls-3" d="m606.14 243.8 10.68-7.1a93.4 93.4 0 0 1 31.53 25l-10.69 7.1a93.27 93.27 0 0 0-31.52-25Z"/><g class="cls-4" clip-path="url(#clip-path-7)"><path class="cls-3" d="m606.14 243.8 10.68-7.1a93.4 93.4 0 0 1 31.53 25l-10.69 7.1a93.27 93.27 0 0 0-31.52-25"/></g><path class="cls-3" d="m653.27 294.82 10.69-7.1a102.14 102.14 0 0 1 7.83 40.71l-10.68 7.1a102 102 0 0 0-7.84-40.71Z"/><g class="cls-4" clip-path="url(#clip-path-8)"><path class="cls-3" d="m653.27 294.82 10.69-7.1a102.14 102.14 0 0 1 7.83 40.71l-10.68 7.1a102 102 0 0 0-7.84-40.71"/></g><path class="cls-3" d="m584.41 204.97 10.68-7.1 27.05 7.77-10.68 7.1-27.05-7.77z"/><path class="cls-172" d="m611.46 212.74 10.68-7.1-5.32 31.06-10.68 7.1 5.32-31.06zm49.65 122.79 10.68-7.1 28.92 8.32-10.69 7.1-28.91-8.32z"/><path class="cls-3" d="m690.02 343.85 10.69-7.1-4.98 29.05-10.69 7.1 4.98-29.05zm-28.15-91.16 10.68-7.1 15.61 26.05-10.68 7.1-15.61-26.05z"/><path class="cls-152" d="m477.94 374.9 24.21-16.08a102.12 102.12 0 0 1-7.84-40.71l-28.93-8.31 5-29.06 28.91 8.31a81.72 81.72 0 0 1 20.42-32.6L503 228.62l22.65-15.05 16.67 27.83a73.45 73.45 0 0 1 36.76-5.4l5.33-31 27.05 7.77-5.32 31.06a93.27 93.27 0 0 1 31.52 25l24.21-16.08 15.61 26.05-24.21 16.08a102 102 0 0 1 7.84 40.71l28.89 8.26-5 29-28.92-8.31a81.7 81.7 0 0 1-20.41 32.6L652.39 425l-22.65 15.05-16.67-27.83a73.62 73.62 0 0 1-36.74 5.38L571 448.67l-27-7.76 5.33-31.07a93.15 93.15 0 0 1-31.52-25L493.55 401Zm70.74-96.53c-23.27 15.46-29.14 49.7-13.11 76.46s47.9 35.9 71.17 20.44 29.14-49.69 13.11-76.44-47.9-35.92-71.17-20.46"/><path class="cls-3" d="m677.48 278.74 10.68-7.1-24.2 16.08-10.69 7.1 24.21-16.08z"/><circle cx="550.5" cy="139.7" r="64.7" fill="url(#linear-gradient)"/><g id="Group-9" mask="url(#mask)"><path id="Fill-7" d="M549 96.27a21.25 21.25 0 0 0-2.5.16 17.18 17.18 0 0 0-10.28 4.92c-2 2-4 4.05-6.07 6.08-1 1-2.08 2.06-3.13 3.09-1.1 1.07-2.21 2.14-3.3 3.22l-3 3c-1.57 1.57-3.16 3.11-4.72 4.68-1.22 1.23-2.41 2.49-3.61 3.73-.7.73-1.46 1.41-2.11 2.18-2.85 3.34-4.2 7.24-4.24 12.43a15.11 15.11 0 0 0 1.9 7 26.62 26.62 0 0 0 2.36 3.7c.58.81 1 .81 1.78.18a5.08 5.08 0 0 0 .41-.39c.76-.79 1.51-1.58 2.27-2.36l3.31-3.38c1.15-1.19 2.27-2.4 3.42-3.59.54-.57 1.13-1.1 1.67-1.67 1.17-1.22 2.32-2.47 3.5-3.68 1.15-1.18 2.34-2.33 3.5-3.5 1.29-1.32 2.55-2.67 3.84-4 1.19-1.2 2.43-2.36 3.62-3.56 1.55-1.58 3.07-3.2 4.62-4.79 1-1 1.94-1.9 2.89-2.86 1.3-1.3 2.58-2.63 3.88-3.93 1.12-1.11 2.28-2.19 3.4-3.3q3.75-3.73 7.49-7.49c.16-.16.31-.33.45-.5.61-.75.66-.93-.09-1.47a23.6 23.6 0 0 0-3.71-2.34 17.53 17.53 0 0 0-7.43-1.62H549Zm19.22 15.57a7.49 7.49 0 0 0-5.86 2.66 5 5 0 0 1-.4.4c-1.35 1.3-2.72 2.6-4.06 3.91l-4.16 4.13c-1.15 1.14-2.31 2.27-3.45 3.41-1.2 1.2-2.36 2.43-3.57 3.61-1.25 1.25-2.55 2.45-3.81 3.68-1.53 1.5-3 3-4.55 4.53l-8.36 8.36-11.17 11.07c-.7.7-.73.79 0 1.53 1.78 1.79 3.58 3.57 5.36 5.35a7.12 7.12 0 0 0 3.91 2.11 9.63 9.63 0 0 0 4.37-.14 6.63 6.63 0 0 0 2.87-1.51l4.4-4.22c1-1 2.09-1.95 3.11-2.95 2-2 4-4 6.09-6 1.67-1.63 3.37-3.23 5-4.85l6.89-6.67 6.49-6.28a1.44 1.44 0 0 1 2.52.27 9.7 9.7 0 0 1 1.64 6.44 9.17 9.17 0 0 1-2.32 5.29c-1.6 1.69-3.29 3.29-5 4.92-1.18 1.16-2.38 2.3-3.56 3.46q-2.28 2.26-4.54 4.54c-.24.24-.46.5-.69.74l-1.5 1.53c-1.12 1.11-2.26 2.21-3.37 3.33-1.19 1.2-2.36 2.42-3.54 3.63-.11.1-.23.19-.34.3l-3.8 3.68c-.59.57-1.17 1.17-1.75 1.75l-3 3c-.59.62-.58 1 .11 1.49a24.88 24.88 0 0 0 3.72 2.33 17.67 17.67 0 0 0 7.54 1.61h.05a24.2 24.2 0 0 0 2.67-.16 16.86 16.86 0 0 0 9.32-4.2c2-1.7 3.71-3.63 5.55-5.47 1.36-1.35 2.71-2.72 4.07-4.07l3.83-3.83c1.17-1.17 2.33-2.34 3.51-3.5 1.31-1.29 2.66-2.54 4-3.84 1.34-1.32 2.67-2.65 4-4a30 30 0 0 0 2.93-3.42 18.75 18.75 0 0 0 3-8.28 18.48 18.48 0 0 0 0-4.42 18.19 18.19 0 0 0-2.8-7.32 21.34 21.34 0 0 0-3.71-4.23c-3.68-3.63-7.34-7.26-10.94-11a8.35 8.35 0 0 0-6.26-2.75h-.39Z" fill="url(#linear-gradient-2)"/></g></g></g></g></svg>