<svg xmlns="http://www.w3.org/2000/svg" viewBox="0 0 359.95 112.43"><defs><style>.cls-2{fill:#5fcade}</style></defs><g id="Слой_2" data-name="Слой 2"><g id="Layer_1" data-name="Layer 1"><path d="M179.51 42.55V58h30.91v15.26h-30.91v24h-19.8v-70h54.91v15.3Zm63.81.45h-21.5V27.25h62.71V43h-21.4v54.26h-19.81Zm93.82 54.26-14.5-21.7-14.31 21.7h-22.6l25.51-35.41-24.41-34.6h22.3l14 20.2 13.8-20.2h21.41l-24.41 33.8 26 36.21Z"/><path d="M36.76 82.55h29.88v29.88H36.76z" fill="#abebf4"/><path class="cls-2" d="M93.15 41.27H36.76v29.88h66.64V41.27H93.15z"/><path d="M36.76 0h92.56v29.87H36.76z" fill="#02a6c2"/><path class="cls-2" d="M0 41.27h29.87v29.88H0z"/></g></g></svg>