<svg xmlns="http://www.w3.org/2000/svg" xmlns:xlink="http://www.w3.org/1999/xlink" viewBox="0 0 102.16 119.09"><defs><linearGradient id="a" x1="49.69" y1="27.88" x2="49.69" y2="55.65" gradientUnits="userSpaceOnUse"><stop offset="0" stop-color="#a3c1db"/><stop offset=".35" stop-color="#a1bed8"/><stop offset=".64" stop-color="#99b5ce"/><stop offset=".9" stop-color="#8da7bd"/><stop offset="1" stop-color="#869fb4"/></linearGradient><linearGradient id="b" x1="48.95" y1="31.43" x2="48.95" y2="55.15" gradientUnits="userSpaceOnUse"><stop offset="0" stop-color="#d5d9e3"/><stop offset="1" stop-color="#fff"/></linearGradient><linearGradient id="c" x1="61.4" y1="0" x2="61.4" y2="28.67" xlink:href="#a"/><linearGradient id="d" x1="61.35" y1="24.3" x2="61.35" y2="4.8" xlink:href="#b"/><linearGradient id="e" x1="51.08" y1="53.44" x2="51.08" y2="119.09" xlink:href="#a"/><linearGradient id="f" x1="50.47" y1="115.55" x2="50.47" y2="52.09" xlink:href="#a"/></defs><g data-name="Слой 2"><g data-name="Layer 1"><path d="M8.3 44.87c5.37-8.29 13.81-13.44 22-13.44 4.25 0 7.69 1.24 11.33 2.53l11.48 2.58 10.48-2.43c3.46-1.31 7-2.68 12.26-2.68 6.25 0 12.52 3.49 17.67 8.71a30.8 30.8 0 0 0-10 13.3c1.1.09 2.16.2 3.25.31A25.46 25.46 0 0 1 98.68 40C92.56 32.32 84 27.88 75.85 27.88 65.11 27.88 60.57 33 53.11 33c-7.68 0-13.51-5.12-22.81-5.12-9.11 0-18.82 5.56-25 15.05A34.35 34.35 0 0 0 .69 55.65l3.69-.5A29.46 29.46 0 0 1 8.3 44.87Z" fill="url(#a)"/><path d="M93.52 40.14c-5.15-5.22-11.42-8.71-17.67-8.71-5.21 0-8.8 1.37-12.26 2.68l-10.48 2.43L41.63 34c-3.63-1.33-7.08-2.57-11.33-2.57-8.19 0-16.63 5.15-22 13.44a29.46 29.46 0 0 0-3.92 10.28 356.2 356.2 0 0 1 47.26-3.06c11.09 0 21.76.48 31.85 1.35a30.8 30.8 0 0 1 10.03-13.3Z" fill="url(#b)"/><path d="M67.7 19.34c3.9-5 6.86-12.08 5.79-19.34-6.38.45-13.83 4.51-18.18 9.81-3.94 4.8-7.22 11.93-6 18.85 7.01.22 14.21-3.95 18.39-9.32Zm-9.65-7.28c2.87-3.49 7.36-5.91 11.72-7.26a26 26 0 0 1-4.88 12.36 20.23 20.23 0 0 1-12 7.14 24.75 24.75 0 0 1 5.16-12.24Z" fill="url(#c)"/><path d="M64.89 17.16A26 26 0 0 0 69.77 4.8c-4.36 1.35-8.85 3.77-11.72 7.26a24.75 24.75 0 0 0-5.12 12.24 20.23 20.23 0 0 0 11.96-7.14Z" fill="url(#d)"/><path d="M12.17 102.77c5 7.64 11.73 16.25 20.49 16.32 7.79.08 10-5 20.56-5s12.58 5.09 20.37 5c8.75-.07 15.82-9.6 20.85-17.24a87 87 0 0 0 7.72-14.46C88 82 82.18 66.44 86.74 53.75c-1.09-.11-2.15-.22-3.25-.31a24.89 24.89 0 0 0-1.86 9c0 .74 0 1.48.09 2.23a29.47 29.47 0 0 0 15.69 24.1l-6 11.12c-4.76 7.26-11.09 15.58-17.9 15.64l-7-1.91a28.46 28.46 0 0 0-13.34-3.11 29.78 29.78 0 0 0-13.33 3.14l-7.18 1.9c-7-.06-13.07-7.91-17.54-14.72C4.55 84.67 2 67.44 4.38 55.15l-3.69.5C-1.63 69.27 1.83 87 12.17 102.77Z" fill="url(#e)"/><path d="M4.38 55.15C2 67.44 4.55 84.67 15.15 100.83c4.47 6.81 10.51 14.66 17.54 14.72l7.18-1.9a29.78 29.78 0 0 1 13.33-3.14 28.46 28.46 0 0 1 13.34 3.11l7 1.91c6.81-.06 13.14-8.38 17.9-15.64l6-11.12A29.47 29.47 0 0 1 81.72 64.7c-.06-.75-.09-1.49-.09-2.23a24.89 24.89 0 0 1 1.86-9c-10.09-.87-20.76-1.35-31.85-1.35a356.2 356.2 0 0 0-47.26 3.03Z" fill="url(#f)"/></g></g></svg>