<svg xmlns="http://www.w3.org/2000/svg" viewBox="0 0 331.84 97.22"><defs><style>.cls-2{fill-rule:evenodd;fill:#68b92e}</style></defs><g id="Слой_2" data-name="Слой 2"><g id="Layer_1" data-name="Layer 1"><path id="_157067296" data-name="157067296" d="M28.05 48.61 56.84 77.4 75 59.23a8.22 8.22 0 0 1 11.63 11.62l-24 24a8.26 8.26 0 0 1-11.62 0L16.44 60.24V80.8A8.22 8.22 0 0 1 0 80.8V16.41a8.22 8.22 0 0 1 16.44 0V37L51 2.38a8.28 8.28 0 0 1 11.62 0l24 24A8.22 8.22 0 0 1 75 38L56.84 19.82 28.05 48.61Zm28.8-8.23a8.23 8.23 0 1 1-8.23 8.23 8.24 8.24 0 0 1 8.23-8.23Z" fill-rule="evenodd" fill="#0093dd"/><path id="_155810984" data-name="155810984" class="cls-2" d="M122.69 19.17a4.22 4.22 0 0 0-4.18 4.19v50.49a4.19 4.19 0 1 0 8.37 0V23.36a4.21 4.21 0 0 0-4.19-4.19Zm32.54 1.22a4.23 4.23 0 0 0-5.92 0l-18.73 18.73a4 4 0 0 0-.59 4.62L148.63 76a4.19 4.19 0 0 0 7.26-4.18L139 42.56l16.25-16.25a4.21 4.21 0 0 0-.02-5.92Z"/><path id="_155810504" data-name="155810504" class="cls-2" d="M166.66 36.19a4.22 4.22 0 0 0-4.19 4.18v22.09A15.59 15.59 0 0 0 178.05 78h13.13a4.23 4.23 0 0 0 4.19-4.18V40.37a4.19 4.19 0 0 0-8.38 0v29.3h-8.93a7.21 7.21 0 0 1-7.22-7.21V40.37a4.2 4.2 0 0 0-4.18-4.18Z"/><path id="_154065184" data-name="154065184" class="cls-2" d="M239.14 23.36a4.21 4.21 0 0 0-4.14-4.19h-15.93a15.59 15.59 0 0 0-15.58 15.59v27.7A15.59 15.59 0 0 0 219.07 78H235a4.19 4.19 0 0 0 0-8.37h-15.93a7.21 7.21 0 0 1-7.21-7.21V34.76a7.21 7.21 0 0 1 7.21-7.21H235a4.21 4.21 0 0 0 4.18-4.19Z"/><path id="_154067296" data-name="154067296" class="cls-2" d="M288 19.17a4.19 4.19 0 1 0 4.18 4.19 4.21 4.21 0 0 0-4.18-4.19Zm0 17a4.21 4.21 0 0 0-4.19 4.18v33.5a4.19 4.19 0 1 0 8.37 0V40.37a4.2 4.2 0 0 0-4.18-4.18Z"/><path id="_157070392" data-name="157070392" class="cls-2" d="M327.65 78a4.22 4.22 0 0 0 4.19-4.19V51.77a15.59 15.59 0 0 0-15.58-15.59h-13.13a4.23 4.23 0 0 0-4.19 4.18v33.49a4.19 4.19 0 0 0 8.38 0V44.56h8.94a7.21 7.21 0 0 1 7.21 7.21v22.08a4.21 4.21 0 0 0 4.18 4.15Z"/><path id="_157071040" data-name="157071040" class="cls-2" d="M245.17 51.77a15.56 15.56 0 0 1 15.49-15.59h1a15.54 15.54 0 0 1 15.42 15.59v10.69A15.53 15.53 0 0 1 261.71 78h-1a15.55 15.55 0 0 1-15.49-15.58V51.77Zm23.58 0a7.2 7.2 0 0 0-7.19-7.21h-.82a7.2 7.2 0 0 0-7.2 7.21v10.69a7.21 7.21 0 0 0 7.2 7.21h.82a7.21 7.21 0 0 0 7.19-7.21Z"/></g></g></svg>