<svg xmlns="http://www.w3.org/2000/svg" viewBox="0 0 238.45 49.3"><defs><linearGradient id="b" y1="23.85" x2="33.11" y2="23.85" gradientUnits="userSpaceOnUse"><stop offset="0" stop-color="#f9bc31"/><stop offset="1" stop-color="#ee3937"/></linearGradient><mask id="a" x="0" y="7.37" width="33.11" height="32.94" maskUnits="userSpaceOnUse"><path d="M16.47 7.37a7.73 7.73 0 0 0-1 .06 6.63 6.63 0 0 0-3.94 1.89c-.78.77-1.55 1.55-2.32 2.32l-1.2 1.19-1.23 1.23-1.15 1.17L3.82 17c-.47.47-.92.95-1.38 1.43-.27.28-.56.54-.81.83A7 7 0 0 0 0 24a5.77 5.77 0 0 0 .72 2.68 10.68 10.68 0 0 0 .91 1.42c.22.31.38.31.68.07l.16-.15c.29-.3.57-.61.87-.9l1.26-1.3c.44-.46.87-.92 1.31-1.37.21-.22.43-.42.64-.64.45-.47.89-1 1.34-1.41.44-.46.9-.89 1.34-1.34.5-.51 1-1 1.47-1.53l1.39-1.36 1.77-1.83c.36-.37.74-.73 1.11-1.1.49-.5 1-1 1.48-1.5l1.3-1.27 2.87-2.87a1.54 1.54 0 0 0 .17-.19c.24-.29.26-.35 0-.56A9.69 9.69 0 0 0 19.35 8a6.87 6.87 0 0 0-2.85-.62Zm7.36 6a2.88 2.88 0 0 0-2.25 1 1.14 1.14 0 0 1-.15.16L19.87 16l-1.59 1.59-1.28 1.3-1.37 1.39-1.46 1.41-1.74 1.73q-1.66 1.58-3.26 3.2L4.9 30.86c-.27.27-.28.3 0 .59l2.06 2H7a2.75 2.75 0 0 0 1.49.81 3.67 3.67 0 0 0 1.68 0 2.66 2.66 0 0 0 1.1-.58l1.68-1.62c.4-.37.8-.74 1.19-1.13l2.33-2.3c.64-.63 1.29-1.24 1.94-1.86L21 24.21l2.48-2.41a.56.56 0 0 1 1 .11 3.77 3.77 0 0 1 .63 2.46 3.57 3.57 0 0 1-.89 2c-.62.64-1.26 1.26-1.9 1.88-.45.45-.91.88-1.37 1.33l-1.74 1.73c-.09.1-.17.2-.26.29l-.57.59-1.3 1.27-1.35 1.39-.13.11-1.48 1.44c-.22.22-.44.45-.67.67-.38.39-.78.77-1.15 1.17-.23.23-.23.38 0 .57a9.62 9.62 0 0 0 1.42.89 6.81 6.81 0 0 0 2.89.62c.34 0 .68 0 1-.06a6.44 6.44 0 0 0 3.57-1.61c.75-.65 1.42-1.39 2.13-2.1L25 35c.48-.49 1-1 1.46-1.46l1.35-1.34c.5-.5 1-1 1.52-1.47.51-.51 1-1 1.51-1.54a11.51 11.51 0 0 0 1.12-1.31 7.14 7.14 0 0 0 1.15-3.17 6.57 6.57 0 0 0 0-1.7A7 7 0 0 0 32 20.2a8.11 8.11 0 0 0-1.42-1.62c-1.41-1.39-2.81-2.78-4.19-4.2A3.21 3.21 0 0 0 24 13.33h-.14Z" fill="#fff"/></mask></defs><g data-name="Слой 2"><g data-name="Layer 1"><g mask="url(#a)"><path d="M16.47 7.37a7.73 7.73 0 0 0-1 .06 6.63 6.63 0 0 0-3.94 1.89c-.78.77-1.55 1.55-2.32 2.32l-1.2 1.19-1.23 1.23-1.15 1.17L3.82 17c-.47.47-.92.95-1.38 1.43-.27.28-.56.54-.81.83A7 7 0 0 0 0 24a5.77 5.77 0 0 0 .72 2.68 10.68 10.68 0 0 0 .91 1.42c.22.31.38.31.68.07l.16-.15c.29-.3.57-.61.87-.9l1.26-1.3c.44-.46.87-.92 1.31-1.37.21-.22.43-.42.64-.64.45-.47.89-1 1.34-1.41.44-.46.9-.89 1.34-1.34.5-.51 1-1 1.47-1.53l1.39-1.36 1.77-1.83c.36-.37.74-.73 1.11-1.1.49-.5 1-1 1.48-1.5l1.3-1.27 2.87-2.87a1.54 1.54 0 0 0 .17-.19c.24-.29.26-.35 0-.56A9.69 9.69 0 0 0 19.35 8a6.87 6.87 0 0 0-2.85-.62Zm7.36 6a2.88 2.88 0 0 0-2.25 1 1.14 1.14 0 0 1-.15.16L19.87 16l-1.59 1.59-1.28 1.3-1.37 1.39-1.46 1.41-1.74 1.73q-1.66 1.58-3.26 3.2L4.9 30.86c-.27.27-.28.3 0 .59l2.06 2H7a2.75 2.75 0 0 0 1.49.81 3.67 3.67 0 0 0 1.68 0 2.66 2.66 0 0 0 1.1-.58l1.68-1.62c.4-.37.8-.74 1.19-1.13l2.33-2.3c.64-.63 1.29-1.24 1.94-1.86L21 24.21l2.48-2.41a.56.56 0 0 1 1 .11 3.77 3.77 0 0 1 .63 2.46 3.57 3.57 0 0 1-.89 2c-.62.64-1.26 1.26-1.9 1.88-.45.45-.91.88-1.37 1.33l-1.74 1.73c-.09.1-.17.2-.26.29l-.57.59-1.3 1.27-1.35 1.39-.13.11-1.48 1.44c-.22.22-.44.45-.67.67-.38.39-.78.77-1.15 1.17-.23.23-.23.38 0 .57a9.62 9.62 0 0 0 1.42.89 6.81 6.81 0 0 0 2.89.62c.34 0 .68 0 1-.06a6.44 6.44 0 0 0 3.57-1.61c.75-.65 1.42-1.39 2.13-2.1L25 35c.48-.49 1-1 1.46-1.46l1.35-1.34c.5-.5 1-1 1.52-1.47.51-.51 1-1 1.51-1.54a11.51 11.51 0 0 0 1.12-1.31 7.14 7.14 0 0 0 1.15-3.17 6.57 6.57 0 0 0 0-1.7A7 7 0 0 0 32 20.2a8.11 8.11 0 0 0-1.42-1.62c-1.41-1.39-2.81-2.78-4.19-4.2A3.21 3.21 0 0 0 24 13.33h-.14Z" fill="url(#b)"/></g><path d="M52 19.87a1.64 1.64 0 0 0 1 1.46 12.57 12.57 0 0 0 2.48.92q1.45.39 2.94.9a5.59 5.59 0 0 1 2.49 1.76 4.74 4.74 0 0 1 1 3.12 4.94 4.94 0 0 1-2 4.18 8.46 8.46 0 0 1-5.16 1.51A9.18 9.18 0 0 1 50 32.58a6.81 6.81 0 0 1-2.85-3.18l3.44-2a3.91 3.91 0 0 0 4.1 2.66c2.1 0 3.14-.69 3.14-2.07a1.64 1.64 0 0 0-1-1.44 11.39 11.39 0 0 0-2.48-.94q-1.46-.39-2.94-.9a5.75 5.75 0 0 1-2.5-1.71 4.55 4.55 0 0 1-1-3 5 5 0 0 1 1.94-4.1 7.46 7.46 0 0 1 4.83-1.55 8.12 8.12 0 0 1 4.08 1 6.94 6.94 0 0 1 2.75 2.83L58.13 20a3.49 3.49 0 0 0-3.47-2.1 3.44 3.44 0 0 0-1.93.5 1.64 1.64 0 0 0-.73 1.47Zm34.73-5.1h4.17l-5.8 18.47h-3.91l-3.85-12.45-3.88 12.45h-3.91l-5.81-18.47H68l3.58 12.74 3.88-12.74h3.81l3.84 12.74Zm10.94-3.51a2.56 2.56 0 0 1-4.37-1.81 2.52 2.52 0 0 1 .7-1.8 2.46 2.46 0 0 1 1.81-.75 2.43 2.43 0 0 1 1.81.75 2.54 2.54 0 0 1 0 3.61Zm-3.77 22h4V14.77h-4Zm19.06-19a8.69 8.69 0 0 1 6.51 2.82 9.6 9.6 0 0 1 2.65 6.92 9.57 9.57 0 0 1-2.69 6.91 8.68 8.68 0 0 1-6.51 2.81 7.5 7.5 0 0 1-6.46-3.1v10h-4V14.77h4v2.66a7.46 7.46 0 0 1 6.46-3.14Zm-4.8 14a5.67 5.67 0 0 0 4.18 1.67 5.6 5.6 0 0 0 4.17-1.69 5.76 5.76 0 0 0 1.62-4.24 5.76 5.76 0 0 0-1.66-4.23 6 6 0 0 0-8.35 0 5.76 5.76 0 0 0-1.66 4.23 5.82 5.82 0 0 0 1.66 4.25Zm20.77-2.55a5 5 0 0 0 2 3.24 6.54 6.54 0 0 0 3.88 1.12 5.41 5.41 0 0 0 4.77-2.29l3.28 1.92a9.13 9.13 0 0 1-8.09 4 9.91 9.91 0 0 1-7.29-2.7 9.45 9.45 0 0 1-2.77-7 9.45 9.45 0 0 1 9.76-9.71 8.63 8.63 0 0 1 6.67 2.84 9.9 9.9 0 0 1 2.6 6.91 12.12 12.12 0 0 1-.15 1.66Zm0-3.25h10.86a5.12 5.12 0 0 0-5.28-4.54 5.59 5.59 0 0 0-3.7 1.22 5.51 5.51 0 0 0-1.88 3.32Z" fill="#ff3800"/><text transform="translate(146.6 33.34)" font-size="39.04" font-family="Avenir-Medium,Avenir" font-weight="500">chain</text></g></g></svg>