<svg xmlns="http://www.w3.org/2000/svg" viewBox="0 0 446.5 91.84"><defs><style>.cls-3{fill:#8b8b8b}</style><mask id="mask" x="0" y="9.6" width="73.49" height="73.12" maskUnits="userSpaceOnUse"><g id="mask-4"><path id="path-3" d="M36.55 9.6a19.32 19.32 0 0 0-2.13.13 14.7 14.7 0 0 0-8.74 4.19c-1.73 1.7-3.43 3.44-5.15 5.16l-2.66 2.63c-.94.92-1.88 1.82-2.81 2.74-.86.85-1.7 1.73-2.56 2.59-1.34 1.33-2.7 2.64-4 4-1 1.05-2 2.12-3.07 3.17-.59.62-1.24 1.2-1.79 1.85C1.19 38.87.05 42.19 0 46.6a12.84 12.84 0 0 0 1.62 5.95 22.51 22.51 0 0 0 2 3.14c.5.7.86.69 1.52.16a2.73 2.73 0 0 0 .34-.34c.65-.67 1.29-1.34 1.94-2 .93-1 1.88-1.91 2.81-2.88 1-1 1.93-2 2.91-3 .46-.49.95-.94 1.42-1.42 1-1 2-2.1 3-3.13l3-3c1.1-1.12 2.17-2.26 3.27-3.38 1-1 2.06-2 3.07-3 1.33-1.34 2.62-2.72 3.94-4.07.8-.82 1.64-1.61 2.45-2.42 1.11-1.11 2.19-2.24 3.3-3.35 1-.94 1.93-1.86 2.88-2.8l6.38-6.37a5.3 5.3 0 0 0 .38-.43c.51-.63.55-.78-.08-1.24A19.63 19.63 0 0 0 43 11a14.86 14.86 0 0 0-6.37-1.4h-.08Zm16.33 13.23a6.37 6.37 0 0 0-5 2.27c-.1.12-.23.22-.34.33-1.15 1.11-2.31 2.21-3.45 3.33-1.18 1.16-2.35 2.34-3.53 3.51-1 1-2 1.92-2.94 2.9-1 1-2 2.06-3 3.07-1.07 1.06-2.17 2.08-3.24 3.13-1.3 1.27-2.58 2.56-3.87 3.84l-7.15 7.11-9.47 9.41c-.6.59-.62.67 0 1.3l4.55 4.55a6.1 6.1 0 0 0 3.33 1.79 8.16 8.16 0 0 0 3.71-.12A5.64 5.64 0 0 0 24.92 68l3.74-3.59c.87-.83 1.77-1.65 2.64-2.5 1.73-1.7 3.44-3.43 5.18-5.12 1.42-1.39 2.86-2.75 4.29-4.12L46.63 47c1.83-1.78 3.67-3.57 5.51-5.34.81-.78 1.56-.7 2.14.23a8.25 8.25 0 0 1 1.4 5.47 7.79 7.79 0 0 1-2 4.49c-1.36 1.44-2.8 2.81-4.22 4.19-1 1-2 2-3 2.94-1.3 1.28-2.58 2.57-3.87 3.86-.2.2-.38.42-.58.63l-1.28 1.3c-1 .94-1.92 1.87-2.86 2.83-1 1-2 2.05-3 3.08l-.29.26L31.35 74l-1.49 1.48c-.85.86-1.73 1.7-2.56 2.58-.5.53-.5.86.09 1.27a21.76 21.76 0 0 0 3.16 2A15.08 15.08 0 0 0 37 82.72a21.75 21.75 0 0 0 2.27-.13A14.36 14.36 0 0 0 47.2 79c1.66-1.45 3.15-3.09 4.71-4.65 1.16-1.15 2.31-2.31 3.46-3.46q1.62-1.64 3.26-3.25l3-3c1.12-1.1 2.27-2.16 3.38-3.26 1.13-1.13 2.26-2.26 3.35-3.42a25 25 0 0 0 2.49-2.91 16 16 0 0 0 2.56-7 16.1 16.1 0 0 0 0-3.76A15.58 15.58 0 0 0 71 38.07a17.92 17.92 0 0 0-3.16-3.59c-3.12-3.08-6.24-6.17-9.29-9.32a7.14 7.14 0 0 0-5.33-2.33h-.33Z" fill="#fff"/></g></mask></defs><g id="Слой_2" data-name="Слой 2"><g id="Layer_1" data-name="Layer 1"><g id="Group-9" mask="url(#mask)"><path id="Fill-7" class="cls-3" d="M36.55 9.6a19.32 19.32 0 0 0-2.13.13 14.7 14.7 0 0 0-8.74 4.19c-1.73 1.7-3.43 3.44-5.15 5.16l-2.66 2.63c-.94.92-1.88 1.82-2.81 2.74-.86.85-1.7 1.73-2.56 2.59-1.34 1.33-2.7 2.64-4 4-1 1.05-2 2.12-3.07 3.17-.59.62-1.24 1.2-1.79 1.85C1.19 38.87.05 42.19 0 46.6a12.84 12.84 0 0 0 1.62 5.95 22.51 22.51 0 0 0 2 3.14c.5.7.86.69 1.52.16a2.73 2.73 0 0 0 .34-.34c.65-.67 1.29-1.34 1.94-2 .93-1 1.88-1.91 2.81-2.88 1-1 1.93-2 2.91-3 .46-.49.95-.94 1.42-1.42 1-1 2-2.1 3-3.13l3-3c1.1-1.12 2.17-2.26 3.27-3.38 1-1 2.06-2 3.07-3 1.33-1.34 2.62-2.72 3.94-4.07.8-.82 1.64-1.61 2.45-2.42 1.11-1.11 2.19-2.24 3.3-3.35 1-.94 1.93-1.86 2.88-2.8l6.38-6.37a5.3 5.3 0 0 0 .38-.43c.51-.63.55-.78-.08-1.24A19.63 19.63 0 0 0 43 11a14.86 14.86 0 0 0-6.37-1.4h-.08Zm16.33 13.23a6.37 6.37 0 0 0-5 2.27c-.1.12-.23.22-.34.33-1.15 1.11-2.31 2.21-3.45 3.33-1.18 1.16-2.35 2.34-3.53 3.51-1 1-2 1.92-2.94 2.9-1 1-2 2.06-3 3.07-1.07 1.06-2.17 2.08-3.24 3.13-1.3 1.27-2.58 2.56-3.87 3.84l-7.15 7.11-9.47 9.41c-.6.59-.62.67 0 1.3l4.55 4.55a6.1 6.1 0 0 0 3.33 1.79 8.16 8.16 0 0 0 3.71-.12A5.64 5.64 0 0 0 24.92 68l3.74-3.59c.87-.83 1.77-1.65 2.64-2.5 1.73-1.7 3.44-3.43 5.18-5.12 1.42-1.39 2.86-2.75 4.29-4.12L46.63 47c1.83-1.78 3.67-3.57 5.51-5.34.81-.78 1.56-.7 2.14.23a8.25 8.25 0 0 1 1.4 5.47 7.79 7.79 0 0 1-2 4.49c-1.36 1.44-2.8 2.81-4.22 4.19-1 1-2 2-3 2.94-1.3 1.28-2.58 2.57-3.87 3.86-.2.2-.38.42-.58.63l-1.28 1.3c-1 .94-1.92 1.87-2.86 2.83-1 1-2 2.05-3 3.08l-.29.26L31.35 74l-1.49 1.48c-.85.86-1.73 1.7-2.56 2.58-.5.53-.5.86.09 1.27a21.76 21.76 0 0 0 3.16 2A15.08 15.08 0 0 0 37 82.72a21.75 21.75 0 0 0 2.27-.13A14.36 14.36 0 0 0 47.2 79c1.66-1.45 3.15-3.09 4.71-4.65 1.16-1.15 2.31-2.31 3.46-3.46q1.62-1.64 3.26-3.25l3-3c1.12-1.1 2.27-2.16 3.38-3.26 1.13-1.13 2.26-2.26 3.35-3.42a25 25 0 0 0 2.49-2.91 16 16 0 0 0 2.56-7 16.1 16.1 0 0 0 0-3.76A15.58 15.58 0 0 0 71 38.07a17.92 17.92 0 0 0-3.16-3.59c-3.12-3.08-6.24-6.17-9.29-9.32a7.14 7.14 0 0 0-5.33-2.33h-.33Z"/></g><path id="Fill-1" class="cls-3" d="M99.1 37a3 3 0 0 0 1.9 2.72 21.76 21.76 0 0 0 4.61 1.72c1.82.49 3.64 1.05 5.48 1.69a10.29 10.29 0 0 1 4.64 3.27 8.89 8.89 0 0 1 1.89 5.82 9.12 9.12 0 0 1-3.83 7.78 15.64 15.64 0 0 1-9.6 2.83 17 17 0 0 1-8.74-2.14 12.48 12.48 0 0 1-5.3-5.92l6.4-3.71q1.8 5 7.64 5t5.81-3.91a3.06 3.06 0 0 0-1.89-2.69 21.18 21.18 0 0 0-4.61-1.75c-1.81-.48-3.64-1.05-5.47-1.69a10.51 10.51 0 0 1-4.65-3.2 8.49 8.49 0 0 1-1.89-5.68 9.31 9.31 0 0 1 3.61-7.64 14 14 0 0 1 9-2.89 15.18 15.18 0 0 1 7.61 1.89 13 13 0 0 1 5.13 5.27l-6.27 3.51q-1.78-3.91-6.47-3.92a6.51 6.51 0 0 0-3.58.93A3 3 0 0 0 99.1 37Zm64.7-9.5h7.85l-10.81 34.42h-7.3l-7.15-23.19-7.23 23.19h-7.3l-10.8-34.41h7.84l6.68 23.74 7.23-23.74h7.09l7.15 23.74Zm20.37-6.5a4.48 4.48 0 0 1-3.3 1.37 4.82 4.82 0 0 1-4.75-4.74 4.61 4.61 0 0 1 1.38-3.34 4.73 4.73 0 0 1 6.74 0 4.69 4.69 0 0 1-.07 6.71Zm-7 41h7.44V27.51h-7.44Zm35.52-35.31a16.15 16.15 0 0 1 12.11 5.27 17.9 17.9 0 0 1 5 12.83 17.89 17.89 0 0 1-5 12.88 16.22 16.22 0 0 1-12.11 5.23q-7.84 0-12-5.78v18.57h-7.43V27.51h7.43v4.95q4.2-5.85 12-5.85Zm-8.95 26a11.27 11.27 0 0 0 15.56 0 10.78 10.78 0 0 0 3.09-7.89 10.77 10.77 0 0 0-3.09-7.88 11.23 11.23 0 0 0-15.56 0 10.78 10.78 0 0 0-3.1 7.88 10.89 10.89 0 0 0 3.1 7.92Zm38.68-4.75a9.45 9.45 0 0 0 3.79 6 12.16 12.16 0 0 0 7.23 2.1q5.91 0 8.88-4.26l6.12 3.57q-5.09 7.52-15.07 7.51-8.4 0-13.56-5.13a17.53 17.53 0 0 1-5.16-13 17.68 17.68 0 0 1 5.09-12.9 17.48 17.48 0 0 1 13.08-5.2 16.1 16.1 0 0 1 12.42 5.3 18.37 18.37 0 0 1 4.85 12.87 23.41 23.41 0 0 1-.27 3.1Zm-.07-6.06h20.24a9.86 9.86 0 0 0-3.48-6.33 10 10 0 0 0-6.36-2.13 10.44 10.44 0 0 0-6.89 2.27 10.29 10.29 0 0 0-3.51 6.19Z"/><text transform="translate(275.39 62.1)" font-size="72.72" font-family="Avenir-Medium,Avenir" font-weight="500" fill="#8b8b8b">chain</text></g></g></svg>