<svg xmlns="http://www.w3.org/2000/svg" xmlns:xlink="http://www.w3.org/1999/xlink" viewBox="0 0 121.94 133.99"><defs><linearGradient id="linear-gradient" x1="85.6" y1="16.62" x2="85.6" y2="116.14" gradientUnits="userSpaceOnUse"><stop offset=".25" stop-color="#90cef1"/><stop offset="1" stop-color="#c7eafb"/></linearGradient><linearGradient id="linear-gradient-2" x1="120.75" y1="93.65" x2="120.75" y2="19.1" xlink:href="#linear-gradient"/><linearGradient id="linear-gradient-3" x1="89.5" y1="39.16" x2="89.5" y2="17.06" gradientUnits="userSpaceOnUse"><stop offset="0" stop-color="#fff"/><stop offset="1" stop-color="#b9e5fb"/></linearGradient><linearGradient id="linear-gradient-4" x1="94.5" y1="16.69" x2="94.5" y2="41.02" xlink:href="#linear-gradient"/><linearGradient id="linear-gradient-5" x1="72.09" y1="115.58" x2="121.94" y2="115.58" xlink:href="#linear-gradient"/><linearGradient id="linear-gradient-6" x1="35.96" y1="16.62" x2="35.96" y2="116.14" gradientUnits="userSpaceOnUse"><stop offset=".25" stop-color="#7da7d9"/><stop offset=".43" stop-color="#7aa4d7"/><stop offset=".57" stop-color="#709ccf"/><stop offset=".7" stop-color="#5f8dc3"/><stop offset=".82" stop-color="#4779b1"/><stop offset=".93" stop-color="#29609b"/><stop offset="1" stop-color="#144e8c"/></linearGradient><linearGradient id="linear-gradient-7" x1="1.18" y1="93.65" x2="1.18" y2="19.1" xlink:href="#linear-gradient-6"/><linearGradient id="linear-gradient-8" x1="0" y1="115.58" x2="71.02" y2="115.58" xlink:href="#linear-gradient-6"/><linearGradient id="linear-gradient-9" x1="34.24" y1="18.97" x2="34.24" y2="40.95" gradientUnits="userSpaceOnUse"><stop offset="0" stop-color="#bbc9e7"/><stop offset="1" stop-color="#fff"/></linearGradient><linearGradient id="linear-gradient-10" x1="34.24" y1="17.52" x2="34.24" y2="41.03" xlink:href="#linear-gradient-6"/><style>.cls-12{fill-rule:evenodd;fill:none;stroke:#231f20;stroke-width:5.88px}</style></defs><g id="Слой_2" data-name="Слой 2"><g id="Layer_1" data-name="Layer 1"><path d="M49.25 74.72h23c-3.56 13.83-2.67 27.64-.14 41.42h49.85V16.62H68.62C58.86 32.87 50 50 49.25 74.72Z" fill="url(#linear-gradient)" fill-rule="evenodd"/><path d="M121.94 116.14V18.87l-2.37.11v97.05l2.37.11z" fill="url(#linear-gradient-2)" fill-rule="evenodd"/><path d="M57.06 37.79a499.29 499.29 0 0 1 64.88 3.6V16.62H68.32Z" fill="url(#linear-gradient-3)" fill-rule="evenodd"/><path d="m121.94 41.39-2.37-.23V18.98H67.06l1.26-2.36h53.62v24.77z" fill="url(#linear-gradient-4)" fill-rule="evenodd"/><path d="M72.09 115.01h49.85v1.13H72.09z" fill="url(#linear-gradient-5)"/><path d="M0 16.62v99.52h71.92a85.13 85.13 0 0 1 0-42.22c-2.4 1.81-19.85-1.38-22.3.45.76-22 9.12-40.15 18.69-57.75Z" fill="url(#linear-gradient-6)" fill-rule="evenodd"/><path d="M2.35 116.14V18.87L0 18.98v97.05l2.35.11z" fill="url(#linear-gradient-7)" fill-rule="evenodd"/><path d="M0 115.01h71.02v1.13H0z" fill="url(#linear-gradient-8)"/><path d="M0 41.58a437.4 437.4 0 0 1 56.77-3.78l11.71-21.18H0Z" fill="url(#linear-gradient-9)" fill-rule="evenodd"/><path d="M0 41.58V16.62h68.48l-1.3 2.36H2.35V41.3L0 41.58z" fill="url(#linear-gradient-10)" fill-rule="evenodd"/><path d="M32.74 35v8.69M85.11 35v8.69" stroke-linecap="square" stroke-width="6.36" fill="none" stroke="#231f20"/><path class="cls-12" d="M19.44 86.58A51.84 51.84 0 0 0 26.75 90c5.19 2 15.7 5.59 34.14 5.76H61C79.47 95.63 90 92 95.18 90a52.16 52.16 0 0 0 7.3-3.46"/><path class="cls-12" d="M79.62 1.89C62.28 22.66 50.52 47 49.35 73.74h22.2C66.05 96.05 69 115 77.77 132.67"/></g></g></svg>