<svg xmlns="http://www.w3.org/2000/svg" viewBox="0 0 167.82 167.82"><defs><linearGradient id="a" y1="83.91" x2="167.82" y2="83.91" gradientUnits="userSpaceOnUse"><stop offset="0" stop-color="#ecf3fa"/><stop offset="1" stop-color="#fbdbe0"/></linearGradient><linearGradient id="c" x1="26.24" y1="83.37" x2="138.38" y2="83.37" gradientUnits="userSpaceOnUse"><stop offset="0" stop-color="#f9bc31"/><stop offset="1" stop-color="#ee3937"/></linearGradient><mask id="b" x="26.24" y="27.59" width="112.14" height="111.57" maskUnits="userSpaceOnUse"><path d="M82 27.59a27.35 27.35 0 0 0-3.24.2 22.23 22.23 0 0 0-13.33 6.39c-2.65 2.59-5.25 5.25-7.87 7.87q-2 2-4.06 4c-1.43 1.4-2.87 2.78-4.29 4.18-1.32 1.3-2.6 2.64-3.91 3.95-2 2-4.11 4-6.13 6.07-1.58 1.59-3.12 3.22-4.67 4.83-.92.94-1.9 1.83-2.75 2.82-3.69 4.34-5.44 9.4-5.5 16.12-.16 2.57.91 5.91 2.46 9.09a36 36 0 0 0 3.07 4.79c.75 1.06 1.3 1 2.32.24.18-.16.35-.34.52-.51 1-1 2-2 2.95-3.06 1.42-1.46 2.87-2.91 4.29-4.39 1.49-1.54 3-3.1 4.43-4.65.71-.73 1.47-1.42 2.17-2.16 1.52-1.58 3-3.2 4.54-4.77 1.49-1.54 3-3 4.53-4.55 1.68-1.71 3.31-3.46 5-5.16 1.54-1.56 3.15-3.05 4.69-4.62 2-2.05 4-4.15 6-6.2 1.23-1.26 2.51-2.47 3.75-3.71 1.68-1.69 3.33-3.42 5-5.1 1.45-1.45 3-2.84 4.4-4.28q4.88-4.85 9.72-9.71c.21-.21.4-.43.59-.66.78-1 .84-1.2-.13-1.9a31 31 0 0 0-4.8-3 22.56 22.56 0 0 0-9.65-2.09H82Zm24.93 20.18a9.72 9.72 0 0 0-7.61 3.46 5 5 0 0 1-.52.51c-1.75 1.69-3.52 3.37-5.26 5.08-1.81 1.77-3.59 3.57-5.39 5.36-1.49 1.47-3 2.93-4.48 4.42-1.55 1.55-3.06 3.14-4.62 4.68-1.63 1.61-3.31 3.17-5 4.78-2 1.94-3.94 3.91-5.91 5.86L57.29 92.77l-14.44 14.35c-.92.91-1 1 0 2 2.3 2.32 4.63 4.62 7 6.94a9.36 9.36 0 0 0 5.07 2.74 12.44 12.44 0 0 0 5.66-.19 8.58 8.58 0 0 0 3.72-2c1.91-1.82 3.8-3.65 5.71-5.46 1.34-1.28 2.71-2.54 4-3.83 2.64-2.6 5.26-5.23 7.9-7.82 2.17-2.11 4.37-4.18 6.55-6.28l8.94-8.65q4.2-4.08 8.41-8.15c1.24-1.18 2.38-1.06 3.27.35a12.55 12.55 0 0 1 2.13 8.35 11.78 11.78 0 0 1-3 6.86c-2.07 2.2-4.27 4.27-6.43 6.39-1.53 1.5-3.09 3-4.62 4.49-2 1.94-3.93 3.91-5.89 5.88-.31.31-.59.65-.89 1-.65.67-1.29 1.34-2 2-1.38 1.42-2.9 2.84-4.38 4.26-1.54 1.55-3.06 3.14-4.59 4.71-.13.14-.29.25-.43.39l-4.94 4.77c-.77.75-1.51 1.52-2.27 2.27-1.31 1.31-2.64 2.59-3.91 3.94-.77.81-.76 1.3.14 1.94a33.2 33.2 0 0 0 4.82 3 23 23 0 0 0 9.78 2.09h.07a33.8 33.8 0 0 0 3.46-.21 21.85 21.85 0 0 0 12.09-5.44c2.53-2.21 4.81-4.72 7.19-7.1 1.77-1.75 3.52-3.52 5.28-5.28l5-5 4.55-4.55c1.71-1.67 3.46-3.29 5.15-5 1.74-1.72 3.46-3.44 5.13-5.22a38.24 38.24 0 0 0 3.8-4.31 24.14 24.14 0 0 0 3.91-10.74 23.51 23.51 0 0 0 0-5.73 23.74 23.74 0 0 0-3.67-9.53c-1.06-1.63-1.6-2.32-4.82-5.49-4.76-4.7-9.52-9.41-14.17-14.21a10.87 10.87 0 0 0-8.13-3.57h-.5Z" fill="#fff"/></mask></defs><g data-name="Слой 2"><g data-name="Layer 1"><circle cx="83.91" cy="83.91" r="83.91" fill="url(#a)"/><g mask="url(#b)"><path d="M82 27.59a27.35 27.35 0 0 0-3.24.2 22.23 22.23 0 0 0-13.33 6.39c-2.65 2.59-5.25 5.25-7.87 7.87q-2 2-4.06 4c-1.43 1.4-2.87 2.78-4.29 4.18-1.32 1.3-2.6 2.64-3.91 3.95-2 2-4.11 4-6.13 6.07-1.58 1.59-3.12 3.22-4.67 4.83-.92.94-1.9 1.83-2.75 2.82-3.69 4.34-5.44 9.4-5.5 16.12-.16 2.57.91 5.91 2.46 9.09a36 36 0 0 0 3.07 4.79c.75 1.06 1.3 1 2.32.24.18-.16.35-.34.52-.51 1-1 2-2 2.95-3.06 1.42-1.46 2.87-2.91 4.29-4.39 1.49-1.54 3-3.1 4.43-4.65.71-.73 1.47-1.42 2.17-2.16 1.52-1.58 3-3.2 4.54-4.77 1.49-1.54 3-3 4.53-4.55 1.68-1.71 3.31-3.46 5-5.16 1.54-1.56 3.15-3.05 4.69-4.62 2-2.05 4-4.15 6-6.2 1.23-1.26 2.51-2.47 3.75-3.71 1.68-1.69 3.33-3.42 5-5.1 1.45-1.45 3-2.84 4.4-4.28q4.88-4.85 9.72-9.71c.21-.21.4-.43.59-.66.78-1 .84-1.2-.13-1.9a31 31 0 0 0-4.8-3 22.56 22.56 0 0 0-9.65-2.09H82Zm24.93 20.18a9.72 9.72 0 0 0-7.61 3.46 5 5 0 0 1-.52.51c-1.75 1.69-3.52 3.37-5.26 5.08-1.81 1.77-3.59 3.57-5.39 5.36-1.49 1.47-3 2.93-4.48 4.42-1.55 1.55-3.06 3.14-4.62 4.68-1.63 1.61-3.31 3.17-5 4.78-2 1.94-3.94 3.91-5.91 5.86L57.29 92.77l-14.44 14.35c-.92.91-1 1 0 2 2.3 2.32 4.63 4.62 7 6.94a9.36 9.36 0 0 0 5.07 2.74 12.44 12.44 0 0 0 5.66-.19 8.58 8.58 0 0 0 3.72-2c1.91-1.82 3.8-3.65 5.71-5.46 1.34-1.28 2.71-2.54 4-3.83 2.64-2.6 5.26-5.23 7.9-7.82 2.17-2.11 4.37-4.18 6.55-6.28l8.94-8.65q4.2-4.08 8.41-8.15c1.24-1.18 2.38-1.06 3.27.35a12.55 12.55 0 0 1 2.13 8.35 11.78 11.78 0 0 1-3 6.86c-2.07 2.2-4.27 4.27-6.43 6.39-1.53 1.5-3.09 3-4.62 4.49-2 1.94-3.93 3.91-5.89 5.88-.31.31-.59.65-.89 1-.65.67-1.29 1.34-2 2-1.38 1.42-2.9 2.84-4.38 4.26-1.54 1.55-3.06 3.14-4.59 4.71-.13.14-.29.25-.43.39l-4.94 4.77c-.77.75-1.51 1.52-2.27 2.27-1.31 1.31-2.64 2.59-3.91 3.94-.77.81-.76 1.3.14 1.94a33.2 33.2 0 0 0 4.82 3 23 23 0 0 0 9.78 2.09h.07a33.8 33.8 0 0 0 3.46-.21 21.85 21.85 0 0 0 12.09-5.44c2.53-2.21 4.81-4.72 7.19-7.1 1.77-1.75 3.52-3.52 5.28-5.28l5-5 4.55-4.55c1.71-1.67 3.46-3.29 5.15-5 1.74-1.72 3.46-3.44 5.13-5.22a38.24 38.24 0 0 0 3.8-4.31 24.14 24.14 0 0 0 3.91-10.74 23.51 23.51 0 0 0 0-5.73 23.74 23.74 0 0 0-3.67-9.53c-1.06-1.63-1.6-2.32-4.82-5.49-4.76-4.7-9.52-9.41-14.17-14.21a10.87 10.87 0 0 0-8.13-3.57h-.5Z" fill="url(#c)"/></g></g></g></svg>