<svg xmlns="http://www.w3.org/2000/svg" viewBox="0 0 541.88 123.54"><g data-name="Слой 2"><path d="M68.39 101.08s.01-.01 0 0Zm-.01.04Zm-.01.03Zm-.01.03Zm0-.01Zm0 0ZM101.73.23 68.39 101.08H49.17a6.79 6.79 0 0 1-6.44-8.92 1.3 1.3 0 0 0 .05-.14c.38-1.16 4.15-12.48 30.59-92H32.25L1.15 94A22.46 22.46 0 0 0 22 123.52h80.12l30.76-93.23-16.57 4.32L149 .23ZM68.39 101.08Zm-25.58-9.02Zm-.03.09v-.07Zm.02-.07ZM246.52.32l-88 .17L169 34.63l-14.17-4.32L124.12 123H165l13.19-38.66h41a45.76 45.76 0 0 0 43.5-31.55L267 39.74C279.34 2.4 253.13.32 246.52.32ZM222 22.11a6.78 6.78 0 0 1 6.41 8.89L221 53.23a13.63 13.63 0 0 1-12.92 9.32H185.2l13.48-40.44Z" fill="#3564af"/><path d="M371.07 39.9h-42.46L341.74.29h-41.63l-40.63 123.05h81.44A47.13 47.13 0 0 0 385.65 91l6.18-18.65c3.07-9.11 4.61-32.45-20.76-32.45ZM351.3 70.53l-7.3 21.9a13.46 13.46 0 0 1-12.74 9.18h-23l13.18-40.27h24.34c3.53-.03 8.08 1.42 5.52 9.19ZM433.15.37h41.39l-10.42 31.51-41.39.1L433.15.37zm-16.16 48.78h41.45l-24.42 74.16h-41.45l24.42-74.16zm89.51 40.72 9.35-28.26h18.79l7.24-21.44L523 40.1 536.45 0l-41.82.35-30.5 93.32A22.77 22.77 0 0 0 486 123.5l38.56-.33 7.18-21.81H514.8a8.75 8.75 0 0 1-8.3-11.49Z" fill="#253d83"/></g></svg>