<svg xmlns="http://www.w3.org/2000/svg" xmlns:xlink="http://www.w3.org/1999/xlink" viewBox="0 0 568.28 491.04"><defs><style>.cls-1{fill:#fff;}.cls-2{isolation:isolate;}.cls-3{fill:#fef9f8;}.cls-4{fill:#f7c0b7;}.cls-5{fill:#f47964;}.cls-6{fill:#fea3fe;}.cls-7{fill:#f4adab;}.cls-8{fill:#fcd8d4;}.cls-9{fill:#e84b27;}.cls-10{fill:#4b80e7;}.cls-11{mix-blend-mode:multiply;opacity:0.3;}.cls-12{fill:url(#linear-gradient);}.cls-13{mask:url(#mask);}.cls-14{fill:url(#linear-gradient-2);}</style><linearGradient id="linear-gradient" x1="194.39" y1="89.18" x2="372.76" y2="89.18" gradientUnits="userSpaceOnUse"><stop offset="0" stop-color="#ecf3fa"/><stop offset="1" stop-color="#fbdbe0"/></linearGradient><mask id="mask" x="222.29" y="29.32" width="119.19" height="118.58" maskUnits="userSpaceOnUse"><g id="mask-4"><path id="path-3" class="cls-1" d="M281.56,29.32a28.77,28.77,0,0,0-3.45.21h0a23.71,23.71,0,0,0-14.17,6.8h0c-2.81,2.76-5.57,5.58-8.36,8.36h0q-2.15,2.14-4.32,4.27h0c-1.51,1.48-3,2.95-4.55,4.44h0c-1.4,1.38-2.76,2.81-4.16,4.19h0c-2.17,2.16-4.36,4.29-6.52,6.46h0c-1.68,1.69-3.31,3.42-5,5.13h0c-1,1-2,1.94-2.92,3h0c-3.93,4.61-5.79,10-5.84,17.14h0c-.18,2.73,1,6.28,2.61,9.65h0a38,38,0,0,0,3.26,5.1h0c.8,1.12,1.39,1.11,2.46.24h0a5.69,5.69,0,0,0,.56-.54h0c1-1.08,2.08-2.17,3.13-3.24h0c1.52-1.56,3-3.1,4.56-4.67h0c1.58-1.63,3.14-3.3,4.72-4.94h0c.75-.78,1.55-1.52,2.3-2.3h0c1.62-1.68,3.19-3.4,4.82-5.07h0c1.59-1.63,3.23-3.21,4.82-4.83h0c1.78-1.82,3.52-3.68,5.3-5.49h0c1.64-1.65,3.35-3.25,5-4.91h0c2.15-2.18,4.24-4.41,6.38-6.59h0c1.31-1.34,2.67-2.62,4-3.94h0c1.79-1.8,3.54-3.63,5.35-5.43h0c1.54-1.53,3.13-3,4.67-4.54h0q5.19-5.16,10.34-10.33h0c.22-.22.42-.45.62-.69h0c.83-1,.9-1.28-.13-2h0a32.28,32.28,0,0,0-5.11-3.23h0a24.1,24.1,0,0,0-10.25-2.23h-.13Zm26.49,21.46A10.28,10.28,0,0,0,300,54.45h0a5.6,5.6,0,0,1-.55.54h0c-1.87,1.8-3.74,3.58-5.59,5.4h0c-1.93,1.88-3.82,3.8-5.74,5.69h0c-1.58,1.57-3.19,3.12-4.76,4.7h0c-1.65,1.65-3.25,3.34-4.91,5h0c-1.74,1.71-3.52,3.37-5.26,5.08h0c-2.11,2.06-4.19,4.15-6.28,6.23h0L255.28,98.6h0l-15.35,15.25h0c-1,1-1,1.1,0,2.12h0c2.45,2.47,4.93,4.91,7.39,7.37h0a10,10,0,0,0,5.39,2.92h0a13.31,13.31,0,0,0,6-.2h0a9.2,9.2,0,0,0,4-2.09h0l6.06-5.81h0c1.42-1.36,2.88-2.69,4.28-4.07h0c2.81-2.75,5.59-5.55,8.41-8.3h0c2.3-2.24,4.64-4.45,6.95-6.68h0l9.5-9.19h0c3-2.89,6-5.78,9-8.66h0c1.31-1.26,2.53-1.13,3.47.37h0a13.39,13.39,0,0,1,2.27,8.87h0a12.65,12.65,0,0,1-3.2,7.29h0c-2.21,2.34-4.54,4.55-6.84,6.8h0c-1.62,1.59-3.28,3.16-4.91,4.76h0c-2.1,2.07-4.18,4.17-6.26,6.25h0c-.33.33-.63.7-.95,1h0c-.69.71-1.37,1.42-2.07,2.11h0c-1.54,1.53-3.11,3-4.64,4.58h0c-1.65,1.66-3.26,3.34-4.88,5h0l-.47.41h0q-2.62,2.53-5.24,5.08h0c-.82.79-1.61,1.6-2.41,2.41h0c-1.39,1.39-2.81,2.75-4.16,4.18h0c-.82.86-.81,1.39.15,2.06h0a34.71,34.71,0,0,0,5.13,3.22h0a24.27,24.27,0,0,0,10.38,2.21h.08a30.65,30.65,0,0,0,3.68-.22h0a23.18,23.18,0,0,0,12.85-5.78h0c2.69-2.35,5.11-5,7.65-7.54h0l5.6-5.62h0l5.29-5.27h0c1.61-1.61,3.21-3.24,4.84-4.83h0c1.81-1.78,3.67-3.5,5.47-5.29h0c1.84-1.82,3.68-3.65,5.45-5.55h0a42.28,42.28,0,0,0,4-4.71h0a25.8,25.8,0,0,0,4.15-11.41h0a24.89,24.89,0,0,0,0-6.1h0a25.26,25.26,0,0,0-3.86-10.09h0c-1.12-1.73-1.7-2.46-5.12-5.83h0c-5.06-5-10.12-10-15.07-15.11h0a11.55,11.55,0,0,0-8.64-3.78h-.53Z"/></g></mask><linearGradient id="linear-gradient-2" x1="222.29" y1="88.61" x2="341.47" y2="88.61" gradientUnits="userSpaceOnUse"><stop offset="0" stop-color="#f9bc31"/><stop offset="1" stop-color="#ee3937"/></linearGradient></defs><g class="cls-2"><g id="Слой_2" data-name="Слой 2"><g id="_Layer_" data-name="&lt;Layer&gt;"><path class="cls-3" d="M226.44,91.38h-15a16.71,16.71,0,1,1,0-33.41h15a16.71,16.71,0,1,1,0,33.41Zm-15-26.45a9.74,9.74,0,0,0,0,19.48h15a9.74,9.74,0,1,0,0-19.48Z"/><path class="cls-3" d="M257,91.38h-15a16.71,16.71,0,1,1,0-33.41h15a16.71,16.71,0,1,1,0,33.41Zm-15-26.45a9.74,9.74,0,1,0,0,19.48h15a9.74,9.74,0,1,0,0-19.48Z"/><path class="cls-3" d="M287.62,91.38h-15a16.71,16.71,0,0,1,0-33.41h15a16.71,16.71,0,1,1,0,33.41Zm-15-26.45a9.74,9.74,0,0,0,0,19.48h15a9.74,9.74,0,1,0,0-19.48Z"/><path class="cls-3" d="M318.21,91.38h-15a16.71,16.71,0,1,1,0-33.41h15a16.71,16.71,0,1,1,0,33.41Zm-15-26.45a9.74,9.74,0,0,0,0,19.48h15a9.74,9.74,0,1,0,0-19.48Z"/><path class="cls-3" d="M348.8,91.38h-15a16.71,16.71,0,1,1,0-33.41h15a16.71,16.71,0,1,1,0,33.41Zm-15-26.45a9.74,9.74,0,0,0,0,19.48h15a9.74,9.74,0,1,0,0-19.48Z"/><path class="cls-3" d="M436.86,127a3.46,3.46,0,0,1-1.82-.51L350.23,74.56a3.49,3.49,0,0,1,3.64-6l84.82,52a3.49,3.49,0,0,1,1.14,4.79A3.45,3.45,0,0,1,436.86,127Z"/><path class="cls-3" d="M128.64,127a3.48,3.48,0,0,1-1.83-6.44l79.61-49.35a3.48,3.48,0,1,1,3.67,5.92L130.47,126.5A3.48,3.48,0,0,1,128.64,127Z"/><path class="cls-3" d="M214,440a2.1,2.1,0,0,1-1.12-.32L93.6,365.7a2.14,2.14,0,0,1-1-1.83V235.63a2.15,2.15,0,1,1,4.3,0V362.68L215.14,436a2.15,2.15,0,0,1-1.14,4Z"/><path class="cls-3" d="M354.27,440a2.14,2.14,0,0,1-1.13-4l118.26-73.3v-127a2.15,2.15,0,1,1,4.3,0V363.87a2.17,2.17,0,0,1-1,1.83L355.4,439.63A2.11,2.11,0,0,1,354.27,440Z"/><path class="cls-3" d="M344.83,277.85a10.53,10.53,0,0,1-2.42-.29,10.3,10.3,0,0,1-3-18.8l7.88-4.84a10.31,10.31,0,0,1,14.17,3.38h0a10.32,10.32,0,0,1-3.38,14.18l-7.88,4.84A10.21,10.21,0,0,1,344.83,277.85Zm7.84-21.15a5.94,5.94,0,0,0-3.13.88l-7.88,4.84a6,6,0,0,0-2.7,3.73,6,6,0,0,0,9,6.51l7.88-4.84a6,6,0,0,0,2-8.27h0A6,6,0,0,0,352.67,256.7Z"/><path class="cls-3" d="M360.9,268a10.38,10.38,0,0,1-2.41-.29,10.3,10.3,0,0,1-3-18.8l7.88-4.84a10.31,10.31,0,0,1,10.79,17.56l-7.88,4.84A10.21,10.21,0,0,1,360.9,268Zm7.84-21.16a6,6,0,0,0-3.13.89l-7.88,4.84a6,6,0,1,0,6.3,10.24l7.87-4.84a6,6,0,0,0,2-8.26,6,6,0,0,0-3.72-2.7A6.18,6.18,0,0,0,368.74,246.81Z"/><path class="cls-3" d="M377,258.09a10.37,10.37,0,0,1-2.41-.28,10.3,10.3,0,0,1-3-18.8l7.88-4.84a10.29,10.29,0,0,1,14.17,3.38h0a10.31,10.31,0,0,1-3.38,14.17l-7.87,4.84A10.28,10.28,0,0,1,377,258.09Zm7.84-21.16a5.86,5.86,0,0,0-3.13.9l-7.88,4.83a6,6,0,0,0-2,8.27,6,6,0,0,0,3.72,2.7,6.05,6.05,0,0,0,4.55-.73l7.87-4.84a6,6,0,0,0,2-8.26h0a6,6,0,0,0-3.72-2.7A6.18,6.18,0,0,0,384.81,236.93Z"/><path class="cls-3" d="M393,248.21a10.3,10.3,0,0,1-5.42-19.08l7.88-4.84a10.31,10.31,0,0,1,10.79,17.56l-7.87,4.83A10.18,10.18,0,0,1,393,248.21Zm7.84-21.15a5.86,5.86,0,0,0-3.13.89l-7.88,4.84a6,6,0,1,0,6.3,10.23l7.87-4.83a6,6,0,0,0,2-8.27h0A6,6,0,0,0,400.88,227.06Z"/><rect class="cls-3" x="299.5" y="280.06" width="41.17" height="4.29" transform="translate(-100.39 209.42) rotate(-31.58)"/><rect class="cls-3" x="404.86" y="215.3" width="41.17" height="4.29" transform="translate(-50.87 255.02) rotate(-31.58)"/><path class="cls-3" d="M224.44,277.85a10.22,10.22,0,0,1-5.38-1.53l-7.88-4.84a10.33,10.33,0,0,1-3.38-14.18A10.32,10.32,0,0,1,222,253.92l7.87,4.84a10.31,10.31,0,0,1-3,18.8A10.45,10.45,0,0,1,224.44,277.85Zm-7.85-21.16a6,6,0,0,0-1.4.17,5.93,5.93,0,0,0-3.73,2.69,6,6,0,0,0,2,8.27l7.88,4.84a6,6,0,0,0,6.29-10.24l-7.87-4.84A6,6,0,0,0,216.59,256.69Z"/><path class="cls-3" d="M208.37,268a10.22,10.22,0,0,1-5.38-1.53l-7.88-4.84a10.31,10.31,0,0,1-3.38-14.17h0A10.31,10.31,0,0,1,205.91,244l7.87,4.84a10.32,10.32,0,0,1,3.38,14.18,10.21,10.21,0,0,1-6.38,4.62A10.45,10.45,0,0,1,208.37,268Zm-7.85-21.16a6.18,6.18,0,0,0-1.41.17,6,6,0,0,0-3.72,2.7h0a6,6,0,0,0,2,8.26l7.88,4.84a6,6,0,0,0,6.29-10.24l-7.87-4.84A6.07,6.07,0,0,0,200.52,246.81Z"/><path class="cls-3" d="M192.29,258.09a10.21,10.21,0,0,1-5.37-1.53L179,251.72a10.31,10.31,0,0,1-3.38-14.17h0a10.3,10.3,0,0,1,14.18-3.38l7.87,4.84a10.3,10.3,0,0,1-5.42,19.08Zm-7.84-21.16a6.18,6.18,0,0,0-1.41.17,6,6,0,0,0-3.72,2.7h0a6,6,0,0,0,2,8.26l7.88,4.84a6,6,0,0,0,4.54.73,6,6,0,0,0,3.72-2.7,6,6,0,0,0-2-8.27l-7.87-4.83A5.89,5.89,0,0,0,184.45,236.93Z"/><path class="cls-3" d="M176.22,248.21a10.15,10.15,0,0,1-5.37-1.53L163,241.85a10.31,10.31,0,0,1,10.79-17.56l7.88,4.84a10.3,10.3,0,0,1-5.42,19.08Zm-7.84-21.15a6,6,0,0,0-5.13,2.86h0a6,6,0,0,0,2,8.27L173.1,243a6,6,0,1,0,6.29-10.23L171.51,228A5.86,5.86,0,0,0,168.38,227.06Z"/><rect class="cls-3" x="247.03" y="261.62" width="4.29" height="41.17" transform="translate(-121.73 346.71) rotate(-58.42)"/><rect class="cls-3" x="141.67" y="196.87" width="4.29" height="41.17" transform="translate(-116.75 226.12) rotate(-58.43)"/><rect class="cls-3" x="186.88" y="138.51" width="35.75" height="4.3"/><rect class="cls-3" x="322.43" y="138.96" width="58.45" height="4.3"/><circle class="cls-3" cx="94.73" cy="363.87" r="12.94" transform="translate(-229.55 173.56) rotate(-45)"/><circle class="cls-3" cx="473.55" cy="363.87" r="12.94" transform="translate(38.52 773.02) rotate(-80.78)"/><polygon class="cls-4" points="284.19 373.6 378.92 314.89 378.92 432.32 284.19 491.04 284.19 373.6"/><polygon class="cls-5" points="309.29 390.54 349.37 365.7 349.37 415.38 309.29 440.22 309.29 390.54"/><polygon class="cls-6" points="189.46 314.89 284.19 373.6 284.19 491.04 189.46 432.32 189.46 314.89"/><polygon class="cls-6" points="284.19 256.17 378.92 314.89 284.19 373.6 189.46 314.89 284.19 256.17"/><polygon class="cls-7" points="189.46 314.89 284.19 373.6 284.19 491.04 189.46 432.32 189.46 314.89"/><polygon class="cls-8" points="284.19 256.17 378.92 314.89 284.19 373.6 189.46 314.89 284.19 256.17"/><polygon class="cls-4" points="283.4 284.64 332.2 314.89 283.4 345.13 234.6 314.89 283.4 284.64"/><polygon class="cls-9" points="259.08 390.54 219.01 365.7 219.01 415.38 259.08 440.22 259.08 390.54"/><polygon class="cls-5" points="94.73 138.73 189.46 80.02 189.46 197.45 94.73 256.17 94.73 138.73"/><polygon class="cls-10" points="0 80.02 94.73 138.73 94.73 256.17 0 197.45 0 80.02"/><polygon class="cls-10" points="94.73 21.3 189.46 80.02 94.73 138.73 0 80.02 94.73 21.3"/><polygon class="cls-9" points="0 80.02 94.73 138.73 94.73 256.17 0 197.45 0 80.02"/><polygon class="cls-4" points="94.73 21.3 189.46 80.02 94.73 138.73 0 80.02 94.73 21.3"/><polygon class="cls-5" points="94.73 49.77 143.53 80.02 94.73 110.27 45.93 80.02 94.73 49.77"/><g class="cls-11"><polygon class="cls-10" points="119.83 161.66 159.91 136.82 159.91 186.5 119.83 211.34 119.83 161.66"/></g><g class="cls-11"><polygon class="cls-10" points="69.62 161.66 29.55 136.82 29.55 186.5 69.62 211.34 69.62 161.66"/></g><polygon class="cls-5" points="473.55 138.73 568.28 80.02 568.28 197.45 473.55 256.17 473.55 138.73"/><polygon class="cls-10" points="378.82 80.02 473.55 138.73 473.55 256.17 378.82 197.45 378.82 80.02"/><polygon class="cls-10" points="473.55 21.3 568.28 80.02 473.55 138.73 378.82 80.02 473.55 21.3"/><polygon class="cls-9" points="378.82 80.02 473.55 138.73 473.55 256.17 378.82 197.45 378.82 80.02"/><polygon class="cls-4" points="473.55 21.3 568.28 80.02 473.55 138.73 378.82 80.02 473.55 21.3"/><polygon class="cls-5" points="473.55 49.77 522.35 80.02 473.55 110.27 424.75 80.02 473.55 49.77"/><g class="cls-11"><polygon class="cls-10" points="498.65 161.66 538.73 136.82 538.73 186.5 498.65 211.34 498.65 161.66"/></g><g class="cls-11"><polygon class="cls-10" points="448.44 161.66 408.37 136.82 408.37 186.5 448.44 211.34 448.44 161.66"/></g><circle class="cls-12" cx="283.58" cy="89.18" r="89.18"/><g id="Group-9"><g class="cls-13"><path id="Fill-7" class="cls-14" d="M281.56,29.32a28.77,28.77,0,0,0-3.45.21h0a23.71,23.71,0,0,0-14.17,6.8h0c-2.81,2.76-5.57,5.58-8.36,8.36h0q-2.15,2.14-4.32,4.27h0c-1.51,1.48-3,2.95-4.55,4.44h0c-1.4,1.38-2.76,2.81-4.16,4.19h0c-2.17,2.16-4.36,4.29-6.52,6.46h0c-1.68,1.69-3.31,3.42-5,5.13h0c-1,1-2,1.94-2.92,3h0c-3.93,4.61-5.79,10-5.84,17.14h0c-.18,2.73,1,6.28,2.61,9.65h0a38,38,0,0,0,3.26,5.1h0c.8,1.12,1.39,1.11,2.46.24h0a5.69,5.69,0,0,0,.56-.54h0c1-1.08,2.08-2.17,3.13-3.24h0c1.52-1.56,3-3.1,4.56-4.67h0c1.58-1.63,3.14-3.3,4.72-4.94h0c.75-.78,1.55-1.52,2.3-2.3h0c1.62-1.68,3.19-3.4,4.82-5.07h0c1.59-1.63,3.23-3.21,4.82-4.83h0c1.78-1.82,3.52-3.68,5.3-5.49h0c1.64-1.65,3.35-3.25,5-4.91h0c2.15-2.18,4.24-4.41,6.38-6.59h0c1.31-1.34,2.67-2.62,4-3.94h0c1.79-1.8,3.54-3.63,5.35-5.43h0c1.54-1.53,3.13-3,4.67-4.54h0q5.19-5.16,10.34-10.33h0c.22-.22.42-.45.62-.69h0c.83-1,.9-1.28-.13-2h0a32.28,32.28,0,0,0-5.11-3.23h0a24.1,24.1,0,0,0-10.25-2.23h-.13Zm26.49,21.46A10.28,10.28,0,0,0,300,54.45h0a5.6,5.6,0,0,1-.55.54h0c-1.87,1.8-3.74,3.58-5.59,5.4h0c-1.93,1.88-3.82,3.8-5.74,5.69h0c-1.58,1.57-3.19,3.12-4.76,4.7h0c-1.65,1.65-3.25,3.34-4.91,5h0c-1.74,1.71-3.52,3.37-5.26,5.08h0c-2.11,2.06-4.19,4.15-6.28,6.23h0L255.28,98.6h0l-15.35,15.25h0c-1,1-1,1.1,0,2.12h0c2.45,2.47,4.93,4.91,7.39,7.37h0a10,10,0,0,0,5.39,2.92h0a13.31,13.31,0,0,0,6-.2h0a9.2,9.2,0,0,0,4-2.09h0l6.06-5.81h0c1.42-1.36,2.88-2.69,4.28-4.07h0c2.81-2.75,5.59-5.55,8.41-8.3h0c2.3-2.24,4.64-4.45,6.95-6.68h0l9.5-9.19h0c3-2.89,6-5.78,9-8.66h0c1.31-1.26,2.53-1.13,3.47.37h0a13.39,13.39,0,0,1,2.27,8.87h0a12.65,12.65,0,0,1-3.2,7.29h0c-2.21,2.34-4.54,4.55-6.84,6.8h0c-1.62,1.59-3.28,3.16-4.91,4.76h0c-2.1,2.07-4.18,4.17-6.26,6.25h0c-.33.33-.63.7-.95,1h0c-.69.71-1.37,1.42-2.07,2.11h0c-1.54,1.53-3.11,3-4.64,4.58h0c-1.65,1.66-3.26,3.34-4.88,5h0l-.47.41h0q-2.62,2.53-5.24,5.08h0c-.82.79-1.61,1.6-2.41,2.41h0c-1.39,1.39-2.81,2.75-4.16,4.18h0c-.82.86-.81,1.39.15,2.06h0a34.71,34.71,0,0,0,5.13,3.22h0a24.27,24.27,0,0,0,10.38,2.21h.08a30.65,30.65,0,0,0,3.68-.22h0a23.18,23.18,0,0,0,12.85-5.78h0c2.69-2.35,5.11-5,7.65-7.54h0l5.6-5.62h0l5.29-5.27h0c1.61-1.61,3.21-3.24,4.84-4.83h0c1.81-1.78,3.67-3.5,5.47-5.29h0c1.84-1.82,3.68-3.65,5.45-5.55h0a42.28,42.28,0,0,0,4-4.71h0a25.8,25.8,0,0,0,4.15-11.41h0a24.89,24.89,0,0,0,0-6.1h0a25.26,25.26,0,0,0-3.86-10.09h0c-1.12-1.73-1.7-2.46-5.12-5.83h0c-5.06-5-10.12-10-15.07-15.11h0a11.55,11.55,0,0,0-8.64-3.78h-.53Z"/></g></g></g></g></g></svg>