<svg xmlns="http://www.w3.org/2000/svg" viewBox="0 0 102.56 123.42"><defs><style>.cls-1{fill:#85c808;}.cls-2{fill:#fff;}</style></defs><g id="Слой_2" data-name="Слой 2"><g id="Layer_1" data-name="Layer 1"><rect class="cls-1" x="17.87" y="38.06" width="66.82" height="60.46" rx="4"/><rect class="cls-1" x="17.81" y="38.06" width="66.94" height="27.55"/><path class="cls-1" d="M102.56,74.89A7.12,7.12,0,0,1,95.44,82h0a7.12,7.12,0,0,1-7.12-7.12v-32a7.12,7.12,0,0,1,7.12-7.12h0a7.12,7.12,0,0,1,7.12,7.12Z"/><path class="cls-1" d="M14.24,74.89A7.12,7.12,0,0,1,7.12,82h0A7.12,7.12,0,0,1,0,74.89v-32a7.12,7.12,0,0,1,7.12-7.12h0a7.12,7.12,0,0,1,7.12,7.12Z"/><path class="cls-1" d="M18.08,34.12s.74-28.34,33.2-28.24C83.43,6,84.47,34.12,84.47,34.12Z"/><circle class="cls-2" cx="36.71" cy="19.65" r="4"/><circle class="cls-2" cx="65.85" cy="19.65" r="4"/><path class="cls-1" d="M35.61,9.69c.12.17.48.12.81-.12h0c.33-.23.5-.55.38-.72L30.6.1c-.12-.17-.48-.12-.81.12h0c-.33.23-.5.55-.38.72Z"/><path class="cls-1" d="M67,9.69c-.12.17-.48.12-.81-.12h0c-.33-.23-.5-.55-.39-.72L72,.1c.12-.17.48-.12.81.12h0c.33.23.5.55.38.72Z"/><path class="cls-1" d="M72.14,116.3A7.12,7.12,0,0,1,65,123.42h0a7.12,7.12,0,0,1-7.12-7.12v-32A7.12,7.12,0,0,1,65,77.19h0a7.12,7.12,0,0,1,7.12,7.12Z"/><path class="cls-1" d="M44.66,116.3a7.12,7.12,0,0,1-7.12,7.12h0a7.12,7.12,0,0,1-7.12-7.12v-32a7.12,7.12,0,0,1,7.12-7.12h0a7.12,7.12,0,0,1,7.12,7.12Z"/></g></g></svg>