<svg xmlns="http://www.w3.org/2000/svg" viewBox="0 0 633.04 126.61"><defs><style>.cls-1{fill:#f3ba2f;}</style></defs><g id="Слой_2" data-name="Слой 2"><g id="Your_design" data-name="Your design"><polygon class="cls-1" points="38.72 53.2 63.31 28.62 87.91 53.22 102.21 38.91 63.31 0 24.41 38.9 38.72 53.2"/><rect class="cls-1" x="4.19" y="53.19" width="20.23" height="20.23" transform="translate(-40.57 28.66) rotate(-45)"/><polygon class="cls-1" points="38.72 73.41 63.31 98 87.91 73.4 102.22 87.69 102.21 87.7 63.31 126.61 24.41 87.72 24.39 87.7 38.72 73.41"/><rect class="cls-1" x="102.19" y="53.19" width="20.23" height="20.23" transform="translate(-11.87 97.96) rotate(-45)"/><polygon class="cls-1" points="77.82 63.3 77.82 63.3 63.31 48.78 52.58 59.51 52.58 59.51 51.34 60.74 48.8 63.28 48.8 63.28 48.78 63.3 48.8 63.33 63.31 77.83 77.82 63.31 77.83 63.3 77.82 63.3"/><path class="cls-1" d="M148.92,30.68H180q11.6,0,17.52,5.94A15.51,15.51,0,0,1,202.15,48v.19a16.35,16.35,0,0,1-.72,5.08,15.58,15.58,0,0,1-1.9,4,15.1,15.1,0,0,1-2.77,3.12,17.53,17.53,0,0,1-3.38,2.3,22.73,22.73,0,0,1,9.17,6q3.33,3.8,3.34,10.5v.19a17.44,17.44,0,0,1-1.77,8.06A15.66,15.66,0,0,1,199,93.22a23.87,23.87,0,0,1-7.95,3.45,42.58,42.58,0,0,1-10.29,1.15H148.92Zm28,27.14a15.39,15.39,0,0,0,7.77-1.68,5.79,5.79,0,0,0,2.88-5.42v-.19a5.91,5.91,0,0,0-2.5-5.13q-2.49-1.77-7.19-1.77H163.3V57.82Zm3.94,27.05a14.23,14.23,0,0,0,7.67-1.77,6.1,6.1,0,0,0,2.78-5.52v-.19a6.31,6.31,0,0,0-2.59-5.32q-2.59-2-8.34-2H163.3V84.87Z"/><path class="cls-1" d="M224.42,30.68h14.77V97.82H224.42Z"/><path class="cls-1" d="M261.57,30.68h13.61L306.65,72V30.68h14.57V97.82H308.66L276.14,55.14V97.82H261.57Z"/><path class="cls-1" d="M365.94,30.2h13.62l28.78,67.62H392.9l-6.14-15.06H358.37l-6.14,15.06H337.17Zm15.54,39.52-8.92-21.78-8.92,21.78Z"/><path class="cls-1" d="M424.28,30.68h13.63L469.36,72V30.68h14.58V97.82H471.38L438.86,55.14V97.82H424.28Z"/><path class="cls-1" d="M537.1,99a34.92,34.92,0,0,1-13.71-2.68A33.79,33.79,0,0,1,512.45,89a33.27,33.27,0,0,1-7.19-11,35.35,35.35,0,0,1-2.59-13.53v-.19a34.89,34.89,0,0,1,9.78-24.51,33.44,33.44,0,0,1,11-7.48,36,36,0,0,1,14.2-2.73,44.49,44.49,0,0,1,8.58.77,35.36,35.36,0,0,1,7,2.11,30.2,30.2,0,0,1,5.85,3.26,39.62,39.62,0,0,1,5,4.22l-9.4,10.84a35.26,35.26,0,0,0-8-5.57,20.44,20.44,0,0,0-9.16-2,18.58,18.58,0,0,0-14,6.14,20.91,20.91,0,0,0-4,6.66,22.65,22.65,0,0,0-1.44,8.11v.19a23,23,0,0,0,1.44,8.15,21.13,21.13,0,0,0,4,6.71,18.46,18.46,0,0,0,14.05,6.24,20.56,20.56,0,0,0,9.74-2.11,37.62,37.62,0,0,0,7.91-5.76l9.4,9.5a48.81,48.81,0,0,1-5.37,5,32.6,32.6,0,0,1-6.09,3.79,31.72,31.72,0,0,1-7.24,2.39A43.28,43.28,0,0,1,537.1,99Z"/><path class="cls-1" d="M582,30.68h50.55V43.82h-36V57.44h31.66V70.58H596.59v14.1H633V97.82H582Z"/></g></g></svg>