<svg xmlns="http://www.w3.org/2000/svg" xmlns:xlink="http://www.w3.org/1999/xlink" viewBox="0 0 700.71 695.96"><defs><style>.cls-1{fill:#fff;}.cls-2{fill:none;}.cls-162,.cls-163,.cls-171,.cls-3{fill:#e84b27;}.cls-4{isolation:isolate;}.cls-167,.cls-5{fill:#fef9f8;}.cls-6{fill:#fea3fe;}.cls-156,.cls-163,.cls-165,.cls-166,.cls-167,.cls-169,.cls-171,.cls-7{mix-blend-mode:screen;}.cls-157,.cls-162,.cls-163,.cls-164,.cls-165,.cls-166,.cls-167,.cls-168,.cls-169,.cls-7,.cls-8{opacity:0.3;}.cls-151,.cls-157,.cls-162,.cls-164,.cls-168,.cls-170,.cls-8,.cls-9{mix-blend-mode:multiply;}.cls-156,.cls-9{opacity:0.4;}.cls-10{clip-path:url(#clip-path);}.cls-11{fill:#5b2a93;}.cls-12{fill:#5d2c95;}.cls-13{fill:#5f2e96;}.cls-14{fill:#613197;}.cls-15{fill:#623398;}.cls-16{fill:#643599;}.cls-17{fill:#66379a;}.cls-18{fill:#683a9c;}.cls-19{fill:#6b3e9e;}.cls-20{fill:#6d419f;}.cls-21{fill:#316dcd;}.cls-22{fill:#336ece;}.cls-23{fill:#3570ce;}.cls-24{fill:#3872cf;}.cls-25{fill:#3a74d0;}.cls-26{fill:#3c75d1;}.cls-27{fill:#3d76d1;}.cls-28{fill:#3e7bde;}.cls-29{fill:#407dde;}.cls-30{fill:#437fe0;}.cls-31{fill:#4682e0;}.cls-32{fill:#4883e1;}.cls-33{fill:#4a84e2;}.cls-34{fill:#030303;}.cls-35{fill:#050505;}.cls-36{fill:#080808;}.cls-37{fill:#0a0a0a;}.cls-38{fill:#0d0d0d;}.cls-39{fill:#0f0f0f;}.cls-40{fill:#121212;}.cls-41{fill:#141414;}.cls-42{fill:#171717;}.cls-43{fill:#1a1a1a;}.cls-44{fill:#1c1c1c;}.cls-45{fill:#1f1f1f;}.cls-46{fill:#212121;}.cls-47{fill:#7c188c;}.cls-48{fill:#7d1a8d;}.cls-49{fill:#7f1d8e;}.cls-50{fill:#801f8f;}.cls-51{fill:#832492;}.cls-52{fill:#842693;}.cls-53{fill:#852894;}.cls-54{fill:#882d96;}.cls-55{fill:#892f98;}.cls-56{fill:#8a3199;}.cls-57{fill:#8c349a;}.cls-58{fill:#8d369b;}.cls-59{fill:#8e389c;}.cls-60{fill:#913d9e;}.cls-61{fill:#923fa0;}.cls-62{fill:#9442a1;}.cls-63{fill:#9646a3;}.cls-64{fill:#141736;}.cls-65{fill:#161938;}.cls-66{fill:#191b3a;}.cls-67{fill:#1d203e;}.cls-68{fill:#202340;}.cls-69{fill:#222542;}.cls-70{fill:#252744;}.cls-71{fill:#272a47;}.cls-72{fill:#292c49;}.cls-73{fill:#2c2e4b;}.cls-74{fill:#2e314d;}.cls-75{fill:#31334f;}.cls-76{fill:#333651;}.cls-77{fill:#353853;}.cls-78{fill:#383a55;}.cls-79{fill:#3d3f59;}.cls-80{fill:#3f415b;}.cls-81{fill:#41445d;}.cls-82{fill:#44465f;}.cls-83{fill:#464961;}.cls-84{fill:#494b63;}.cls-85{fill:#4b4d65;}.cls-86{fill:#4d5067;}.cls-87{fill:#52546b;}.cls-88{fill:#55576d;}.cls-89{fill:#575970;}.cls-90{fill:#595b72;}.cls-91{fill:#5c5e74;}.cls-92{fill:#5e6076;}.cls-93{fill:#616378;}.cls-94{fill:#63657a;}.cls-95{fill:#65677c;}.cls-96{fill:#686a7e;}.cls-97{fill:#6a6c80;}.cls-98{fill:#6f7184;}.cls-99{fill:#717386;}.cls-100{fill:#747688;}.cls-101{fill:#76788a;}.cls-102{fill:#581086;}.cls-103{fill:#5b1588;}.cls-104{fill:#5f1a8b;}.cls-105{fill:#621e8d;}.cls-106{fill:#64218e;}.cls-107{fill:#672691;}.cls-108{fill:#6a2a93;}.cls-109{fill:#6e2f96;}.cls-110{fill:#713498;}.cls-111{fill:#74399b;}.cls-112{fill:#763b9c;}.cls-113{fill:#79409e;}.cls-114{fill:#7d45a1;}.cls-115{fill:#8049a3;}.cls-116{fill:#834ea5;}.cls-117{fill:#8551a7;}.cls-118{fill:#8855a9;}.cls-119{fill:#8c5aac;}.cls-120{fill:#8d5cad;}.cls-121{fill:#9161af;}.cls-122{fill:#9264b0;}.cls-123{fill:#9668b3;}.cls-124{fill:#996db5;}.cls-125{fill:#9c72b8;}.cls-126{fill:#a077ba;}.cls-127{fill:#a37cbc;}.cls-128{fill:#a57ebe;}.cls-129{fill:#a680bf;}.cls-130{fill:#aa85c1;}.cls-131{fill:#ad8ac4;}.cls-132{fill:#af8cc5;}.cls-133{fill:#b291c7;}.cls-134{fill:#b696ca;}.cls-135{fill:#b99bcc;}.cls-136{fill:#bc9fcf;}.cls-137{fill:#c0a4d1;}.cls-138{fill:#c3a9d3;}.cls-139{fill:#c6aed6;}.cls-140{fill:#cab3d8;}.cls-141{fill:#cdb7db;}.cls-142{fill:#d0bcdd;}.cls-143{fill:#d4c1e0;}.cls-144{fill:#d7c6e2;}.cls-145{fill:#dacae4;}.cls-146{fill:#eec5fc;}.cls-147{fill:#dfa4fd;}.cls-148{clip-path:url(#clip-path-2);}.cls-149{fill:#fefefe;}.cls-150{fill:#fefeff;}.cls-151{opacity:0.5;}.cls-152,.cls-168,.cls-169{fill:#f47964;}.cls-153{fill:#4b80e7;}.cls-154,.cls-164,.cls-165{fill:#f7c0b7;}.cls-155,.cls-156,.cls-157,.cls-166{fill:#fcd8d4;}.cls-158{fill:#ed6eab;}.cls-159{fill:#f9ccc7;}.cls-160{fill:#fcedeb;}.cls-161{fill:#f4adab;}.cls-172{fill:#c13d27;}.cls-173{clip-path:url(#clip-path-4);}.cls-174{clip-path:url(#clip-path-5);}.cls-175{clip-path:url(#clip-path-6);}.cls-176{clip-path:url(#clip-path-7);}.cls-177{clip-path:url(#clip-path-8);}.cls-178{fill:url(#linear-gradient);}.cls-179{mask:url(#mask);}.cls-180{fill:url(#linear-gradient-2);}</style><clipPath id="clip-path"><polygon class="cls-2" points="126.6 385.86 140.63 377.17 140.63 333.14 126.6 341.84 126.6 385.86"/></clipPath><clipPath id="clip-path-2"><polygon class="cls-2" points="112.57 377.17 126.6 385.86 126.6 341.84 112.57 333.14 112.57 377.17"/></clipPath><clipPath id="clip-path-4"><path class="cls-3" d="M548.68,278.37l10.68-7.1c-23.27,15.47-29.14,49.71-13.11,76.46s47.9,35.9,71.18,20.44l-10.69,7.1c-23.27,15.46-55.14,6.31-71.17-20.44S525.41,293.83,548.68,278.37Z"/></clipPath><clipPath id="clip-path-5"><path class="cls-3" d="M542.35,241.4,553,234.3a73.63,73.63,0,0,1,36.72-5.36L579.08,236A73.45,73.45,0,0,0,542.35,241.4Z"/></clipPath><clipPath id="clip-path-6"><path class="cls-3" d="M656.12,364.59l10.68-7.1a81.59,81.59,0,0,1-20.41,32.6l-10.68,7.1A81.7,81.7,0,0,0,656.12,364.59Z"/></clipPath><clipPath id="clip-path-7"><path class="cls-3" d="M606.14,243.8l10.68-7.1a93.4,93.4,0,0,1,31.53,25l-10.69,7.1A93.27,93.27,0,0,0,606.14,243.8Z"/></clipPath><clipPath id="clip-path-8"><path class="cls-3" d="M653.27,294.82l10.69-7.1a102.14,102.14,0,0,1,7.83,40.71l-10.68,7.1A102,102,0,0,0,653.27,294.82Z"/></clipPath><linearGradient id="linear-gradient" x1="485.8" y1="139.7" x2="615.19" y2="139.7" gradientUnits="userSpaceOnUse"><stop offset="0" stop-color="#ecf3fa"/><stop offset="1" stop-color="#fbdbe0"/></linearGradient><mask id="mask" x="506.03" y="96.27" width="86.46" height="86.03" maskUnits="userSpaceOnUse"><g id="mask-4"><path id="path-3" class="cls-1" d="M549,96.27a21.25,21.25,0,0,0-2.5.16h0a17.18,17.18,0,0,0-10.28,4.92h0c-2,2-4,4.05-6.07,6.08h0c-1,1-2.08,2.06-3.13,3.09h0c-1.1,1.07-2.21,2.14-3.3,3.22h0c-1,1-2,2-3,3h0c-1.57,1.57-3.16,3.11-4.72,4.68h0c-1.22,1.23-2.41,2.49-3.61,3.73h0c-.7.73-1.46,1.41-2.11,2.18h0c-2.85,3.34-4.2,7.24-4.24,12.43h0a15.11,15.11,0,0,0,1.9,7h0a26.62,26.62,0,0,0,2.36,3.7h0c.58.81,1,.81,1.78.18h0a5.08,5.08,0,0,0,.41-.39h0c.76-.79,1.51-1.58,2.27-2.36h0l3.31-3.38h0c1.15-1.19,2.27-2.4,3.42-3.59h0c.54-.57,1.13-1.1,1.67-1.67h0c1.17-1.22,2.32-2.47,3.5-3.68h0c1.15-1.18,2.34-2.33,3.5-3.5h0c1.29-1.32,2.55-2.67,3.84-4h0c1.19-1.2,2.43-2.36,3.62-3.56h0c1.55-1.58,3.07-3.2,4.62-4.79h0c1-1,1.94-1.9,2.89-2.86h0c1.3-1.3,2.58-2.63,3.88-3.93h0c1.12-1.11,2.28-2.19,3.4-3.3h0q3.75-3.73,7.49-7.49h0c.16-.16.31-.33.45-.5h0c.61-.75.66-.93-.09-1.47h0a23.6,23.6,0,0,0-3.71-2.34h0a17.53,17.53,0,0,0-7.43-1.62H549Zm19.22,15.57a7.49,7.49,0,0,0-5.86,2.66h0a5,5,0,0,1-.4.4h0c-1.35,1.3-2.72,2.6-4.06,3.91h0l-4.16,4.13h0c-1.15,1.14-2.31,2.27-3.45,3.41h0c-1.2,1.2-2.36,2.43-3.57,3.61h0c-1.25,1.25-2.55,2.45-3.81,3.68h0c-1.53,1.5-3,3-4.55,4.53h0L530,146.53h0L518.83,157.6h0c-.7.7-.73.79,0,1.53h0c1.78,1.79,3.58,3.57,5.36,5.35h0a7.12,7.12,0,0,0,3.91,2.11h0a9.63,9.63,0,0,0,4.37-.14h0a6.63,6.63,0,0,0,2.87-1.51h0l4.4-4.22h0c1-1,2.09-1.95,3.11-2.95h0c2-2,4-4,6.09-6h0c1.67-1.63,3.37-3.23,5-4.85h0l6.89-6.67h0l6.49-6.28h0a1.44,1.44,0,0,1,2.52.27h0a9.7,9.7,0,0,1,1.64,6.44h0a9.17,9.17,0,0,1-2.32,5.29h0c-1.6,1.69-3.29,3.29-5,4.92h0c-1.18,1.16-2.38,2.3-3.56,3.46h0q-2.28,2.26-4.54,4.54h0c-.24.24-.46.5-.69.74h0l-1.5,1.53h0c-1.12,1.11-2.26,2.21-3.37,3.33h0c-1.19,1.2-2.36,2.42-3.54,3.63h0c-.11.1-.23.19-.34.3h0l-3.8,3.68h0c-.59.57-1.17,1.17-1.75,1.75h0c-1,1-2,2-3,3h0c-.59.62-.58,1,.11,1.49h0a24.88,24.88,0,0,0,3.72,2.33h0a17.67,17.67,0,0,0,7.54,1.61h.05a24.2,24.2,0,0,0,2.67-.16h0a16.86,16.86,0,0,0,9.32-4.2h0c2-1.7,3.71-3.63,5.55-5.47h0c1.36-1.35,2.71-2.72,4.07-4.07h0l3.83-3.83h0c1.17-1.17,2.33-2.34,3.51-3.5h0c1.31-1.29,2.66-2.54,4-3.84h0c1.34-1.32,2.67-2.65,4-4h0a30,30,0,0,0,2.93-3.42h0a18.75,18.75,0,0,0,3-8.28h0a18.48,18.48,0,0,0,0-4.42h0a18.19,18.19,0,0,0-2.8-7.32h0a21.34,21.34,0,0,0-3.71-4.23h0c-3.68-3.63-7.34-7.26-10.94-11h0a8.35,8.35,0,0,0-6.26-2.75h-.39Z"/></g></mask><linearGradient id="linear-gradient-2" x1="506.03" y1="139.29" x2="592.5" y2="139.29" gradientUnits="userSpaceOnUse"><stop offset="0" stop-color="#f9bc31"/><stop offset="1" stop-color="#ee3937"/></linearGradient></defs><g class="cls-4"><g id="Слой_2" data-name="Слой 2"><g id="_Layer_" data-name="&lt;Layer&gt;"><path class="cls-5" d="M322.11,677l-1.49-1-292.15-190,222.87-140,1.46.91L550.5,531.5ZM38.7,486.14,322.14,670.48l218-138.92-288.79-179Z"/><polygon class="cls-6" points="106.92 377.94 126.6 365.75 146.28 377.94 126.6 390.14 106.92 377.94"/><g class="cls-7"><polygon class="cls-6" points="106.92 377.94 126.6 365.75 146.28 377.94 126.6 390.14 106.92 377.94"/></g><polygon class="cls-6" points="126.6 487.71 146.28 475.51 146.28 377.94 126.6 390.14 126.6 487.71"/><polygon class="cls-6" points="106.92 475.51 126.6 487.71 126.6 390.14 106.92 377.94 106.92 475.51"/><g class="cls-8"><polygon class="cls-6" points="106.92 475.51 126.6 487.71 126.6 390.14 106.92 377.94 106.92 475.51"/></g><g class="cls-9"><g class="cls-10"><path class="cls-11" d="M126.6,385.86h0Z"/><rect class="cls-11" x="126.6" y="385.63" width="14.03" height="0.24"/><rect class="cls-11" x="126.6" y="385.39" width="14.03" height="0.24"/><rect class="cls-11" x="126.6" y="385.15" width="14.03" height="0.24"/><rect class="cls-11" x="126.6" y="384.92" width="14.03" height="0.24"/><rect class="cls-12" x="126.6" y="384.68" width="14.03" height="0.24"/><rect class="cls-12" x="126.6" y="384.44" width="14.03" height="0.24"/><rect class="cls-13" x="126.6" y="384.21" width="14.03" height="0.24"/><rect class="cls-13" x="126.6" y="383.97" width="14.03" height="0.24"/><rect class="cls-13" x="126.6" y="383.73" width="14.03" height="0.24"/><rect class="cls-14" x="126.6" y="383.5" width="14.03" height="0.24"/><rect class="cls-14" x="126.6" y="383.26" width="14.03" height="0.24"/><rect class="cls-15" x="126.6" y="383.03" width="14.03" height="0.24"/><rect class="cls-15" x="126.6" y="382.79" width="14.03" height="0.24"/><rect class="cls-16" x="126.6" y="382.55" width="14.03" height="0.24"/><rect class="cls-16" x="126.6" y="382.32" width="14.03" height="0.24"/><rect class="cls-17" x="126.6" y="382.08" width="14.03" height="0.24"/><rect class="cls-17" x="126.6" y="381.84" width="14.03" height="0.24"/><rect class="cls-17" x="126.6" y="381.61" width="14.03" height="0.24"/><rect class="cls-18" x="126.6" y="381.37" width="14.03" height="0.24"/><rect class="cls-18" x="126.6" y="381.13" width="14.03" height="0.24"/><rect class="cls-19" x="126.6" y="380.9" width="14.03" height="0.24"/><rect class="cls-19" x="126.6" y="380.66" width="14.03" height="0.24"/><rect class="cls-20" x="126.6" y="380.42" width="14.03" height="0.24"/><rect class="cls-20" x="126.6" y="380.19" width="14.03" height="0.24"/><rect class="cls-20" x="126.6" y="379.95" width="14.03" height="0.24"/><rect class="cls-21" x="126.6" y="379.72" width="14.03" height="0.24"/><rect class="cls-21" x="126.6" y="379.48" width="14.03" height="0.24"/><rect class="cls-22" x="126.6" y="379.24" width="14.03" height="0.24"/><rect class="cls-22" x="126.6" y="379.01" width="14.03" height="0.24"/><rect class="cls-23" x="126.6" y="378.77" width="14.03" height="0.24"/><rect class="cls-23" x="126.6" y="378.53" width="14.03" height="0.24"/><rect class="cls-24" x="126.6" y="378.3" width="14.03" height="0.24"/><rect class="cls-24" x="126.6" y="378.06" width="14.03" height="0.24"/><rect class="cls-24" x="126.6" y="377.82" width="14.03" height="0.24"/><rect class="cls-25" x="126.6" y="377.59" width="14.03" height="0.24"/><rect class="cls-25" x="126.6" y="377.35" width="14.03" height="0.24"/><rect class="cls-26" x="126.6" y="377.12" width="14.03" height="0.24"/><rect class="cls-26" x="126.6" y="376.88" width="14.03" height="0.24"/><rect class="cls-27" x="126.6" y="376.64" width="14.03" height="0.24"/><rect class="cls-27" x="126.6" y="376.41" width="14.03" height="0.24"/><rect class="cls-27" x="126.6" y="376.17" width="14.03" height="0.24"/><rect class="cls-28" x="126.6" y="375.93" width="14.03" height="0.24"/><rect class="cls-28" x="126.6" y="375.7" width="14.03" height="0.24"/><rect class="cls-29" x="126.6" y="375.46" width="14.03" height="0.24"/><rect class="cls-29" x="126.6" y="375.22" width="14.03" height="0.24"/><rect class="cls-30" x="126.6" y="374.99" width="14.03" height="0.24"/><rect class="cls-30" x="126.6" y="374.75" width="14.03" height="0.24"/><rect class="cls-31" x="126.6" y="374.51" width="14.03" height="0.24"/><rect class="cls-31" x="126.6" y="374.28" width="14.03" height="0.24"/><rect class="cls-31" x="126.6" y="374.04" width="14.03" height="0.24"/><rect class="cls-32" x="126.6" y="373.81" width="14.03" height="0.24"/><rect class="cls-32" x="126.6" y="373.57" width="14.03" height="0.24"/><rect class="cls-33" x="126.6" y="373.33" width="14.03" height="0.24"/><rect class="cls-33" x="126.6" y="373.1" width="14.03" height="0.24"/><rect x="126.6" y="372.86" width="14.03" height="0.24"/><rect class="cls-34" x="126.6" y="372.62" width="14.03" height="0.24"/><rect class="cls-34" x="126.6" y="372.39" width="14.03" height="0.24"/><rect class="cls-35" x="126.6" y="372.15" width="14.03" height="0.24"/><rect class="cls-35" x="126.6" y="371.91" width="14.03" height="0.24"/><rect class="cls-36" x="126.6" y="371.68" width="14.03" height="0.24"/><rect class="cls-37" x="126.6" y="371.44" width="14.03" height="0.24"/><rect class="cls-37" x="126.6" y="371.21" width="14.03" height="0.24"/><rect class="cls-38" x="126.6" y="370.97" width="14.03" height="0.24"/><rect class="cls-38" x="126.6" y="370.73" width="14.03" height="0.24"/><rect class="cls-39" x="126.6" y="370.5" width="14.03" height="0.24"/><rect class="cls-39" x="126.6" y="370.26" width="14.03" height="0.24"/><rect class="cls-40" x="126.6" y="370.02" width="14.03" height="0.24"/><rect class="cls-41" x="126.6" y="369.79" width="14.03" height="0.24"/><rect class="cls-41" x="126.6" y="369.55" width="14.03" height="0.24"/><rect class="cls-42" x="126.6" y="369.31" width="14.03" height="0.24"/><rect class="cls-42" x="126.6" y="369.08" width="14.03" height="0.24"/><rect class="cls-43" x="126.6" y="368.84" width="14.03" height="0.24"/><rect class="cls-43" x="126.6" y="368.6" width="14.03" height="0.24"/><rect class="cls-44" x="126.6" y="368.37" width="14.03" height="0.24"/><rect class="cls-44" x="126.6" y="368.13" width="14.03" height="0.24"/><rect class="cls-45" x="126.6" y="367.9" width="14.03" height="0.24"/><rect class="cls-46" x="126.6" y="367.66" width="14.03" height="0.24"/><rect class="cls-46" x="126.6" y="367.42" width="14.03" height="0.24"/><rect class="cls-47" x="126.6" y="367.19" width="14.03" height="0.24"/><rect class="cls-47" x="126.6" y="366.95" width="14.03" height="0.24"/><rect class="cls-48" x="126.6" y="366.71" width="14.03" height="0.24"/><rect class="cls-49" x="126.6" y="366.48" width="14.03" height="0.24"/><rect class="cls-49" x="126.6" y="366.24" width="14.03" height="0.24"/><rect class="cls-50" x="126.6" y="366" width="14.03" height="0.24"/><rect class="cls-50" x="126.6" y="365.77" width="14.03" height="0.24"/><rect class="cls-51" x="126.6" y="365.53" width="14.03" height="0.24"/><rect class="cls-51" x="126.6" y="365.29" width="14.03" height="0.24"/><rect class="cls-52" x="126.6" y="365.06" width="14.03" height="0.24"/><rect class="cls-52" x="126.6" y="364.82" width="14.03" height="0.24"/><rect class="cls-53" x="126.6" y="364.59" width="14.03" height="0.24"/><rect class="cls-54" x="126.6" y="364.35" width="14.03" height="0.24"/><rect class="cls-54" x="126.6" y="364.11" width="14.03" height="0.24"/><rect class="cls-55" x="126.6" y="363.88" width="14.03" height="0.24"/><rect class="cls-55" x="126.6" y="363.64" width="14.03" height="0.24"/><rect class="cls-56" x="126.6" y="363.4" width="14.03" height="0.24"/><rect class="cls-57" x="126.6" y="363.17" width="14.03" height="0.24"/><rect class="cls-57" x="126.6" y="362.93" width="14.03" height="0.24"/><rect class="cls-58" x="126.6" y="362.69" width="14.03" height="0.24"/><rect class="cls-58" x="126.6" y="362.46" width="14.03" height="0.24"/><rect class="cls-59" x="126.6" y="362.22" width="14.03" height="0.24"/><rect class="cls-59" x="126.6" y="361.99" width="14.03" height="0.24"/><rect class="cls-60" x="126.6" y="361.75" width="14.03" height="0.24"/><rect class="cls-61" x="126.6" y="361.51" width="14.03" height="0.24"/><rect class="cls-61" x="126.6" y="361.28" width="14.03" height="0.24"/><rect class="cls-62" x="126.6" y="361.04" width="14.03" height="0.24"/><rect class="cls-62" x="126.6" y="360.8" width="14.03" height="0.24"/><rect class="cls-63" x="126.6" y="360.57" width="14.03" height="0.24"/><rect class="cls-64" x="126.6" y="360.33" width="14.03" height="0.24"/><rect class="cls-65" x="126.6" y="360.09" width="14.03" height="0.24"/><rect class="cls-66" x="126.6" y="359.86" width="14.03" height="0.24"/><rect class="cls-66" x="126.6" y="359.62" width="14.03" height="0.24"/><rect class="cls-67" x="126.6" y="359.38" width="14.03" height="0.24"/><rect class="cls-68" x="126.6" y="359.15" width="14.03" height="0.24"/><rect class="cls-69" x="126.6" y="358.91" width="14.03" height="0.24"/><rect class="cls-70" x="126.6" y="358.68" width="14.03" height="0.24"/><rect class="cls-70" x="126.6" y="358.44" width="14.03" height="0.24"/><rect class="cls-71" x="126.6" y="358.2" width="14.03" height="0.24"/><rect class="cls-72" x="126.6" y="357.97" width="14.03" height="0.24"/><rect class="cls-73" x="126.6" y="357.73" width="14.03" height="0.24"/><rect class="cls-74" x="126.6" y="357.49" width="14.03" height="0.24"/><rect class="cls-74" x="126.6" y="357.26" width="14.03" height="0.24"/><rect class="cls-75" x="126.6" y="357.02" width="14.03" height="0.24"/><rect class="cls-76" x="126.6" y="356.78" width="14.03" height="0.24"/><rect class="cls-77" x="126.6" y="356.55" width="14.03" height="0.24"/><rect class="cls-78" x="126.6" y="356.31" width="14.03" height="0.24"/><rect class="cls-78" x="126.6" y="356.08" width="14.03" height="0.24"/><rect class="cls-79" x="126.6" y="355.84" width="14.03" height="0.24"/><rect class="cls-80" x="126.6" y="355.6" width="14.03" height="0.24"/><rect class="cls-81" x="126.6" y="355.37" width="14.03" height="0.24"/><rect class="cls-82" x="126.6" y="355.13" width="14.03" height="0.24"/><rect class="cls-83" x="126.6" y="354.89" width="14.03" height="0.24"/><rect class="cls-84" x="126.6" y="354.66" width="14.03" height="0.24"/><rect class="cls-84" x="126.6" y="354.42" width="14.03" height="0.24"/><rect class="cls-85" x="126.6" y="354.18" width="14.03" height="0.24"/><rect class="cls-85" x="126.6" y="353.95" width="14.03" height="0.24"/><rect class="cls-86" x="126.6" y="353.71" width="14.03" height="0.24"/><rect class="cls-87" x="126.6" y="353.47" width="14.03" height="0.24"/><rect class="cls-87" x="126.6" y="353.24" width="14.03" height="0.24"/><rect class="cls-88" x="126.6" y="353" width="14.03" height="0.24"/><rect class="cls-89" x="126.6" y="352.77" width="14.03" height="0.24"/><rect class="cls-90" x="126.6" y="352.53" width="14.03" height="0.24"/><rect class="cls-91" x="126.6" y="352.29" width="14.03" height="0.24"/><rect class="cls-91" x="126.6" y="352.06" width="14.03" height="0.24"/><rect class="cls-92" x="126.6" y="351.82" width="14.03" height="0.24"/><rect class="cls-93" x="126.6" y="351.58" width="14.03" height="0.24"/><rect class="cls-93" x="126.6" y="351.35" width="14.03" height="0.24"/><rect class="cls-94" x="126.6" y="351.11" width="14.03" height="0.24"/><rect class="cls-95" x="126.6" y="350.87" width="14.03" height="0.24"/><rect class="cls-95" x="126.6" y="350.64" width="14.03" height="0.24"/><rect class="cls-96" x="126.6" y="350.4" width="14.03" height="0.24"/><rect class="cls-97" x="126.6" y="350.16" width="14.03" height="0.24"/><rect class="cls-98" x="126.6" y="349.93" width="14.03" height="0.24"/><rect class="cls-99" x="126.6" y="349.69" width="14.03" height="0.24"/><rect class="cls-99" x="126.6" y="349.46" width="14.03" height="0.24"/><rect class="cls-100" x="126.6" y="349.22" width="14.03" height="0.24"/><rect class="cls-101" x="126.6" y="348.98" width="14.03" height="0.24"/><rect class="cls-101" x="126.6" y="348.75" width="14.03" height="0.24"/><rect class="cls-102" x="126.6" y="348.51" width="14.03" height="0.24"/><rect class="cls-102" x="126.6" y="348.27" width="14.03" height="0.24"/><rect class="cls-103" x="126.6" y="348.04" width="14.03" height="0.24"/><rect class="cls-104" x="126.6" y="347.8" width="14.03" height="0.24"/><rect class="cls-105" x="126.6" y="347.56" width="14.03" height="0.24"/><rect class="cls-106" x="126.6" y="347.33" width="14.03" height="0.24"/><rect class="cls-107" x="126.6" y="347.09" width="14.03" height="0.24"/><rect class="cls-108" x="126.6" y="346.86" width="14.03" height="0.24"/><rect class="cls-108" x="126.6" y="346.62" width="14.03" height="0.24"/><rect class="cls-109" x="126.6" y="346.38" width="14.03" height="0.24"/><rect class="cls-110" x="126.6" y="346.15" width="14.03" height="0.24"/><rect class="cls-111" x="126.6" y="345.91" width="14.03" height="0.24"/><rect class="cls-112" x="126.6" y="345.67" width="14.03" height="0.24"/><rect class="cls-112" x="126.6" y="345.44" width="14.03" height="0.24"/><rect class="cls-113" x="126.6" y="345.2" width="14.03" height="0.24"/><rect class="cls-114" x="126.6" y="344.96" width="14.03" height="0.24"/><rect class="cls-115" x="126.6" y="344.73" width="14.03" height="0.24"/><rect class="cls-116" x="126.6" y="344.49" width="14.03" height="0.24"/><rect class="cls-116" x="126.6" y="344.25" width="14.03" height="0.24"/><rect class="cls-117" x="126.6" y="344.02" width="14.03" height="0.24"/><rect class="cls-118" x="126.6" y="343.78" width="14.03" height="0.24"/><rect class="cls-119" x="126.6" y="343.55" width="14.03" height="0.24"/><rect class="cls-120" x="126.6" y="343.31" width="14.03" height="0.24"/><rect class="cls-121" x="126.6" y="343.07" width="14.03" height="0.24"/><rect class="cls-122" x="126.6" y="342.84" width="14.03" height="0.24"/><rect class="cls-122" x="126.6" y="342.6" width="14.03" height="0.24"/><rect class="cls-123" x="126.6" y="342.36" width="14.03" height="0.24"/><rect class="cls-124" x="126.6" y="342.13" width="14.03" height="0.24"/><rect class="cls-125" x="126.6" y="341.89" width="14.03" height="0.24"/><rect class="cls-126" x="126.6" y="341.65" width="14.03" height="0.24"/><rect class="cls-126" x="126.6" y="341.42" width="14.03" height="0.24"/><rect class="cls-127" x="126.6" y="341.18" width="14.03" height="0.24"/><rect class="cls-128" x="126.6" y="340.95" width="14.03" height="0.24"/><rect class="cls-129" x="126.6" y="340.71" width="14.03" height="0.24"/><rect class="cls-130" x="126.6" y="340.47" width="14.03" height="0.24"/><rect class="cls-130" x="126.6" y="340.24" width="14.03" height="0.24"/><rect class="cls-131" x="126.6" y="340" width="14.03" height="0.24"/><rect class="cls-132" x="126.6" y="339.76" width="14.03" height="0.24"/><rect class="cls-133" x="126.6" y="339.53" width="14.03" height="0.24"/><rect class="cls-134" x="126.6" y="339.29" width="14.03" height="0.24"/><rect class="cls-135" x="126.6" y="339.05" width="14.03" height="0.24"/><rect class="cls-136" x="126.6" y="338.82" width="14.03" height="0.24"/><rect class="cls-136" x="126.6" y="338.58" width="14.03" height="0.24"/><rect class="cls-137" x="126.6" y="338.34" width="14.03" height="0.24"/><rect class="cls-137" x="126.6" y="338.11" width="14.03" height="0.24"/><rect class="cls-138" x="126.6" y="337.87" width="14.03" height="0.24"/><rect class="cls-139" x="126.6" y="337.64" width="14.03" height="0.24"/><rect class="cls-139" x="126.6" y="337.4" width="14.03" height="0.24"/><rect class="cls-140" x="126.6" y="337.16" width="14.03" height="0.24"/><rect class="cls-141" x="126.6" y="336.93" width="14.03" height="0.24"/><rect class="cls-142" x="126.6" y="336.69" width="14.03" height="0.24"/><rect class="cls-142" x="126.6" y="336.45" width="14.03" height="0.24"/><rect class="cls-143" x="126.6" y="336.22" width="14.03" height="0.24"/><rect class="cls-144" x="126.6" y="335.98" width="14.03" height="0.24"/><rect class="cls-145" x="126.6" y="335.74" width="14.03" height="0.24"/><rect class="cls-145" x="126.6" y="335.51" width="14.03" height="0.24"/><rect class="cls-146" x="126.6" y="335.27" width="14.03" height="0.24"/><rect class="cls-146" x="126.6" y="335.04" width="14.03" height="0.24"/><rect class="cls-147" x="126.6" y="334.8" width="14.03" height="0.24"/><rect class="cls-147" x="126.6" y="334.56" width="14.03" height="0.24"/><rect class="cls-147" x="126.6" y="334.33" width="14.03" height="0.24"/><rect class="cls-147" x="126.6" y="334.09" width="14.03" height="0.24"/><rect class="cls-147" x="126.6" y="333.85" width="14.03" height="0.24"/><rect class="cls-6" x="126.6" y="333.62" width="14.03" height="0.24"/><rect class="cls-6" x="126.6" y="333.38" width="14.03" height="0.24"/><rect class="cls-6" x="126.6" y="333.14" width="14.03" height="0.24"/></g></g><g class="cls-9"><g class="cls-148"><polygon class="cls-1" points="112.57 385.86 126.6 385.86 112.57 385.86 112.57 385.86"/><rect class="cls-1" x="112.57" y="375.32" width="14.03" height="10.54"/><rect class="cls-149" x="112.57" y="364.77" width="14.03" height="10.54"/><rect class="cls-150" x="112.57" y="354.23" width="14.03" height="10.54"/><rect class="cls-6" x="112.57" y="343.69" width="14.03" height="10.54"/><polygon class="cls-6" points="112.57 333.14 112.58 333.14 126.6 333.14 126.6 343.69 112.57 343.69 112.57 333.14"/><polygon class="cls-6" points="126.6 333.14 112.58 333.14 126.6 333.14 126.6 333.14"/></g></g><g class="cls-151"><g class="cls-148"><polygon class="cls-11" points="112.57 385.86 126.6 385.86 112.57 385.86 112.57 385.86"/><rect class="cls-11" x="112.57" y="385.63" width="14.03" height="0.24"/><rect class="cls-11" x="112.57" y="385.39" width="14.03" height="0.24"/><rect class="cls-11" x="112.57" y="385.15" width="14.03" height="0.24"/><rect class="cls-11" x="112.57" y="384.92" width="14.03" height="0.24"/><rect class="cls-12" x="112.57" y="384.68" width="14.03" height="0.24"/><rect class="cls-12" x="112.57" y="384.44" width="14.03" height="0.24"/><rect class="cls-13" x="112.57" y="384.21" width="14.03" height="0.24"/><rect class="cls-13" x="112.57" y="383.97" width="14.03" height="0.24"/><rect class="cls-13" x="112.57" y="383.73" width="14.03" height="0.24"/><rect class="cls-14" x="112.57" y="383.5" width="14.03" height="0.24"/><rect class="cls-14" x="112.57" y="383.26" width="14.03" height="0.24"/><rect class="cls-15" x="112.57" y="383.03" width="14.03" height="0.24"/><rect class="cls-15" x="112.57" y="382.79" width="14.03" height="0.24"/><rect class="cls-16" x="112.57" y="382.55" width="14.03" height="0.24"/><rect class="cls-16" x="112.57" y="382.32" width="14.03" height="0.24"/><rect class="cls-17" x="112.57" y="382.08" width="14.03" height="0.24"/><rect class="cls-17" x="112.57" y="381.84" width="14.03" height="0.24"/><rect class="cls-17" x="112.57" y="381.61" width="14.03" height="0.24"/><rect class="cls-18" x="112.57" y="381.37" width="14.03" height="0.24"/><rect class="cls-18" x="112.57" y="381.13" width="14.03" height="0.24"/><rect class="cls-19" x="112.57" y="380.9" width="14.03" height="0.24"/><rect class="cls-19" x="112.57" y="380.66" width="14.03" height="0.24"/><rect class="cls-20" x="112.57" y="380.42" width="14.03" height="0.24"/><rect class="cls-20" x="112.57" y="380.19" width="14.03" height="0.24"/><rect class="cls-20" x="112.57" y="379.95" width="14.03" height="0.24"/><rect class="cls-21" x="112.57" y="379.72" width="14.03" height="0.24"/><rect class="cls-21" x="112.57" y="379.48" width="14.03" height="0.24"/><rect class="cls-22" x="112.57" y="379.24" width="14.03" height="0.24"/><rect class="cls-22" x="112.57" y="379.01" width="14.03" height="0.24"/><rect class="cls-23" x="112.57" y="378.77" width="14.03" height="0.24"/><rect class="cls-23" x="112.57" y="378.53" width="14.03" height="0.24"/><rect class="cls-24" x="112.57" y="378.3" width="14.03" height="0.24"/><rect class="cls-24" x="112.57" y="378.06" width="14.03" height="0.24"/><rect class="cls-24" x="112.57" y="377.82" width="14.03" height="0.24"/><rect class="cls-25" x="112.57" y="377.59" width="14.03" height="0.24"/><rect class="cls-25" x="112.57" y="377.35" width="14.03" height="0.24"/><rect class="cls-26" x="112.57" y="377.12" width="14.03" height="0.24"/><rect class="cls-26" x="112.57" y="376.88" width="14.03" height="0.24"/><rect class="cls-27" x="112.57" y="376.64" width="14.03" height="0.24"/><rect class="cls-27" x="112.57" y="376.41" width="14.03" height="0.24"/><rect class="cls-27" x="112.57" y="376.17" width="14.03" height="0.24"/><rect class="cls-28" x="112.57" y="375.93" width="14.03" height="0.24"/><rect class="cls-28" x="112.57" y="375.7" width="14.03" height="0.24"/><rect class="cls-29" x="112.57" y="375.46" width="14.03" height="0.24"/><rect class="cls-29" x="112.57" y="375.22" width="14.03" height="0.24"/><rect class="cls-30" x="112.57" y="374.99" width="14.03" height="0.24"/><rect class="cls-30" x="112.57" y="374.75" width="14.03" height="0.24"/><rect class="cls-31" x="112.57" y="374.51" width="14.03" height="0.24"/><rect class="cls-31" x="112.57" y="374.28" width="14.03" height="0.24"/><rect class="cls-31" x="112.57" y="374.04" width="14.03" height="0.24"/><rect class="cls-32" x="112.57" y="373.81" width="14.03" height="0.24"/><rect class="cls-32" x="112.57" y="373.57" width="14.03" height="0.24"/><rect class="cls-33" x="112.57" y="373.33" width="14.03" height="0.24"/><rect class="cls-33" x="112.57" y="373.1" width="14.03" height="0.24"/><rect x="112.57" y="372.86" width="14.03" height="0.24"/><rect class="cls-34" x="112.57" y="372.62" width="14.03" height="0.24"/><rect class="cls-34" x="112.57" y="372.39" width="14.03" height="0.24"/><rect class="cls-35" x="112.57" y="372.15" width="14.03" height="0.24"/><rect class="cls-35" x="112.57" y="371.91" width="14.03" height="0.24"/><rect class="cls-36" x="112.57" y="371.68" width="14.03" height="0.24"/><rect class="cls-37" x="112.57" y="371.44" width="14.03" height="0.24"/><rect class="cls-37" x="112.57" y="371.21" width="14.03" height="0.24"/><rect class="cls-38" x="112.57" y="370.97" width="14.03" height="0.24"/><rect class="cls-38" x="112.57" y="370.73" width="14.03" height="0.24"/><rect class="cls-39" x="112.57" y="370.5" width="14.03" height="0.24"/><rect class="cls-39" x="112.57" y="370.26" width="14.03" height="0.24"/><rect class="cls-40" x="112.57" y="370.02" width="14.03" height="0.24"/><rect class="cls-41" x="112.57" y="369.79" width="14.03" height="0.24"/><rect class="cls-41" x="112.57" y="369.55" width="14.03" height="0.24"/><rect class="cls-42" x="112.57" y="369.31" width="14.03" height="0.24"/><rect class="cls-42" x="112.57" y="369.08" width="14.03" height="0.24"/><rect class="cls-43" x="112.57" y="368.84" width="14.03" height="0.24"/><rect class="cls-43" x="112.57" y="368.6" width="14.03" height="0.24"/><rect class="cls-44" x="112.57" y="368.37" width="14.03" height="0.24"/><rect class="cls-44" x="112.57" y="368.13" width="14.03" height="0.24"/><rect class="cls-45" x="112.57" y="367.9" width="14.03" height="0.24"/><rect class="cls-46" x="112.57" y="367.66" width="14.03" height="0.24"/><rect class="cls-46" x="112.57" y="367.42" width="14.03" height="0.24"/><rect class="cls-47" x="112.57" y="367.19" width="14.03" height="0.24"/><rect class="cls-47" x="112.57" y="366.95" width="14.03" height="0.24"/><rect class="cls-48" x="112.57" y="366.71" width="14.03" height="0.24"/><rect class="cls-49" x="112.57" y="366.48" width="14.03" height="0.24"/><rect class="cls-49" x="112.57" y="366.24" width="14.03" height="0.24"/><rect class="cls-50" x="112.57" y="366" width="14.03" height="0.24"/><rect class="cls-50" x="112.57" y="365.77" width="14.03" height="0.24"/><rect class="cls-51" x="112.57" y="365.53" width="14.03" height="0.24"/><rect class="cls-51" x="112.57" y="365.29" width="14.03" height="0.24"/><rect class="cls-52" x="112.57" y="365.06" width="14.03" height="0.24"/><rect class="cls-52" x="112.57" y="364.82" width="14.03" height="0.24"/><rect class="cls-53" x="112.57" y="364.59" width="14.03" height="0.24"/><rect class="cls-54" x="112.57" y="364.35" width="14.03" height="0.24"/><rect class="cls-54" x="112.57" y="364.11" width="14.03" height="0.24"/><rect class="cls-55" x="112.57" y="363.88" width="14.03" height="0.24"/><rect class="cls-55" x="112.57" y="363.64" width="14.03" height="0.24"/><rect class="cls-56" x="112.57" y="363.4" width="14.03" height="0.24"/><rect class="cls-57" x="112.57" y="363.17" width="14.03" height="0.24"/><rect class="cls-57" x="112.57" y="362.93" width="14.03" height="0.24"/><rect class="cls-58" x="112.57" y="362.69" width="14.03" height="0.24"/><rect class="cls-58" x="112.57" y="362.46" width="14.03" height="0.24"/><rect class="cls-59" x="112.57" y="362.22" width="14.03" height="0.24"/><rect class="cls-59" x="112.57" y="361.99" width="14.03" height="0.24"/><rect class="cls-60" x="112.57" y="361.75" width="14.03" height="0.24"/><rect class="cls-61" x="112.57" y="361.51" width="14.03" height="0.24"/><rect class="cls-61" x="112.57" y="361.28" width="14.03" height="0.24"/><rect class="cls-62" x="112.57" y="361.04" width="14.03" height="0.24"/><rect class="cls-62" x="112.57" y="360.8" width="14.03" height="0.24"/><rect class="cls-63" x="112.57" y="360.57" width="14.03" height="0.24"/><rect class="cls-64" x="112.57" y="360.33" width="14.03" height="0.24"/><rect class="cls-65" x="112.57" y="360.09" width="14.03" height="0.24"/><rect class="cls-66" x="112.57" y="359.86" width="14.03" height="0.24"/><rect class="cls-66" x="112.57" y="359.62" width="14.03" height="0.24"/><rect class="cls-67" x="112.57" y="359.38" width="14.03" height="0.24"/><rect class="cls-68" x="112.57" y="359.15" width="14.03" height="0.24"/><rect class="cls-69" x="112.57" y="358.91" width="14.03" height="0.24"/><rect class="cls-70" x="112.57" y="358.68" width="14.03" height="0.24"/><rect class="cls-70" x="112.57" y="358.44" width="14.03" height="0.24"/><rect class="cls-71" x="112.57" y="358.2" width="14.03" height="0.24"/><rect class="cls-72" x="112.57" y="357.97" width="14.03" height="0.24"/><rect class="cls-73" x="112.57" y="357.73" width="14.03" height="0.24"/><rect class="cls-74" x="112.57" y="357.49" width="14.03" height="0.24"/><rect class="cls-74" x="112.57" y="357.26" width="14.03" height="0.24"/><rect class="cls-75" x="112.57" y="357.02" width="14.03" height="0.24"/><rect class="cls-76" x="112.57" y="356.78" width="14.03" height="0.24"/><rect class="cls-77" x="112.57" y="356.55" width="14.03" height="0.24"/><rect class="cls-78" x="112.57" y="356.31" width="14.03" height="0.24"/><rect class="cls-78" x="112.57" y="356.08" width="14.03" height="0.24"/><rect class="cls-79" x="112.57" y="355.84" width="14.03" height="0.24"/><rect class="cls-80" x="112.57" y="355.6" width="14.03" height="0.24"/><rect class="cls-81" x="112.57" y="355.37" width="14.03" height="0.24"/><rect class="cls-82" x="112.57" y="355.13" width="14.03" height="0.24"/><rect class="cls-83" x="112.57" y="354.89" width="14.03" height="0.24"/><rect class="cls-84" x="112.57" y="354.66" width="14.03" height="0.24"/><rect class="cls-84" x="112.57" y="354.42" width="14.03" height="0.24"/><rect class="cls-85" x="112.57" y="354.18" width="14.03" height="0.24"/><rect class="cls-85" x="112.57" y="353.95" width="14.03" height="0.24"/><rect class="cls-86" x="112.57" y="353.71" width="14.03" height="0.24"/><rect class="cls-87" x="112.57" y="353.47" width="14.03" height="0.24"/><rect class="cls-87" x="112.57" y="353.24" width="14.03" height="0.24"/><rect class="cls-88" x="112.57" y="353" width="14.03" height="0.24"/><rect class="cls-89" x="112.57" y="352.77" width="14.03" height="0.24"/><rect class="cls-90" x="112.57" y="352.53" width="14.03" height="0.24"/><rect class="cls-91" x="112.57" y="352.29" width="14.03" height="0.24"/><rect class="cls-91" x="112.57" y="352.06" width="14.03" height="0.24"/><rect class="cls-92" x="112.57" y="351.82" width="14.03" height="0.24"/><rect class="cls-93" x="112.57" y="351.58" width="14.03" height="0.24"/><rect class="cls-93" x="112.57" y="351.35" width="14.03" height="0.24"/><rect class="cls-94" x="112.57" y="351.11" width="14.03" height="0.24"/><rect class="cls-95" x="112.57" y="350.87" width="14.03" height="0.24"/><rect class="cls-95" x="112.57" y="350.64" width="14.03" height="0.24"/><rect class="cls-96" x="112.57" y="350.4" width="14.03" height="0.24"/><rect class="cls-97" x="112.57" y="350.16" width="14.03" height="0.24"/><rect class="cls-98" x="112.57" y="349.93" width="14.03" height="0.24"/><rect class="cls-99" x="112.57" y="349.69" width="14.03" height="0.24"/><rect class="cls-99" x="112.57" y="349.46" width="14.03" height="0.24"/><rect class="cls-100" x="112.57" y="349.22" width="14.03" height="0.24"/><rect class="cls-101" x="112.57" y="348.98" width="14.03" height="0.24"/><rect class="cls-101" x="112.57" y="348.75" width="14.03" height="0.24"/><rect class="cls-102" x="112.57" y="348.51" width="14.03" height="0.24"/><rect class="cls-102" x="112.57" y="348.27" width="14.03" height="0.24"/><rect class="cls-103" x="112.57" y="348.04" width="14.03" height="0.24"/><rect class="cls-104" x="112.57" y="347.8" width="14.03" height="0.24"/><rect class="cls-105" x="112.57" y="347.56" width="14.03" height="0.24"/><rect class="cls-106" x="112.57" y="347.33" width="14.03" height="0.24"/><rect class="cls-107" x="112.57" y="347.09" width="14.03" height="0.24"/><rect class="cls-108" x="112.57" y="346.86" width="14.03" height="0.24"/><rect class="cls-108" x="112.57" y="346.62" width="14.03" height="0.24"/><rect class="cls-109" x="112.57" y="346.38" width="14.03" height="0.24"/><rect class="cls-110" x="112.57" y="346.15" width="14.03" height="0.24"/><rect class="cls-111" x="112.57" y="345.91" width="14.03" height="0.24"/><rect class="cls-112" x="112.57" y="345.67" width="14.03" height="0.24"/><rect class="cls-112" x="112.57" y="345.44" width="14.03" height="0.24"/><rect class="cls-113" x="112.57" y="345.2" width="14.03" height="0.24"/><rect class="cls-114" x="112.57" y="344.96" width="14.03" height="0.24"/><rect class="cls-115" x="112.57" y="344.73" width="14.03" height="0.24"/><rect class="cls-116" x="112.57" y="344.49" width="14.03" height="0.24"/><rect class="cls-116" x="112.57" y="344.25" width="14.03" height="0.24"/><rect class="cls-117" x="112.57" y="344.02" width="14.03" height="0.24"/><rect class="cls-118" x="112.57" y="343.78" width="14.03" height="0.24"/><rect class="cls-119" x="112.57" y="343.55" width="14.03" height="0.24"/><rect class="cls-120" x="112.57" y="343.31" width="14.03" height="0.24"/><rect class="cls-121" x="112.57" y="343.07" width="14.03" height="0.24"/><rect class="cls-122" x="112.57" y="342.84" width="14.03" height="0.24"/><rect class="cls-122" x="112.57" y="342.6" width="14.03" height="0.24"/><rect class="cls-123" x="112.57" y="342.36" width="14.03" height="0.24"/><rect class="cls-124" x="112.57" y="342.13" width="14.03" height="0.24"/><rect class="cls-125" x="112.57" y="341.89" width="14.03" height="0.24"/><rect class="cls-126" x="112.57" y="341.65" width="14.03" height="0.24"/><rect class="cls-126" x="112.57" y="341.42" width="14.03" height="0.24"/><rect class="cls-127" x="112.57" y="341.18" width="14.03" height="0.24"/><rect class="cls-128" x="112.57" y="340.95" width="14.03" height="0.24"/><rect class="cls-129" x="112.57" y="340.71" width="14.03" height="0.24"/><rect class="cls-130" x="112.57" y="340.47" width="14.03" height="0.24"/><rect class="cls-130" x="112.57" y="340.24" width="14.03" height="0.24"/><rect class="cls-131" x="112.57" y="340" width="14.03" height="0.24"/><rect class="cls-132" x="112.57" y="339.76" width="14.03" height="0.24"/><rect class="cls-133" x="112.57" y="339.53" width="14.03" height="0.24"/><rect class="cls-134" x="112.57" y="339.29" width="14.03" height="0.24"/><rect class="cls-135" x="112.57" y="339.05" width="14.03" height="0.24"/><rect class="cls-136" x="112.57" y="338.82" width="14.03" height="0.24"/><rect class="cls-136" x="112.57" y="338.58" width="14.03" height="0.24"/><rect class="cls-137" x="112.57" y="338.34" width="14.03" height="0.24"/><rect class="cls-137" x="112.57" y="338.11" width="14.03" height="0.24"/><rect class="cls-138" x="112.57" y="337.87" width="14.03" height="0.24"/><rect class="cls-139" x="112.57" y="337.64" width="14.03" height="0.24"/><rect class="cls-139" x="112.57" y="337.4" width="14.03" height="0.24"/><rect class="cls-140" x="112.57" y="337.16" width="14.03" height="0.24"/><rect class="cls-141" x="112.57" y="336.93" width="14.03" height="0.24"/><rect class="cls-142" x="112.57" y="336.69" width="14.03" height="0.24"/><rect class="cls-142" x="112.57" y="336.45" width="14.03" height="0.24"/><rect class="cls-143" x="112.57" y="336.22" width="14.03" height="0.24"/><rect class="cls-144" x="112.57" y="335.98" width="14.03" height="0.24"/><rect class="cls-145" x="112.57" y="335.74" width="14.03" height="0.24"/><rect class="cls-145" x="112.57" y="335.51" width="14.03" height="0.24"/><rect class="cls-146" x="112.57" y="335.27" width="14.03" height="0.24"/><rect class="cls-146" x="112.57" y="335.04" width="14.03" height="0.24"/><rect class="cls-147" x="112.57" y="334.8" width="14.03" height="0.24"/><rect class="cls-147" x="112.57" y="334.56" width="14.03" height="0.24"/><rect class="cls-147" x="112.57" y="334.33" width="14.03" height="0.24"/><rect class="cls-147" x="112.57" y="334.09" width="14.03" height="0.24"/><rect class="cls-147" x="112.57" y="333.85" width="14.03" height="0.24"/><rect class="cls-6" x="112.57" y="333.62" width="14.03" height="0.24"/><rect class="cls-6" x="112.57" y="333.38" width="14.03" height="0.24"/><polygon class="cls-6" points="112.57 333.14 112.58 333.14 126.6 333.14 126.6 333.38 112.57 333.38 112.57 333.14"/><polygon class="cls-6" points="126.6 333.14 112.58 333.14 126.6 333.14 126.6 333.14"/></g></g><polygon class="cls-152" points="551.08 509.52 589.78 485.53 589.78 533.5 551.08 557.49 551.08 509.52"/><polygon class="cls-153" points="512.39 485.53 551.08 509.52 551.08 557.49 512.39 533.5 512.39 485.53"/><polygon class="cls-153" points="551.08 461.55 589.78 485.53 551.08 509.52 512.39 485.53 551.08 461.55"/><polygon class="cls-3" points="512.39 485.53 551.08 509.52 551.08 557.49 512.39 533.5 512.39 485.53"/><polygon class="cls-154" points="551.08 461.55 589.78 485.53 551.08 509.52 512.39 485.53 551.08 461.55"/><polygon class="cls-152" points="551.08 473.18 571.02 485.53 551.08 497.89 531.15 485.53 551.08 473.18"/><g class="cls-8"><polygon class="cls-153" points="561.34 518.88 577.71 508.74 577.71 529.03 561.34 539.18 561.34 518.88"/></g><g class="cls-8"><polygon class="cls-153" points="540.83 518.88 524.46 508.74 524.46 529.03 540.83 539.18 540.83 518.88"/></g><polygon class="cls-152" points="38.7 467.12 77.39 443.13 77.39 491.11 38.7 515.09 38.7 467.12"/><polygon class="cls-153" points="0 443.13 38.7 467.12 38.7 515.09 0 491.11 0 443.13"/><polygon class="cls-153" points="38.7 419.14 77.39 443.13 38.7 467.12 0 443.13 38.7 419.14"/><polygon class="cls-3" points="0 443.13 38.7 467.12 38.7 515.09 0 491.11 0 443.13"/><polygon class="cls-154" points="38.7 419.14 77.39 443.13 38.7 467.12 0 443.13 38.7 419.14"/><polygon class="cls-152" points="38.7 430.77 58.63 443.13 38.7 455.49 18.76 443.13 38.7 430.77"/><g class="cls-8"><polygon class="cls-153" points="48.95 476.48 65.32 466.34 65.32 486.63 48.95 496.78 48.95 476.48"/></g><g class="cls-8"><polygon class="cls-153" points="28.44 476.48 12.07 466.34 12.07 486.63 28.44 496.78 28.44 476.48"/></g><polygon class="cls-152" points="319.94 647.99 358.64 624 358.64 671.97 319.94 695.96 319.94 647.99"/><polygon class="cls-153" points="281.24 624 319.94 647.99 319.94 695.96 281.24 671.97 281.24 624"/><polygon class="cls-153" points="319.94 600.01 358.64 624 319.94 647.99 281.24 624 319.94 600.01"/><polygon class="cls-3" points="281.24 624 319.94 647.99 319.94 695.96 281.24 671.97 281.24 624"/><polygon class="cls-154" points="319.94 600.01 358.64 624 319.94 647.99 281.24 624 319.94 600.01"/><polygon class="cls-152" points="319.94 611.64 339.88 624 319.94 636.36 300 624 319.94 611.64"/><g class="cls-8"><polygon class="cls-153" points="330.2 657.35 346.57 647.21 346.57 667.5 330.2 677.65 330.2 657.35"/></g><g class="cls-8"><polygon class="cls-153" points="309.69 657.35 293.31 647.21 293.31 667.5 309.69 677.65 309.69 657.35"/></g><polygon class="cls-155" points="200.86 539.09 334.24 467.12 400.43 502.83 267.55 575.08 200.86 539.09"/><polygon class="cls-156" points="200.86 539.09 334.24 467.12 400.43 502.83 267.55 575.08 200.86 539.09"/><polygon class="cls-155" points="267.55 583.59 267.55 575.08 400.43 502.83 400.78 511.74 267.55 583.59"/><polygon class="cls-155" points="200.86 539.09 267.55 575.08 267.55 583.59 200.86 547.24 200.86 539.09"/><polygon class="cls-157" points="200.86 539.09 267.55 575.08 267.55 583.59 200.86 547.24 200.86 539.09"/><polygon class="cls-158" points="258.49 501.03 352.6 450.25 352.6 501.03 258.49 551.81 258.49 501.03"/><polygon class="cls-154" points="258.49 501.03 352.6 450.25 352.6 501.03 258.49 551.81 258.49 501.03"/><polygon class="cls-159" points="248.69 546.52 258.49 551.81 258.49 501.03 249.16 496 248.69 546.52"/><polygon class="cls-158" points="249.16 496 258.49 501.03 352.6 450.25 343.78 445.49 249.16 496"/><polygon class="cls-154" points="114.92 274.24 491.34 71.12 491.34 375.8 114.92 578.92 114.92 274.24"/><polygon class="cls-160" points="133.75 279.7 472.51 96.35 472.51 368.27 133.75 551.62 133.75 279.7"/><polygon class="cls-158" points="97.62 264.9 473.29 61.38 491.34 71.12 114.92 274.24 97.62 264.9"/><polygon class="cls-158" points="97.62 569.58 114.92 578.92 114.92 274.24 97.62 264.9 97.62 569.58"/><polygon class="cls-159" points="97.62 264.9 473.29 61.38 491.34 71.12 114.92 274.24 97.62 264.9"/><polygon class="cls-161" points="97.62 569.58 114.92 578.92 114.92 274.24 97.62 264.9 97.62 569.58"/><polygon class="cls-3" points="220.14 449.06 252.36 431.67 252.36 466.44 220.14 483.83 220.14 449.06"/><polygon class="cls-3" points="214.26 480.66 220.14 483.83 220.14 449.06 214.26 445.89 214.26 480.66"/><polygon class="cls-3" points="214.26 445.89 246.57 428.55 252.36 431.67 220.14 449.06 214.26 445.89"/><polygon class="cls-162" points="214.26 480.66 220.14 483.83 220.14 449.06 214.26 445.89 214.26 480.66"/><polygon class="cls-163" points="214.26 445.89 246.57 428.55 252.36 431.67 220.14 449.06 214.26 445.89"/><polygon class="cls-154" points="282.03 415.93 314.25 398.54 314.25 433.31 282.03 450.7 282.03 415.93"/><polygon class="cls-154" points="276.15 447.52 282.03 450.7 282.03 415.93 276.15 412.75 276.15 447.52"/><polygon class="cls-154" points="276.15 412.75 308.46 395.42 314.25 398.54 282.03 415.93 276.15 412.75"/><polygon class="cls-164" points="276.15 447.52 282.03 450.7 282.03 415.93 276.15 412.75 276.15 447.52"/><polygon class="cls-165" points="276.15 412.75 308.46 395.42 314.25 398.54 282.03 415.93 276.15 412.75"/><polygon class="cls-154" points="343.92 382.79 376.14 365.41 376.14 400.18 343.92 417.56 343.92 382.79"/><polygon class="cls-154" points="338.04 414.39 343.92 417.56 343.92 382.79 338.04 379.62 338.04 414.39"/><polygon class="cls-154" points="338.04 379.62 370.35 362.28 376.14 365.41 343.92 382.79 338.04 379.62"/><polygon class="cls-164" points="338.04 414.39 343.92 417.56 343.92 382.79 338.04 379.62 338.04 414.39"/><polygon class="cls-165" points="338.04 379.62 370.35 362.28 376.14 365.41 343.92 382.79 338.04 379.62"/><polygon class="cls-155" points="405.81 349.66 438.03 332.28 438.03 367.05 405.81 384.43 405.81 349.66"/><polygon class="cls-155" points="399.94 381.26 405.81 384.43 405.81 349.66 399.94 346.49 399.94 381.26"/><polygon class="cls-155" points="399.94 346.49 432.24 329.15 438.03 332.28 405.81 349.66 399.94 346.49"/><polygon class="cls-157" points="399.94 381.26 405.81 384.43 405.81 349.66 399.94 346.49 399.94 381.26"/><polygon class="cls-166" points="399.94 346.49 432.24 329.15 438.03 332.28 405.81 349.66 399.94 346.49"/><polygon class="cls-5" points="201.57 182.57 201.57 438.05 438.31 308.9 438.31 54.43 201.57 182.57"/><polygon class="cls-5" points="167.95 164.43 404.69 36.29 438.31 54.43 201.57 182.57 167.95 164.43"/><polygon class="cls-5" points="167.95 419.91 201.57 438.05 201.57 182.57 167.95 164.43 167.95 419.91"/><polygon class="cls-167" points="167.95 164.43 404.69 36.29 438.31 54.43 201.57 182.57 167.95 164.43"/><polygon class="cls-155" points="167.95 419.91 201.57 438.05 201.57 182.57 167.95 164.43 167.95 419.91"/><polygon class="cls-154" points="201.57 146.29 201.57 182.57 438.31 54.43 438.31 18.14 201.57 146.29"/><polygon class="cls-6" points="167.95 128.14 404.69 0 438.31 18.14 201.57 146.29 167.95 128.14"/><polygon class="cls-6" points="167.95 164.43 201.57 182.57 201.57 146.29 167.95 128.14 167.95 164.43"/><polygon class="cls-159" points="167.95 128.14 404.69 0 438.31 18.14 201.57 146.29 167.95 128.14"/><polygon class="cls-161" points="167.95 164.43 201.57 182.57 201.57 146.29 167.95 128.14 167.95 164.43"/><polygon class="cls-152" points="215.85 150.4 227.04 144.37 227.04 156.44 215.85 162.48 215.85 150.4"/><polygon class="cls-152" points="213.8 161.38 215.85 162.48 215.85 150.4 213.8 149.3 213.8 161.38"/><polygon class="cls-152" points="213.8 149.3 225.03 143.28 227.04 144.37 215.85 150.4 213.8 149.3"/><polygon class="cls-168" points="213.8 161.38 215.85 162.48 215.85 150.4 213.8 149.3 213.8 161.38"/><polygon class="cls-169" points="213.8 149.3 225.03 143.28 227.04 144.37 215.85 150.4 213.8 149.3"/><polygon class="cls-152" points="235.55 140.8 246.75 134.76 246.75 146.84 235.55 152.88 235.55 140.8"/><polygon class="cls-152" points="233.51 151.78 235.55 152.88 235.55 140.8 233.51 139.7 233.51 151.78"/><polygon class="cls-152" points="233.51 139.7 244.74 133.68 246.75 134.76 235.55 140.8 233.51 139.7"/><polygon class="cls-168" points="233.51 151.78 235.55 152.88 235.55 140.8 233.51 139.7 233.51 151.78"/><polygon class="cls-169" points="233.51 139.7 244.74 133.68 246.75 134.76 235.55 140.8 233.51 139.7"/><polygon class="cls-152" points="255.26 131.2 266.45 125.16 266.45 137.24 255.26 143.28 255.26 131.2"/><polygon class="cls-152" points="253.22 142.18 255.26 143.28 255.26 131.2 253.22 130.1 253.22 142.18"/><polygon class="cls-152" points="253.22 130.1 264.44 124.07 266.45 125.16 255.26 131.2 253.22 130.1"/><polygon class="cls-168" points="253.22 142.18 255.26 143.28 255.26 131.2 253.22 130.1 253.22 142.18"/><polygon class="cls-169" points="253.22 130.1 264.44 124.07 266.45 125.16 255.26 131.2 253.22 130.1"/><polygon class="cls-3" points="246.96 201.5 293.29 176.28 293.29 193.4 246.96 217.55 246.96 201.5"/><polygon class="cls-3" points="241.15 198.37 288.13 173.5 293.29 176.28 246.96 201.5 241.15 198.37"/><polygon class="cls-3" points="246.96 217.55 241.15 214.25 241.15 198.37 246.96 201.5 246.96 217.55"/><g class="cls-170"><polygon class="cls-171" points="241.15 198.37 288.13 173.5 293.29 176.28 246.96 201.5 241.15 198.37"/><polygon class="cls-3" points="246.96 217.55 241.15 214.25 241.15 198.37 246.96 201.5 246.96 217.55"/></g><polygon class="cls-3" points="302.98 171.45 349.31 146.23 349.31 163.35 302.98 187.5 302.98 171.45"/><polygon class="cls-3" points="297.17 168.31 344.16 143.45 349.31 146.23 302.98 171.45 297.17 168.31"/><polygon class="cls-3" points="302.98 187.5 297.17 184.19 297.17 168.31 302.98 171.45 302.98 187.5"/><g class="cls-170"><polygon class="cls-171" points="297.17 168.31 344.16 143.45 349.31 146.23 302.98 171.45 297.17 168.31"/><polygon class="cls-3" points="302.98 187.5 297.17 184.19 297.17 168.31 302.98 171.45 302.98 187.5"/></g><polygon class="cls-3" points="359 141.4 405.34 116.18 405.34 133.29 359 157.45 359 141.4"/><polygon class="cls-3" points="353.19 138.26 400.18 113.4 405.34 116.18 359 141.4 353.19 138.26"/><polygon class="cls-3" points="359 157.45 353.19 154.14 353.19 138.26 359 141.4 359 157.45"/><g class="cls-170"><polygon class="cls-171" points="353.19 138.26 400.18 113.4 405.34 116.18 359 141.4 353.19 138.26"/><polygon class="cls-3" points="359 157.45 353.19 154.14 353.19 138.26 359 141.4 359 157.45"/></g><polygon class="cls-3" points="246.96 291 293.29 265.78 293.29 282.89 246.96 307.05 246.96 291"/><polygon class="cls-3" points="241.15 287.86 288.13 263 293.29 265.78 246.96 291 241.15 287.86"/><polygon class="cls-3" points="246.96 307.05 241.15 303.74 241.15 287.86 246.96 291 246.96 307.05"/><g class="cls-170"><polygon class="cls-171" points="241.15 287.86 288.13 263 293.29 265.78 246.96 291 241.15 287.86"/><polygon class="cls-3" points="246.96 307.05 241.15 303.74 241.15 287.86 246.96 291 246.96 307.05"/></g><polygon class="cls-3" points="302.98 260.94 349.31 235.73 349.31 252.84 302.98 277 302.98 260.94"/><polygon class="cls-3" points="297.17 257.81 344.16 232.94 349.31 235.73 302.98 260.94 297.17 257.81"/><polygon class="cls-3" points="302.98 277 297.17 273.69 297.17 257.81 302.98 260.94 302.98 277"/><g class="cls-170"><polygon class="cls-171" points="297.17 257.81 344.16 232.94 349.31 235.73 302.98 260.94 297.17 257.81"/><polygon class="cls-3" points="302.98 277 297.17 273.69 297.17 257.81 302.98 260.94 302.98 277"/></g><polygon class="cls-3" points="359 230.89 405.34 205.68 405.34 222.79 359 246.94 359 230.89"/><polygon class="cls-3" points="353.19 227.76 400.18 202.89 405.34 205.68 359 230.89 353.19 227.76"/><polygon class="cls-3" points="359 246.94 353.19 243.64 353.19 227.76 359 230.89 359 246.94"/><g class="cls-170"><polygon class="cls-171" points="353.19 227.76 400.18 202.89 405.34 205.68 359 230.89 353.19 227.76"/><polygon class="cls-3" points="359 246.94 353.19 243.64 353.19 227.76 359 230.89 359 246.94"/></g><polygon class="cls-3" points="246.96 231.69 409.03 144.24 409.03 161.35 246.96 247.75 246.96 231.69"/><polygon class="cls-3" points="241.15 228.56 403.87 141.46 409.03 144.24 246.96 231.69 241.15 228.56"/><polygon class="cls-3" points="246.96 247.75 241.15 244.44 241.15 228.56 246.96 231.69 246.96 247.75"/><g class="cls-170"><polygon class="cls-171" points="241.15 228.56 403.87 141.46 409.03 144.24 246.96 231.69 241.15 228.56"/><polygon class="cls-3" points="246.96 247.75 241.15 244.44 241.15 228.56 246.96 231.69 246.96 247.75"/></g><polygon class="cls-3" points="246.96 261.48 409.03 174.02 409.03 191.14 246.96 277.53 246.96 261.48"/><polygon class="cls-3" points="241.15 258.34 403.87 171.24 409.03 174.02 246.96 261.48 241.15 258.34"/><polygon class="cls-3" points="246.96 277.53 241.15 274.22 241.15 258.34 246.96 261.48 246.96 277.53"/><g class="cls-170"><polygon class="cls-171" points="241.15 258.34 403.87 171.24 409.03 174.02 246.96 261.48 241.15 258.34"/><polygon class="cls-3" points="246.96 277.53 241.15 274.22 241.15 258.34 246.96 261.48 246.96 277.53"/></g><polygon class="cls-3" points="246.96 321.05 409.03 233.59 409.03 250.71 246.96 337.1 246.96 321.05"/><polygon class="cls-3" points="241.15 317.91 403.87 230.81 409.03 233.59 246.96 321.05 241.15 317.91"/><polygon class="cls-3" points="246.96 337.1 241.15 333.79 241.15 317.91 246.96 321.05 246.96 337.1"/><g class="cls-170"><polygon class="cls-171" points="241.15 317.91 403.87 230.81 409.03 233.59 246.96 321.05 241.15 317.91"/><polygon class="cls-3" points="246.96 337.1 241.15 333.79 241.15 317.91 246.96 321.05 246.96 337.1"/></g><polygon class="cls-3" points="246.96 350.83 409.03 263.38 409.03 280.49 246.96 366.88 246.96 350.83"/><polygon class="cls-3" points="241.15 347.7 403.87 260.6 409.03 263.38 246.96 350.83 241.15 347.7"/><polygon class="cls-3" points="246.96 366.88 241.15 363.58 241.15 347.7 246.96 350.83 246.96 366.88"/><g class="cls-170"><polygon class="cls-171" points="241.15 347.7 403.87 260.6 409.03 263.38 246.96 350.83 241.15 347.7"/><polygon class="cls-3" points="246.96 366.88 241.15 363.58 241.15 347.7 246.96 350.83 246.96 366.88"/></g><polygon class="cls-3" points="517.76 384.86 528.44 377.77 504.23 393.85 493.55 400.95 517.76 384.86"/><polygon class="cls-172" points="470.38 280.74 481.06 273.64 509.97 281.95 499.29 289.05 470.38 280.74"/><polygon class="cls-172" points="576.33 417.61 587.01 410.51 581.7 441.57 571.01 448.67 576.33 417.61"/><path class="cls-3" d="M548.68,278.37l10.68-7.1c-23.27,15.47-29.14,49.71-13.11,76.46s47.9,35.9,71.18,20.44l-10.69,7.1c-23.27,15.46-55.14,6.31-71.17-20.44S525.41,293.83,548.68,278.37Z"/><g class="cls-173"><g class="cls-4"><path class="cls-3" d="M548.68,278.37l10.68-7.1a46.93,46.93,0,0,0-7.09,5.8l-10.68,7.1a45.86,45.86,0,0,1,7.09-5.8"/><path class="cls-3" d="M541.59,284.17l10.68-7.1a48.56,48.56,0,0,0-7.71,10.05l-10.68,7.09a48.77,48.77,0,0,1,7.71-10"/><path class="cls-3" d="M533.88,294.21l10.68-7.09c-10,17.31-10.07,41,1.69,60.61,16,26.76,47.9,35.9,71.18,20.44l-10.69,7.1c-23.27,15.46-55.14,6.31-71.17-20.44-11.77-19.63-11.74-43.3-1.69-60.62"/></g></g><polygon class="cls-172" points="525.68 213.57 536.36 206.48 553.04 234.31 542.36 241.4 525.68 213.57"/><polygon class="cls-172" points="635.71 397.19 646.39 390.09 663.07 417.92 652.39 425.01 635.71 397.19"/><polygon class="cls-3" points="652.39 425.01 663.07 417.92 640.42 432.96 629.74 440.06 652.39 425.01"/><path class="cls-3" d="M542.35,241.4,553,234.3a73.63,73.63,0,0,1,36.72-5.36L579.08,236A73.45,73.45,0,0,0,542.35,241.4Z"/><g class="cls-174"><g class="cls-4"><path class="cls-3" d="M542.35,241.4,553,234.3a73.63,73.63,0,0,1,36.72-5.36L579.08,236a73.45,73.45,0,0,0-36.73,5.36"/></g></g><path class="cls-3" d="M656.12,364.59l10.68-7.1a81.59,81.59,0,0,1-20.41,32.6l-10.68,7.1A81.7,81.7,0,0,0,656.12,364.59Z"/><g class="cls-175"><g class="cls-4"><path class="cls-3" d="M656.12,364.59l10.68-7.1a86.44,86.44,0,0,1-7,15.47l-10.69,7.1a86.1,86.1,0,0,0,7-15.47"/><path class="cls-3" d="M649.09,380.06l10.69-7.1a79,79,0,0,1-12.47,16.23l-10.69,7.1a78.53,78.53,0,0,0,12.47-16.23"/><path class="cls-3" d="M636.62,396.29l10.69-7.1-.92.9-10.68,7.1.91-.9"/></g></g><path class="cls-3" d="M606.14,243.8l10.68-7.1a93.4,93.4,0,0,1,31.53,25l-10.69,7.1A93.27,93.27,0,0,0,606.14,243.8Z"/><g class="cls-176"><g class="cls-4"><path class="cls-3" d="M606.14,243.8l10.68-7.1a93.4,93.4,0,0,1,31.53,25l-10.69,7.1a93.27,93.27,0,0,0-31.52-25"/></g></g><path class="cls-3" d="M653.27,294.82l10.69-7.1a102.14,102.14,0,0,1,7.83,40.71l-10.68,7.1A102,102,0,0,0,653.27,294.82Z"/><g class="cls-177"><g class="cls-4"><path class="cls-3" d="M653.27,294.82l10.69-7.1a102.14,102.14,0,0,1,7.83,40.71l-10.68,7.1a102,102,0,0,0-7.84-40.71"/></g></g><polygon class="cls-3" points="584.41 204.97 595.09 197.87 622.14 205.64 611.46 212.74 584.41 204.97"/><polygon class="cls-172" points="611.46 212.74 622.14 205.64 616.82 236.7 606.14 243.8 611.46 212.74"/><polygon class="cls-172" points="661.11 335.53 671.79 328.43 700.71 336.75 690.02 343.85 661.11 335.53"/><polygon class="cls-3" points="690.02 343.85 700.71 336.75 695.73 365.8 685.04 372.9 690.02 343.85"/><polygon class="cls-3" points="661.87 252.69 672.55 245.59 688.16 271.64 677.48 278.74 661.87 252.69"/><path class="cls-152" d="M477.94,374.9l24.21-16.08a102.12,102.12,0,0,1-7.84-40.71l-28.93-8.31,5-29.06,28.91,8.31a81.72,81.72,0,0,1,20.42-32.6L503,228.62l22.65-15.05,16.67,27.83A73.45,73.45,0,0,1,579.08,236L584.41,205l27.05,7.77-5.32,31.06a93.27,93.27,0,0,1,31.52,25l24.21-16.08,15.61,26.05-24.21,16.08a102,102,0,0,1,7.84,40.71L690,343.85l-5,29-28.92-8.31a81.7,81.7,0,0,1-20.41,32.6L652.39,425l-22.65,15.05-16.67-27.83a73.62,73.62,0,0,1-36.74,5.38L571,448.67,544,440.91l5.33-31.07a93.15,93.15,0,0,1-31.52-25L493.55,401Zm70.74-96.53c-23.27,15.46-29.14,49.7-13.11,76.46s47.9,35.9,71.17,20.44,29.14-49.69,13.11-76.44-47.9-35.92-71.17-20.46"/><polygon class="cls-3" points="677.48 278.74 688.16 271.64 663.96 287.72 653.27 294.82 677.48 278.74"/><circle class="cls-178" cx="550.5" cy="139.7" r="64.7"/><g id="Group-9"><g class="cls-179"><path id="Fill-7" class="cls-180" d="M549,96.27a21.25,21.25,0,0,0-2.5.16h0a17.18,17.18,0,0,0-10.28,4.92h0c-2,2-4,4.05-6.07,6.08h0c-1,1-2.08,2.06-3.13,3.09h0c-1.1,1.07-2.21,2.14-3.3,3.22h0c-1,1-2,2-3,3h0c-1.57,1.57-3.16,3.11-4.72,4.68h0c-1.22,1.23-2.41,2.49-3.61,3.73h0c-.7.73-1.46,1.41-2.11,2.18h0c-2.85,3.34-4.2,7.24-4.24,12.43h0a15.11,15.11,0,0,0,1.9,7h0a26.62,26.62,0,0,0,2.36,3.7h0c.58.81,1,.81,1.78.18h0a5.08,5.08,0,0,0,.41-.39h0c.76-.79,1.51-1.58,2.27-2.36h0l3.31-3.38h0c1.15-1.19,2.27-2.4,3.42-3.59h0c.54-.57,1.13-1.1,1.67-1.67h0c1.17-1.22,2.32-2.47,3.5-3.68h0c1.15-1.18,2.34-2.33,3.5-3.5h0c1.29-1.32,2.55-2.67,3.84-4h0c1.19-1.2,2.43-2.36,3.62-3.56h0c1.55-1.58,3.07-3.2,4.62-4.79h0c1-1,1.94-1.9,2.89-2.86h0c1.3-1.3,2.58-2.63,3.88-3.93h0c1.12-1.11,2.28-2.19,3.4-3.3h0q3.75-3.73,7.49-7.49h0c.16-.16.31-.33.45-.5h0c.61-.75.66-.93-.09-1.47h0a23.6,23.6,0,0,0-3.71-2.34h0a17.53,17.53,0,0,0-7.43-1.62H549Zm19.22,15.57a7.49,7.49,0,0,0-5.86,2.66h0a5,5,0,0,1-.4.4h0c-1.35,1.3-2.72,2.6-4.06,3.91h0l-4.16,4.13h0c-1.15,1.14-2.31,2.27-3.45,3.41h0c-1.2,1.2-2.36,2.43-3.57,3.61h0c-1.25,1.25-2.55,2.45-3.81,3.68h0c-1.53,1.5-3,3-4.55,4.53h0L530,146.53h0L518.83,157.6h0c-.7.7-.73.79,0,1.53h0c1.78,1.79,3.58,3.57,5.36,5.35h0a7.12,7.12,0,0,0,3.91,2.11h0a9.63,9.63,0,0,0,4.37-.14h0a6.63,6.63,0,0,0,2.87-1.51h0l4.4-4.22h0c1-1,2.09-1.95,3.11-2.95h0c2-2,4-4,6.09-6h0c1.67-1.63,3.37-3.23,5-4.85h0l6.89-6.67h0l6.49-6.28h0a1.44,1.44,0,0,1,2.52.27h0a9.7,9.7,0,0,1,1.64,6.44h0a9.17,9.17,0,0,1-2.32,5.29h0c-1.6,1.69-3.29,3.29-5,4.92h0c-1.18,1.16-2.38,2.3-3.56,3.46h0q-2.28,2.26-4.54,4.54h0c-.24.24-.46.5-.69.74h0l-1.5,1.53h0c-1.12,1.11-2.26,2.21-3.37,3.33h0c-1.19,1.2-2.36,2.42-3.54,3.63h0c-.11.1-.23.19-.34.3h0l-3.8,3.68h0c-.59.57-1.17,1.17-1.75,1.75h0c-1,1-2,2-3,3h0c-.59.62-.58,1,.11,1.49h0a24.88,24.88,0,0,0,3.72,2.33h0a17.67,17.67,0,0,0,7.54,1.61h.05a24.2,24.2,0,0,0,2.67-.16h0a16.86,16.86,0,0,0,9.32-4.2h0c2-1.7,3.71-3.63,5.55-5.47h0c1.36-1.35,2.71-2.72,4.07-4.07h0l3.83-3.83h0c1.17-1.17,2.33-2.34,3.51-3.5h0c1.31-1.29,2.66-2.54,4-3.84h0c1.34-1.32,2.67-2.65,4-4h0a30,30,0,0,0,2.93-3.42h0a18.75,18.75,0,0,0,3-8.28h0a18.48,18.48,0,0,0,0-4.42h0a18.19,18.19,0,0,0-2.8-7.32h0a21.34,21.34,0,0,0-3.71-4.23h0c-3.68-3.63-7.34-7.26-10.94-11h0a8.35,8.35,0,0,0-6.26-2.75h-.39Z"/></g></g></g></g></g></svg>