<svg xmlns="http://www.w3.org/2000/svg" viewBox="0 0 359.95 112.43"><defs><style>.cls-1{fill:#abebf4;}.cls-2{fill:#5fcade;}.cls-3{fill:#02a6c2;}</style></defs><g id="Слой_2" data-name="Слой 2"><g id="Layer_1" data-name="Layer 1"><path d="M179.51,42.55V58h30.91V73.26H179.51v24h-19.8v-70h54.91v15.3Z"/><path d="M243.32,43h-21.5V27.25h62.71V43h-21.4V97.26H243.32Z"/><path d="M337.14,97.26l-14.5-21.7-14.31,21.7h-22.6l25.51-35.41-24.41-34.6h22.3l14,20.2,13.8-20.2h21.41l-24.41,33.8,26,36.21Z"/><rect class="cls-1" x="36.76" y="82.55" width="29.88" height="29.88"/><polygon class="cls-2" points="93.15 41.27 36.76 41.27 36.76 71.15 93.15 71.15 93.15 71.15 103.4 71.15 103.4 41.27 93.15 41.27 93.15 41.27"/><rect class="cls-3" x="36.76" width="92.56" height="29.87"/><rect class="cls-2" y="41.27" width="29.87" height="29.88"/></g></g></svg>