<svg xmlns="http://www.w3.org/2000/svg" viewBox="0 0 356.35 91.84"><defs><style>.cls-1{fill:#ff3800;}.cls-2{font-size:72.72px;font-family:Avenir-Medium, Avenir;font-weight:500;}</style></defs><g id="Слой_2" data-name="Слой 2"><g id="Layer_1" data-name="Layer 1"><path id="Fill-1" class="cls-1" d="M9,37a3,3,0,0,0,1.89,2.71,21.76,21.76,0,0,0,4.61,1.72c1.81.49,3.64,1.05,5.47,1.69a10.27,10.27,0,0,1,4.65,3.27,8.89,8.89,0,0,1,1.89,5.82A9.12,9.12,0,0,1,23.64,60,15.64,15.64,0,0,1,14,62.82,17,17,0,0,1,5.3,60.68,12.48,12.48,0,0,1,0,54.76l6.4-3.71Q8.18,56,14,56t5.85-3.85A3.06,3.06,0,0,0,18,49.46a21.18,21.18,0,0,0-4.61-1.75c-1.82-.48-3.64-1.05-5.47-1.69a10.51,10.51,0,0,1-4.65-3.2,8.49,8.49,0,0,1-1.89-5.68A9.31,9.31,0,0,1,5,29.5a14,14,0,0,1,9-2.89,15.18,15.18,0,0,1,7.61,1.89,13,13,0,0,1,5.13,5.27l-6.27,3.51c-1.19-2.62-3.35-3.92-6.47-3.92a6.51,6.51,0,0,0-3.58.93A3,3,0,0,0,9,37Zm64.7-9.5h7.84L70.69,61.92h-7.3L56.23,38.73,49,61.92h-7.3L30.9,27.51h7.85l6.68,23.74,7.22-23.74h7.09L66.9,51.25ZM94,21a4.49,4.49,0,0,1-3.3,1.37A4.82,4.82,0,0,1,86,17.59a4.6,4.6,0,0,1,1.38-3.33,4.73,4.73,0,0,1,6.74,0A4.69,4.69,0,0,1,94,21Zm-7,41h7.43V27.51H87Zm35.52-35.31a16.15,16.15,0,0,1,12.11,5.27,17.9,17.9,0,0,1,5,12.83,17.85,17.85,0,0,1-5,12.87,16.19,16.19,0,0,1-12.11,5.24q-7.84,0-12-5.79V75.69H103V27.51h7.43v4.95q4.2-5.85,12-5.85Zm-9,26a10.57,10.57,0,0,0,7.78,3.1,10.46,10.46,0,0,0,7.77-3.14,10.71,10.71,0,0,0,3.1-7.88,10.74,10.74,0,0,0-3.1-7.88,11.22,11.22,0,0,0-15.55,0,10.74,10.74,0,0,0-3.1,7.88,10.85,10.85,0,0,0,3.1,7.92Zm38.68-4.75a9.41,9.41,0,0,0,3.79,6,12.15,12.15,0,0,0,7.22,2.1q5.93,0,8.88-4.27l6.13,3.58q-5.1,7.52-15.07,7.51-8.4,0-13.56-5.13a17.5,17.5,0,0,1-5.17-13,17.67,17.67,0,0,1,5.1-12.9,17.48,17.48,0,0,1,13.08-5.2,16.11,16.11,0,0,1,12.42,5.3,18.4,18.4,0,0,1,4.85,12.87,23.41,23.41,0,0,1-.27,3.1Zm-.07-6.06h20.24a9.57,9.57,0,0,0-9.84-8.46,10.44,10.44,0,0,0-6.89,2.27,10.29,10.29,0,0,0-3.51,6.19Z"/><text class="cls-2" transform="translate(185.24 62.1)">chain</text></g></g></svg>