<svg xmlns="http://www.w3.org/2000/svg" viewBox="0 0 1857.53 469.26"><defs><style>.cls-1{fill:#454e72;}.cls-2{fill:#24a9e2;}</style></defs><g id="Слой_2" data-name="Слой 2"><g id="Layer_1" data-name="Layer 1"><path class="cls-1" d="M577.07,280.84h-79.5c-6.7,0-8,1-8.6,7.6-2.2,24.6-4.2,49.1-6.3,73.7-2.4,28.5-4.8,57.1-7.3,85.6-.6,8.1-4.6,11.6-12.6,11.6h-56c-8.3,0-11.7-3.3-11-11.6,2-25.4,4.2-50.8,6.3-76.2q3.3-38.55,6.8-77.1c3.2-36.7,6.4-73.3,9.6-110l8.4-98.1c.8-8.8,1.4-17.6,2.4-26.4.9-7.3,4.8-10.6,12-10.6q28.5-.15,57,0c7.5,0,11.1,3.8,10.5,11.3-2.5,30-5.1,60.1-7.7,90.1-1.7,19.7-3.6,39.5-5.2,59.2-.5,5.9.3,6.6,6.4,6.6h161c6.1,0,7.1-.9,7.7-7.2,3-33.8,5.9-67.7,8.9-101.5,1.4-15.6,2.7-31.2,4.2-46.8.8-8.5,4.6-11.7,13-11.8h54.5c8.9,0,12.1,3.8,11.4,12.9q-5.25,60.45-10.4,121c-3.8,43.5-7.8,86.9-11.6,130.4-2.9,32.5-5.5,65.1-8.3,97.6-1.1,12.4-2.1,24.9-3.2,37.3-.7,7.4-4.7,10.9-12.2,10.9h-56c-7.9,0-11.3-3.4-10.6-11.5,1.7-21.8,3.6-43.5,5.5-65.2,1.9-22.1,3.8-44.1,5.7-66.2.8-9.5,1.7-18.9,2.6-28.4.6-6-.3-7.1-6.3-7.2Z"/><path class="cls-1" d="M844.67,167.24h26c8,0,11.7,3.7,11.1,11.8-2,25.1-4.3,50.1-6.4,75.2-2.4,28.2-5.7,56.3-7,84.6-.5,11.5.3,23,3.5,34.1,7.4,25.4,26,34.8,50.7,32.7,27.1-2.3,41.4-19.6,49.2-43.8,4.9-15.3,6.6-31.2,7.9-47.2,2.5-29.9,5.2-59.7,7.8-89.6,1.2-14.4,2.4-28.9,3.5-43.3.9-11.7,3.9-14.5,15.6-14.5h48c9.8,0,13,3.2,12.1,13.1-2.2,27-4.6,54.1-7,81.1-2.8,31.3-4.6,62.8-8.9,94-3.5,25.1-11.8,48.5-27.7,68.6-17.2,21.7-40.1,34.2-66.8,40-31.4,6.8-62.8,7-93.9-1.5-39.4-10.8-61.5-37.1-68.4-76.8-3.3-18.7-2.4-37.5-.7-56.3,2.3-25.9,4.5-51.8,6.8-77.6,2.2-24.9,4.4-49.7,6.7-74.6.6-6.1,4.8-9.9,11-9.9C826.67,167.24,835.67,167.24,844.67,167.24Z"/><path class="cls-1" d="M214.87,154.94c.2,24.1-9.5,43.2-23.1,60.9-11.7,15.3-25.7,28.4-39.4,41.8-39.7,39.2-66.8,86-84.7,138.5a266.44,266.44,0,0,0-9,31.7c-1.1,5.1-2,5.4-5.9,1.9-66.6-58.4-70.7-157.9-9.2-221.7,7.9-8.2,17-15,24.9-23.1,33.5-34,55.5-74.1,63.4-121.5,3.2-19.5,4.5-39,2.7-58.7-.2-1.6-1-3.6,1-4.5s3.1.9,4.3,1.9c17.5,15.4,31.9,33.5,44.1,53.3,17.3,28,26.6,58.6,30.6,91.1C214.87,149.64,214.77,152.84,214.87,154.94Z"/><path class="cls-2" d="M153.37,466.14c-16.6-.3-32.9-3.3-49.1-7.5-2.3-.6-4.2-1.2-3.5-4.2.5-2.4.3-4.8,4-5.2,8.7-.9,14.3-5.9,16.5-14.3a62.69,62.69,0,0,0,2.2-11.3c1.9-25.9,14.1-47.2,29.5-67.1,15.2-19.5,33.7-36,50.4-54.1,27.7-30.1,50.2-63.4,63.8-102.3.5-1.5.5-3.7,2.6-3.9,2.3-.2,2.8,2.1,3.6,3.6a215.54,215.54,0,0,1,23.4,66.1c3.7,19.9,5.9,39.9,4.1,60.1-3.9,45-22.9,82-59.3,109.3C215.57,454.94,186.37,465.84,153.37,466.14Z"/><path class="cls-1" d="M1786.27,459.34h-25.5c-8.2,0-11.7-3.7-11-12.3,1.7-20.9,3.7-41.8,5.5-62.7q4.8-55.8,9.6-111.5,4.05-47.1,8.2-94c.7-7.9,4.9-11.5,12.8-11.5h51.5c8.4,0,11.9,3.6,11.2,12.1-2.3,28.2-4.9,56.4-7.3,84.6q-5.4,61.95-10.7,123.9c-1.8,20.2-3.6,40.5-5.6,60.7-.7,7.4-4.4,10.7-11.7,10.7Z"/><path class="cls-1" d="M1814.47,138.34h-26c-7.6,0-11.2-3.5-10.7-11,1.2-16.8,2.7-33.5,4.2-50.2.5-5.7,4.8-9.6,10.9-9.7q27.45-.3,54.9,0c6.7.1,10.3,4.6,9.7,11.2-1.5,16.4-3,32.8-4.6,49.2-.7,7-4.4,10.4-11.5,10.5C1832.47,138.44,1823.47,138.34,1814.47,138.34Z"/><path class="cls-1" d="M1691.57,204.64c-18.7-25.5-43.4-41.8-75.1-45.3-35.1-3.9-68.4,1.4-97.8,22.7-1.8,1.3-3.8,2.3-6,1.1-2-1.1-1.9-3-1.7-4.9,2.1-23.6,4.2-47.1,6.2-70.7,1.6-18.3,3.2-36.5,4.6-54.8.5-6.9-2.6-10.6-8.9-10.7-18.7-.2-37.3-.1-56,0-5.9,0-9.5,3.7-10.2,9.6-.5,4.4-.8,8.9-1.2,13.4q-4.8,54.6-9.6,109c-2.5,28.9-4.8,57.7-7.3,86.6-2.9,32.8-5.8,65.7-8.7,98.5-2.5,29.5-5,59.1-7.6,88.6-.6,7.2,3,11.6,10.2,11.6q27,.15,54,0c6.7,0,10.4-3.5,11.4-10.1.5-3.6,1.1-7.2,1.8-11.7a69.19,69.19,0,0,0,30.8,23c24.8,9.2,50.4,10.8,76.2,6.3,35.9-6.3,63.6-26,85.6-54.4,22.1-28.6,33.5-61.4,37.1-97.1C1723.47,275.14,1715.77,237.74,1691.57,204.64Zm-48.5,99c-.8,33-11.2,61.7-37.4,83.2-22.7,18.6-61.1,20.8-82.7,4.4-18-13.8-28.2-32.2-31-54.5-3.6-28.8,2.4-55.6,20.2-78.8,19.4-25.3,45-37.6,77.4-31.8,19.2,3.4,32.3,15.8,41.8,32.1A84.2,84.2,0,0,1,1643.07,303.64Z"/><path class="cls-1" d="M1317.57,171c-21.6-10.2-44.7-13.6-68.5-13.1-60.3,1.3-107.2,26.8-138.3,78.6-23.1,38.5-29.3,80.9-21.6,124.8,6.2,35.6,24.5,64.1,54.6,84.5,25,17,53.2,22.7,82.9,22.9,2.3,0,4.6.2,6.9,0,5.8-.4,11.6-.7,17.4-1.5,48.9-6.6,86.9-30.7,113.4-72,25.5-39.7,32.6-83.9,24.8-129.9C1381.77,222,1357.77,189.94,1317.57,171Zm-20,193.6c-10.4,16.6-24.6,29.6-44.1,34.6-25.3,6.4-49.2,3.8-68.9-15.3-14.3-13.9-20.6-31.5-21.8-51.2-.1-2.6,0-5.3,0-7.9.2-28.5,7.8-54.3,27.9-75.4,20.8-21.9,46.4-29.4,75.6-22.6,20.7,4.7,33.7,19.3,41.5,38.1C1322.07,299.74,1317.17,333.14,1297.57,364.64Z"/></g></g></svg>