<svg xmlns="http://www.w3.org/2000/svg" xmlns:xlink="http://www.w3.org/1999/xlink" viewBox="0 0 238.45 49.3"><defs><style>.cls-1{fill:#fff;}.cls-2{mask:url(#mask);}.cls-3{fill:url(#linear-gradient);}.cls-4{fill:#ff3800;}.cls-5{font-size:39.04px;font-family:Avenir-Medium, Avenir;font-weight:500;}</style><mask id="mask" x="0" y="7.37" width="33.11" height="32.94" maskUnits="userSpaceOnUse"><g id="mask-4"><path id="path-3" class="cls-1" d="M16.47,7.37a7.73,7.73,0,0,0-1,.06h0a6.63,6.63,0,0,0-3.94,1.89h0c-.78.77-1.55,1.55-2.32,2.32h0l-1.2,1.19h0L6.78,14.06h0L5.63,15.23h0L3.82,17h0c-.47.47-.92.95-1.38,1.43h0c-.27.28-.56.54-.81.83h0A7,7,0,0,0,0,24H0a5.77,5.77,0,0,0,.72,2.68h0a10.68,10.68,0,0,0,.91,1.42h0c.22.31.38.31.68.07h0l.16-.15h0c.29-.3.57-.61.87-.9h0l1.26-1.3h0c.44-.46.87-.92,1.31-1.37h0c.21-.22.43-.42.64-.64h0c.45-.47.89-1,1.34-1.41h0c.44-.46.9-.89,1.34-1.34h0c.5-.51,1-1,1.47-1.53h0l1.39-1.36h0l1.77-1.83h0c.36-.37.74-.73,1.11-1.1h0c.49-.5,1-1,1.48-1.5h0l1.3-1.27h0l2.87-2.87h0a1.54,1.54,0,0,0,.17-.19h0c.24-.29.26-.35,0-.56h0A9.69,9.69,0,0,0,19.35,8h0a6.87,6.87,0,0,0-2.85-.62h0Zm7.36,6a2.88,2.88,0,0,0-2.25,1h0a1.14,1.14,0,0,1-.15.16h0L19.87,16h0l-1.59,1.59h0L17,18.89h0l-1.37,1.39h0l-1.46,1.41h0l-1.74,1.73h0Q10.77,25,9.17,26.62h0L4.9,30.86h0c-.27.27-.28.3,0,.59h0l2.06,2H7a2.75,2.75,0,0,0,1.49.81h0a3.67,3.67,0,0,0,1.68,0h0a2.66,2.66,0,0,0,1.1-.58h0l1.68-1.62h0c.4-.37.8-.74,1.19-1.13h0l2.33-2.3h0c.64-.63,1.29-1.24,1.94-1.86h0L21,24.21h0l2.48-2.41h0a.56.56,0,0,1,1,.11h0a3.77,3.77,0,0,1,.63,2.46h0a3.57,3.57,0,0,1-.89,2h0c-.62.64-1.26,1.26-1.9,1.88h0c-.45.45-.91.88-1.37,1.33h0l-1.74,1.73h0c-.09.1-.17.2-.26.29h0l-.57.59h0l-1.3,1.27h0l-1.35,1.39h0l-.13.11h0L14.12,36.4h0c-.22.22-.44.45-.67.67h0c-.38.39-.78.77-1.15,1.17h0c-.23.23-.23.38,0,.57h0a9.62,9.62,0,0,0,1.42.89h0a6.81,6.81,0,0,0,2.89.62h0c.34,0,.68,0,1-.06h0a6.44,6.44,0,0,0,3.57-1.61h0c.75-.65,1.42-1.39,2.13-2.1h0L25,35h0c.48-.49,1-1,1.46-1.46h0l1.35-1.34h0c.5-.5,1-1,1.52-1.47h0c.51-.51,1-1,1.51-1.54h0a11.51,11.51,0,0,0,1.12-1.31h0a7.14,7.14,0,0,0,1.15-3.17h0a6.57,6.57,0,0,0,0-1.7h0A7,7,0,0,0,32,20.2h0a8.11,8.11,0,0,0-1.42-1.62h0c-1.41-1.39-2.81-2.78-4.19-4.2h0A3.21,3.21,0,0,0,24,13.33h-.14Z"/></g></mask><linearGradient id="linear-gradient" y1="23.85" x2="33.11" y2="23.85" gradientUnits="userSpaceOnUse"><stop offset="0" stop-color="#f9bc31"/><stop offset="1" stop-color="#ee3937"/></linearGradient></defs><g id="Слой_2" data-name="Слой 2"><g id="Layer_1" data-name="Layer 1"><g id="Group-9"><g class="cls-2"><path id="Fill-7" class="cls-3" d="M16.47,7.37a7.73,7.73,0,0,0-1,.06h0a6.63,6.63,0,0,0-3.94,1.89h0c-.78.77-1.55,1.55-2.32,2.32h0l-1.2,1.19h0L6.78,14.06h0L5.63,15.23h0L3.82,17h0c-.47.47-.92.95-1.38,1.43h0c-.27.28-.56.54-.81.83h0A7,7,0,0,0,0,24H0a5.77,5.77,0,0,0,.72,2.68h0a10.68,10.68,0,0,0,.91,1.42h0c.22.31.38.31.68.07h0l.16-.15h0c.29-.3.57-.61.87-.9h0l1.26-1.3h0c.44-.46.87-.92,1.31-1.37h0c.21-.22.43-.42.64-.64h0c.45-.47.89-1,1.34-1.41h0c.44-.46.9-.89,1.34-1.34h0c.5-.51,1-1,1.47-1.53h0l1.39-1.36h0l1.77-1.83h0c.36-.37.74-.73,1.11-1.1h0c.49-.5,1-1,1.48-1.5h0l1.3-1.27h0l2.87-2.87h0a1.54,1.54,0,0,0,.17-.19h0c.24-.29.26-.35,0-.56h0A9.69,9.69,0,0,0,19.35,8h0a6.87,6.87,0,0,0-2.85-.62h0Zm7.36,6a2.88,2.88,0,0,0-2.25,1h0a1.14,1.14,0,0,1-.15.16h0L19.87,16h0l-1.59,1.59h0L17,18.89h0l-1.37,1.39h0l-1.46,1.41h0l-1.74,1.73h0Q10.77,25,9.17,26.62h0L4.9,30.86h0c-.27.27-.28.3,0,.59h0l2.06,2H7a2.75,2.75,0,0,0,1.49.81h0a3.67,3.67,0,0,0,1.68,0h0a2.66,2.66,0,0,0,1.1-.58h0l1.68-1.62h0c.4-.37.8-.74,1.19-1.13h0l2.33-2.3h0c.64-.63,1.29-1.24,1.94-1.86h0L21,24.21h0l2.48-2.41h0a.56.56,0,0,1,1,.11h0a3.77,3.77,0,0,1,.63,2.46h0a3.57,3.57,0,0,1-.89,2h0c-.62.64-1.26,1.26-1.9,1.88h0c-.45.45-.91.88-1.37,1.33h0l-1.74,1.73h0c-.09.1-.17.2-.26.29h0l-.57.59h0l-1.3,1.27h0l-1.35,1.39h0l-.13.11h0L14.12,36.4h0c-.22.22-.44.45-.67.67h0c-.38.39-.78.77-1.15,1.17h0c-.23.23-.23.38,0,.57h0a9.62,9.62,0,0,0,1.42.89h0a6.81,6.81,0,0,0,2.89.62h0c.34,0,.68,0,1-.06h0a6.44,6.44,0,0,0,3.57-1.61h0c.75-.65,1.42-1.39,2.13-2.1h0L25,35h0c.48-.49,1-1,1.46-1.46h0l1.35-1.34h0c.5-.5,1-1,1.52-1.47h0c.51-.51,1-1,1.51-1.54h0a11.51,11.51,0,0,0,1.12-1.31h0a7.14,7.14,0,0,0,1.15-3.17h0a6.57,6.57,0,0,0,0-1.7h0A7,7,0,0,0,32,20.2h0a8.11,8.11,0,0,0-1.42-1.62h0c-1.41-1.39-2.81-2.78-4.19-4.2h0A3.21,3.21,0,0,0,24,13.33h-.14Z"/></g></g><path id="Fill-1" class="cls-4" d="M52,19.87a1.64,1.64,0,0,0,1,1.46,12.57,12.57,0,0,0,2.48.92q1.45.39,2.94.9a5.59,5.59,0,0,1,2.49,1.76,4.74,4.74,0,0,1,1,3.12,4.94,4.94,0,0,1-2,4.18,8.46,8.46,0,0,1-5.16,1.51A9.18,9.18,0,0,1,50,32.58a6.81,6.81,0,0,1-2.85-3.18l3.44-2a3.91,3.91,0,0,0,4.1,2.66c2.1,0,3.14-.69,3.14-2.07a1.64,1.64,0,0,0-1-1.44,11.39,11.39,0,0,0-2.48-.94q-1.46-.39-2.94-.9A5.75,5.75,0,0,1,48.91,23a4.55,4.55,0,0,1-1-3,5,5,0,0,1,1.94-4.1,7.46,7.46,0,0,1,4.83-1.55,8.12,8.12,0,0,1,4.08,1,6.94,6.94,0,0,1,2.75,2.83L58.13,20a3.49,3.49,0,0,0-3.47-2.1,3.44,3.44,0,0,0-1.93.5A1.64,1.64,0,0,0,52,19.87Zm34.73-5.1H90.9L85.1,33.24H81.19L77.34,20.79,73.46,33.24H69.55L63.74,14.77H68l3.58,12.74,3.88-12.74h3.81l3.84,12.74Zm10.94-3.51A2.56,2.56,0,0,1,93.3,9.45,2.52,2.52,0,0,1,94,7.65a2.46,2.46,0,0,1,1.81-.75,2.43,2.43,0,0,1,1.81.75,2.54,2.54,0,0,1,0,3.61Zm-3.77,22h4V14.77h-4Zm19.06-19a8.69,8.69,0,0,1,6.51,2.82A9.6,9.6,0,0,1,122.12,24a9.57,9.57,0,0,1-2.69,6.91,8.68,8.68,0,0,1-6.51,2.81,7.5,7.5,0,0,1-6.46-3.1v10h-4V14.77h4v2.66a7.46,7.46,0,0,1,6.46-3.14Zm-4.8,14a5.67,5.67,0,0,0,4.18,1.67,5.6,5.6,0,0,0,4.17-1.69A5.76,5.76,0,0,0,118.13,24a5.76,5.76,0,0,0-1.66-4.23,6,6,0,0,0-8.35,0A5.76,5.76,0,0,0,106.46,24a5.82,5.82,0,0,0,1.66,4.25Zm20.77-2.55a5,5,0,0,0,2,3.24,6.54,6.54,0,0,0,3.88,1.12,5.41,5.41,0,0,0,4.77-2.29l3.28,1.92a9.13,9.13,0,0,1-8.09,4A9.91,9.91,0,0,1,127.48,31a9.45,9.45,0,0,1-2.77-7,9.45,9.45,0,0,1,9.76-9.71,8.63,8.63,0,0,1,6.67,2.84,9.9,9.9,0,0,1,2.6,6.91,12.12,12.12,0,0,1-.15,1.66Zm0-3.25h10.86a5.12,5.12,0,0,0-5.28-4.54,5.59,5.59,0,0,0-3.7,1.22,5.51,5.51,0,0,0-1.88,3.32Z"/><text class="cls-5" transform="translate(146.6 33.34)">chain</text></g></g></svg>