<svg xmlns="http://www.w3.org/2000/svg" xmlns:xlink="http://www.w3.org/1999/xlink" viewBox="0 0 167.82 167.82"><defs><style>.cls-1{fill:#fff;}.cls-2{fill:url(#linear-gradient);}.cls-3{mask:url(#mask);}.cls-4{fill:url(#linear-gradient-2);}</style><linearGradient id="linear-gradient" y1="83.91" x2="167.82" y2="83.91" gradientUnits="userSpaceOnUse"><stop offset="0" stop-color="#ecf3fa"/><stop offset="1" stop-color="#fbdbe0"/></linearGradient><mask id="mask" x="26.24" y="27.59" width="112.14" height="111.57" maskUnits="userSpaceOnUse"><g id="mask-4"><path id="path-3" class="cls-1" d="M82,27.59a27.35,27.35,0,0,0-3.24.2h0a22.23,22.23,0,0,0-13.33,6.39h0c-2.65,2.59-5.25,5.25-7.87,7.87h0q-2,2-4.06,4h0c-1.43,1.4-2.87,2.78-4.29,4.18h0c-1.32,1.3-2.6,2.64-3.91,3.95h0c-2,2-4.11,4-6.13,6.07h0c-1.58,1.59-3.12,3.22-4.67,4.83h0c-.92.94-1.9,1.83-2.75,2.82h0c-3.69,4.34-5.44,9.4-5.5,16.12h0c-.16,2.57.91,5.91,2.46,9.09h0a36,36,0,0,0,3.07,4.79h0c.75,1.06,1.3,1,2.32.24h0c.18-.16.35-.34.52-.51h0c1-1,2-2,2.95-3.06h0c1.42-1.46,2.87-2.91,4.29-4.39h0c1.49-1.54,3-3.1,4.43-4.65h0c.71-.73,1.47-1.42,2.17-2.16h0c1.52-1.58,3-3.2,4.54-4.77h0c1.49-1.54,3-3,4.53-4.55h0c1.68-1.71,3.31-3.46,5-5.16h0c1.54-1.56,3.15-3.05,4.69-4.62h0c2-2.05,4-4.15,6-6.2h0c1.23-1.26,2.51-2.47,3.75-3.71h0c1.68-1.69,3.33-3.42,5-5.1h0c1.45-1.45,3-2.84,4.4-4.28h0q4.88-4.85,9.72-9.71h0c.21-.21.4-.43.59-.66h0c.78-1,.84-1.2-.13-1.9h0a31,31,0,0,0-4.8-3h0a22.56,22.56,0,0,0-9.65-2.09H82Zm24.93,20.18a9.72,9.72,0,0,0-7.61,3.46h0a5,5,0,0,1-.52.51h0c-1.75,1.69-3.52,3.37-5.26,5.08h0c-1.81,1.77-3.59,3.57-5.39,5.36h0c-1.49,1.47-3,2.93-4.48,4.42h0c-1.55,1.55-3.06,3.14-4.62,4.68h0c-1.63,1.61-3.31,3.17-5,4.78h0c-2,1.94-3.94,3.91-5.91,5.86h0L57.29,92.77h0L42.85,107.12h0c-.92.91-1,1,0,2h0c2.3,2.32,4.63,4.62,7,6.94h0a9.36,9.36,0,0,0,5.07,2.74h0a12.44,12.44,0,0,0,5.66-.19h0a8.58,8.58,0,0,0,3.72-2h0c1.91-1.82,3.8-3.65,5.71-5.46h0c1.34-1.28,2.71-2.54,4-3.83h0c2.64-2.6,5.26-5.23,7.9-7.82h0c2.17-2.11,4.37-4.18,6.55-6.28h0l8.94-8.65h0q4.2-4.08,8.41-8.15h0c1.24-1.18,2.38-1.06,3.27.35h0a12.55,12.55,0,0,1,2.13,8.35h0a11.78,11.78,0,0,1-3,6.86h0c-2.07,2.2-4.27,4.27-6.43,6.39h0c-1.53,1.5-3.09,3-4.62,4.49h0c-2,1.94-3.93,3.91-5.89,5.88h0c-.31.31-.59.65-.89,1h0c-.65.67-1.29,1.34-2,2h0C87,113.16,85.48,114.58,84,116h0c-1.54,1.55-3.06,3.14-4.59,4.71h0c-.13.14-.29.25-.43.39h0l-4.94,4.77h0c-.77.75-1.51,1.52-2.27,2.27h0c-1.31,1.31-2.64,2.59-3.91,3.94h0c-.77.81-.76,1.3.14,1.94h0a33.2,33.2,0,0,0,4.82,3h0a23,23,0,0,0,9.78,2.09h.07a33.8,33.8,0,0,0,3.46-.21h0a21.85,21.85,0,0,0,12.09-5.44h0c2.53-2.21,4.81-4.72,7.19-7.1h0c1.77-1.75,3.52-3.52,5.28-5.28h0l5-5h0c1.52-1.52,3-3,4.55-4.55h0c1.71-1.67,3.46-3.29,5.15-5h0c1.74-1.72,3.46-3.44,5.13-5.22h0A38.24,38.24,0,0,0,134.32,97h0a24.14,24.14,0,0,0,3.91-10.74h0a23.51,23.51,0,0,0,0-5.73h0A23.74,23.74,0,0,0,134.56,71h0c-1.06-1.63-1.6-2.32-4.82-5.49h0c-4.76-4.7-9.52-9.41-14.17-14.21h0a10.87,10.87,0,0,0-8.13-3.57h-.5Z"/></g></mask><linearGradient id="linear-gradient-2" x1="26.24" y1="83.37" x2="138.38" y2="83.37" gradientUnits="userSpaceOnUse"><stop offset="0" stop-color="#f9bc31"/><stop offset="1" stop-color="#ee3937"/></linearGradient></defs><g id="Слой_2" data-name="Слой 2"><g id="Layer_1" data-name="Layer 1"><circle class="cls-2" cx="83.91" cy="83.91" r="83.91"/><g id="Group-9"><g class="cls-3"><path id="Fill-7" class="cls-4" d="M82,27.59a27.35,27.35,0,0,0-3.24.2h0a22.23,22.23,0,0,0-13.33,6.39h0c-2.65,2.59-5.25,5.25-7.87,7.87h0q-2,2-4.06,4h0c-1.43,1.4-2.87,2.78-4.29,4.18h0c-1.32,1.3-2.6,2.64-3.91,3.95h0c-2,2-4.11,4-6.13,6.07h0c-1.58,1.59-3.12,3.22-4.67,4.83h0c-.92.94-1.9,1.83-2.75,2.82h0c-3.69,4.34-5.44,9.4-5.5,16.12h0c-.16,2.57.91,5.91,2.46,9.09h0a36,36,0,0,0,3.07,4.79h0c.75,1.06,1.3,1,2.32.24h0c.18-.16.35-.34.52-.51h0c1-1,2-2,2.95-3.06h0c1.42-1.46,2.87-2.91,4.29-4.39h0c1.49-1.54,3-3.1,4.43-4.65h0c.71-.73,1.47-1.42,2.17-2.16h0c1.52-1.58,3-3.2,4.54-4.77h0c1.49-1.54,3-3,4.53-4.55h0c1.68-1.71,3.31-3.46,5-5.16h0c1.54-1.56,3.15-3.05,4.69-4.62h0c2-2.05,4-4.15,6-6.2h0c1.23-1.26,2.51-2.47,3.75-3.71h0c1.68-1.69,3.33-3.42,5-5.1h0c1.45-1.45,3-2.84,4.4-4.28h0q4.88-4.85,9.72-9.71h0c.21-.21.4-.43.59-.66h0c.78-1,.84-1.2-.13-1.9h0a31,31,0,0,0-4.8-3h0a22.56,22.56,0,0,0-9.65-2.09H82Zm24.93,20.18a9.72,9.72,0,0,0-7.61,3.46h0a5,5,0,0,1-.52.51h0c-1.75,1.69-3.52,3.37-5.26,5.08h0c-1.81,1.77-3.59,3.57-5.39,5.36h0c-1.49,1.47-3,2.93-4.48,4.42h0c-1.55,1.55-3.06,3.14-4.62,4.68h0c-1.63,1.61-3.31,3.17-5,4.78h0c-2,1.94-3.94,3.91-5.91,5.86h0L57.29,92.77h0L42.85,107.12h0c-.92.91-1,1,0,2h0c2.3,2.32,4.63,4.62,7,6.94h0a9.36,9.36,0,0,0,5.07,2.74h0a12.44,12.44,0,0,0,5.66-.19h0a8.58,8.58,0,0,0,3.72-2h0c1.91-1.82,3.8-3.65,5.71-5.46h0c1.34-1.28,2.71-2.54,4-3.83h0c2.64-2.6,5.26-5.23,7.9-7.82h0c2.17-2.11,4.37-4.18,6.55-6.28h0l8.94-8.65h0q4.2-4.08,8.41-8.15h0c1.24-1.18,2.38-1.06,3.27.35h0a12.55,12.55,0,0,1,2.13,8.35h0a11.78,11.78,0,0,1-3,6.86h0c-2.07,2.2-4.27,4.27-6.43,6.39h0c-1.53,1.5-3.09,3-4.62,4.49h0c-2,1.94-3.93,3.91-5.89,5.88h0c-.31.31-.59.65-.89,1h0c-.65.67-1.29,1.34-2,2h0C87,113.16,85.48,114.58,84,116h0c-1.54,1.55-3.06,3.14-4.59,4.71h0c-.13.14-.29.25-.43.39h0l-4.94,4.77h0c-.77.75-1.51,1.52-2.27,2.27h0c-1.31,1.31-2.64,2.59-3.91,3.94h0c-.77.81-.76,1.3.14,1.94h0a33.2,33.2,0,0,0,4.82,3h0a23,23,0,0,0,9.78,2.09h.07a33.8,33.8,0,0,0,3.46-.21h0a21.85,21.85,0,0,0,12.09-5.44h0c2.53-2.21,4.81-4.72,7.19-7.1h0c1.77-1.75,3.52-3.52,5.28-5.28h0l5-5h0c1.52-1.52,3-3,4.55-4.55h0c1.71-1.67,3.46-3.29,5.15-5h0c1.74-1.72,3.46-3.44,5.13-5.22h0A38.24,38.24,0,0,0,134.32,97h0a24.14,24.14,0,0,0,3.91-10.74h0a23.51,23.51,0,0,0,0-5.73h0A23.74,23.74,0,0,0,134.56,71h0c-1.06-1.63-1.6-2.32-4.82-5.49h0c-4.76-4.7-9.52-9.41-14.17-14.21h0a10.87,10.87,0,0,0-8.13-3.57h-.5Z"/></g></g></g></g></svg>