<svg xmlns="http://www.w3.org/2000/svg" viewBox="0 0 541.88 123.54"><defs><style>.cls-1{fill:#3564af;}.cls-2{fill:#253d83;}</style></defs><g id="Слой_2" data-name="Слой 2"><g id="UPbit"><path class="cls-1" d="M68.39,101.08v0S68.4,101.07,68.39,101.08Z"/><path class="cls-1" d="M68.38,101.12h0Z"/><path class="cls-1" d="M68.37,101.15h0Z"/><path class="cls-1" d="M68.36,101.18v0h0Z"/><path class="cls-1" d="M68.36,101.17h0Z"/><path class="cls-1" d="M68.36,101.17h0l0,0v0Z"/><path class="cls-1" d="M101.73.23,68.39,101.08s0,0,0,0v0h0v0h0v0h0v0H49.17a6.79,6.79,0,0,1-6.44-8.92,1.3,1.3,0,0,0,.05-.14v0c.38-1.16,4.15-12.48,30.59-92H32.25L1.15,94A22.46,22.46,0,0,0,22,123.52v0h80.12l30.76-93.23-16.57,4.32L149,.23Z"/><path class="cls-1" d="M68.39,101.08l0,0h0Z"/><path class="cls-1" d="M42.81,92.06Z"/><path class="cls-1" d="M42.78,92.15l0-.07Z"/><path class="cls-1" d="M42.8,92.08v0Z"/><path class="cls-1" d="M246.52.32l-88,.17L169,34.63l-14.17-4.32L124.12,123H165l13.19-38.66h41a45.76,45.76,0,0,0,43.5-31.55L267,39.74C279.34,2.4,253.13.32,246.52.32ZM222,22.11A6.78,6.78,0,0,1,228.41,31L221,53.23a13.63,13.63,0,0,1-12.92,9.32H185.2l13.48-40.44Z"/><path class="cls-2" d="M371.07,39.9H328.61L341.74.29H300.11L259.48,123.34h81.44A47.13,47.13,0,0,0,385.65,91l6.18-18.65C394.9,63.24,396.44,39.9,371.07,39.9ZM351.3,70.53,344,92.43a13.46,13.46,0,0,1-12.74,9.18l-23,0,13.18-40.27,24.34,0C349.31,61.31,353.86,62.76,351.3,70.53Z"/><polygon class="cls-2" points="433.15 0.37 474.54 0.37 464.12 31.88 422.73 31.98 433.15 0.37"/><polygon class="cls-2" points="416.99 49.15 458.44 49.15 434.02 123.31 392.57 123.31 416.99 49.15"/><path class="cls-2" d="M506.5,89.87l9.35-28.26h18.79l7.24-21.44L523,40.1,536.45,0,494.63.35l-30.5,93.32A22.77,22.77,0,0,0,486,123.5l38.56-.33,7.18-21.81H514.8A8.75,8.75,0,0,1,506.5,89.87Z"/></g></g></svg>