<svg xmlns="http://www.w3.org/2000/svg" viewBox="0 0 33.87 34.67"><defs><style>.cls-1{fill:none;stroke:#000;stroke-linecap:round;stroke-linejoin:round;stroke-width:1.44px;}</style></defs><g id="Слой_2" data-name="Слой 2"><g id="Layer_1" data-name="Layer 1"><line class="cls-1" x1="23.52" y1="17.67" x2="23.52" y2="19.76"/><line class="cls-1" x1="23.52" y1="28.88" x2="23.52" y2="30.97"/><path class="cls-1" d="M23.53,14.69a9.63,9.63,0,1,1-9.63,9.63,9.63,9.63,0,0,1,9.63-9.63Z"/><path class="cls-1" d="M26.56,20.85a14,14,0,0,0-2.71-.72c-4.7-.53-5.3,4.21-.3,4.19s4.4,4.72-.3,4.19a13.4,13.4,0,0,1-2.7-.72"/><polyline class="cls-1" points="6.46 4.51 2.7 4.51 2.7 0.72 22.3 0.72 22.3 4.51"/><polyline class="cls-1" points="6.39 8.29 6.39 4.51 25.98 4.51 25.98 8.29 20.4 8.29"/><polyline class="cls-1" points="0.72 12.08 0.72 8.29 20.32 8.29 20.32 12.08"/><polyline class="cls-1" points="0.72 15.86 0.72 12.08 20.32 12.08 20.32 14.84"/><polyline class="cls-1" points="0.72 19.65 0.72 15.86 18.75 15.86"/><polyline class="cls-1" points="0.72 23.43 0.72 19.65 15.01 19.65"/><polyline class="cls-1" points="0.72 27.22 0.72 23.43 13.75 23.43"/><polyline class="cls-1" points="16.38 31 0.72 31 0.72 27.22 14.23 27.22"/></g></g></svg>