<svg xmlns="http://www.w3.org/2000/svg" viewBox="0 0 22.06 22.06"><g id="Слой_2" data-name="Слой 2"><g id="Layer_1" data-name="Layer 1"><path d="M18.39,9.19v9.15a3.58,3.58,0,0,1-1.44,3,3.41,3.41,0,0,1-2.16.76c-3.73,0-7.46,0-11.19,0A3.68,3.68,0,0,1,.05,19a5,5,0,0,1,0-.67V7.39A3.67,3.67,0,0,1,3,3.73a2.6,2.6,0,0,1,.56-.06h9.32l-.09.1L11.13,5.42a.27.27,0,0,1-.21.09H3.74A1.83,1.83,0,0,0,1.93,6.8a2.11,2.11,0,0,0-.09.56v11A1.84,1.84,0,0,0,3.7,20.22h11a1.84,1.84,0,0,0,1.85-1.87c0-2.39,0-4.77,0-7.15a.37.37,0,0,1,.12-.3l1.62-1.61Z"/><path d="M8.73,14.68,7.41,13.37,18.92,1.86l0,0h-6V0h9.18V9.18H20.24v-6Z"/></g></g></svg>