<svg xmlns="http://www.w3.org/2000/svg" viewBox="0 0 33.85 34.15"><defs><style>.cls-1{fill:none;stroke:#000;stroke-linecap:round;stroke-linejoin:round;stroke-width:1.44px;}</style></defs><g id="Слой_2" data-name="Слой 2"><g id="Layer_1" data-name="Layer 1"><path class="cls-1" d="M18,23.76l4.4-2.35c1-.55,3.06-1.38,3.07.68l.74-.5c2.09-1.43,3.68-.42,2.9,1.55,3.7-2.69,5,.72,3.36,1.56l-8.2,5.18-3.48,2.2c-2.46,1.55-5.71,1.58-6.62,1-5.19-1.34-6.69-2.61-11.22-2"/><path class="cls-1" d="M.72,21.84l5.37-2.18a4.19,4.19,0,0,1,3.48,0l2.9,2.16c4,3,4.36,2.24,9.12,2.52,1.05.07,1.74,1.76,0,2.43-4.44,2-7.18,1.12-11.22-1"/><line class="cls-1" x1="16.92" y1="3.47" x2="16.92" y2="5.33"/><line class="cls-1" x1="16.92" y1="13.43" x2="16.92" y2="15.29"/><path class="cls-1" d="M16.92.72A8.66,8.66,0,1,1,8.26,9.38,8.66,8.66,0,0,1,16.92.72Z"/><path class="cls-1" d="M19.62,6.3a11.38,11.38,0,0,0-2.41-.64C13,5.19,12.5,9.39,17,9.38s3.91,4.2-.28,3.72a11.22,11.22,0,0,1-2.39-.64"/></g></g></svg>