<svg width="0" height="0" style="position:absolute"><symbol viewBox="-1 -1 8.14 12.78" id="image-chevron" xmlns="http://www.w3.org/2000/svg"><defs><style>.acls-1{fill:#fff}</style></defs><g id="aСлой_2" data-name="Слой 2"><path class="acls-1" d="M5.39 4.65L.74 0 0 .74l4.65 4.65L0 10.04l.74.74 4.65-4.65.74-.74-.74-.74z" id="aLayer_1" data-name="Layer 1"/></g></symbol><symbol viewBox="-1 -1 32 32" id="image-facebook" xmlns="http://www.w3.org/2000/svg"><path d="M24 4H6a2 2 0 00-2 2v18a2 2 0 002 2h10v-9h-3v-3h3v-1.611C16 9.339 17.486 8 20.021 8c1.214 0 1.856.09 2.16.131V11h-1.729C19.376 11 19 11.568 19 12.718V14h3.154l-.428 3H19v9h5a2 2 0 002-2V6a2 2 0 00-2-2z"/></symbol><symbol viewBox="-1 -1 35.87 36.67" id="image-fees" xmlns="http://www.w3.org/2000/svg"><defs><style>.ccls-1{fill:none;stroke:#000;stroke-linecap:round;stroke-linejoin:round;stroke-width:1.44px}</style></defs><g id="cСлой_2" data-name="Слой 2"><g id="cLayer_1" data-name="Layer 1"><path class="ccls-1" d="M23.52 17.67v2.09M23.52 28.88v2.09M23.53 14.69a9.63 9.63 0 11-9.63 9.63 9.63 9.63 0 019.63-9.63z"/><path class="ccls-1" d="M26.56 20.85a14 14 0 00-2.71-.72c-4.7-.53-5.3 4.21-.3 4.19s4.4 4.72-.3 4.19a13.4 13.4 0 01-2.7-.72M6.46 4.51H2.7V.72h19.6v3.79M6.39 8.29V4.51h19.59v3.78H20.4M.72 12.08V8.29h19.6v3.79M.72 15.86v-3.78h19.6v2.76M.72 19.65v-3.79h18.03M.72 23.43v-3.78h14.29M.72 27.22v-3.79h13.03M16.38 31H.72v-3.78h13.51"/></g></g></symbol><symbol viewBox="-1 -1 34.58 33.77" id="image-github" xmlns="http://www.w3.org/2000/svg"><defs><style>.dcls-1{fill:#1d1c1c;fill-rule:evenodd}</style></defs><g id="dСлой_2" data-name="Слой 2"><path class="dcls-1" d="M16.29 0a16.29 16.29 0 00-5.15 31.75c.82.15 1.11-.36 1.11-.79v-2.77C7.7 29.18 6.74 26 6.74 26a4.36 4.36 0 00-1.81-2.39c-1.47-1 .12-1 .12-1a3.43 3.43 0 012.49 1.68 3.48 3.48 0 004.74 1.36 3.46 3.46 0 011-2.18c-3.62-.41-7.42-1.81-7.42-8a6.3 6.3 0 011.67-4.37 5.94 5.94 0 01.16-4.31s1.37-.44 4.48 1.67a15.41 15.41 0 018.16 0c3.11-2.11 4.47-1.67 4.47-1.67a5.91 5.91 0 01.2 4.28 6.3 6.3 0 011.67 4.37c0 6.26-3.81 7.63-7.44 8a3.85 3.85 0 011.11 3v4.47c0 .53.29.94 1.12.78A16.29 16.29 0 0016.29 0z" id="dLayer_1" data-name="Layer 1"/></g></symbol><symbol viewBox="-1 -1 24.06 24.06" id="image-link" xmlns="http://www.w3.org/2000/svg"><g data-name="Слой 2"><g data-name="Layer 1"><path d="M18.39 9.19v9.15a3.58 3.58 0 01-1.44 3 3.41 3.41 0 01-2.16.76H3.6A3.68 3.68 0 01.05 19a5 5 0 010-.67V7.39A3.67 3.67 0 013 3.73a2.6 2.6 0 01.56-.06h9.32l-.09.1-1.66 1.65a.27.27 0 01-.21.09H3.74A1.83 1.83 0 001.93 6.8a2.11 2.11 0 00-.09.56v11a1.84 1.84 0 001.86 1.86h11a1.84 1.84 0 001.85-1.87V11.2a.37.37 0 01.12-.3l1.62-1.61z"/><path d="M8.73 14.68l-1.32-1.31L18.92 1.86h-6V0h9.18v9.18h-1.86v-6z"/></g></g></symbol><symbol viewBox="-1 -1 52 52" id="image-medium" xmlns="http://www.w3.org/2000/svg"><path d="M46 13.5h-1.105c-1.458.008-1.903.68-1.895 2V34c.023 1.074.469 1.48 1.32 1.5H46v5H31v-5h3v-20l-7.895 25h-4.421L14 15.5v20h2v5H4v-5h1c1.492.035 2-1.371 2-2v-18c.012-1.016-.895-2.027-2-2H4l.027-6H19.5L25 25.965 30.5 7.5H46z"/></symbol><symbol viewBox="-1 -1 36.58 35.71" id="image-payments" xmlns="http://www.w3.org/2000/svg"><defs><style>.gcls-1{fill:none;stroke:#000;stroke-linecap:round;stroke-linejoin:round;stroke-width:1.44px}</style></defs><g id="gСлой_2" data-name="Слой 2"><g id="gLayer_1" data-name="Layer 1"><path class="gcls-1" d="M7.83 7.88v23A2.16 2.16 0 0010 33h14.6a2.14 2.14 0 002.14-2.14v-23M11.12 24.59v-3.02"/><path class="gcls-1" d="M18.75 7.42v25.57h3.49V7.3"/><path class="gcls-1" d="M27.32 11.28h1.22a1.07 1.07 0 001.06-1.06V8a1.06 1.06 0 00-1.06-1H6a1.07 1.07 0 00-1 1v2.25a1.07 1.07 0 001 1.03h1.25"/><path class="gcls-1" d="M7.25 16.8H2.09a1.38 1.38 0 01-1.37-1.36V2.09A1.37 1.37 0 012.09.72h30.4a1.39 1.39 0 011.37 1.37v13.35a1.4 1.4 0 01-1.37 1.36h-5.17"/></g></g></symbol><symbol viewBox="-1 -1 35.85 36.15" id="image-staking" xmlns="http://www.w3.org/2000/svg"><defs><style>.hcls-1{fill:none;stroke:#000;stroke-linecap:round;stroke-linejoin:round;stroke-width:1.44px}</style></defs><g id="hСлой_2" data-name="Слой 2"><g id="hLayer_1" data-name="Layer 1"><path class="hcls-1" d="M18 23.76l4.4-2.35c1-.55 3.06-1.38 3.07.68l.74-.5c2.09-1.43 3.68-.42 2.9 1.55 3.7-2.69 5 .72 3.36 1.56l-8.2 5.18-3.48 2.2c-2.46 1.55-5.71 1.58-6.62 1-5.19-1.34-6.69-2.61-11.22-2"/><path class="hcls-1" d="M.72 21.84l5.37-2.18a4.19 4.19 0 013.48 0l2.9 2.16c4 3 4.36 2.24 9.12 2.52 1.05.07 1.74 1.76 0 2.43-4.44 2-7.18 1.12-11.22-1M16.92 3.47v1.86M16.92 13.43v1.86M16.92.72a8.66 8.66 0 11-8.66 8.66A8.66 8.66 0 0116.92.72z"/><path class="hcls-1" d="M19.62 6.3a11.38 11.38 0 00-2.41-.64C13 5.19 12.5 9.39 17 9.38s3.91 4.2-.28 3.72a11.22 11.22 0 01-2.39-.64"/></g></g></symbol><symbol viewBox="-1 -1 32 32" id="image-twitter" xmlns="http://www.w3.org/2000/svg"><path d="M28 6.937c-.957.425-1.985.711-3.064.84a5.343 5.343 0 002.345-2.951 10.696 10.696 0 01-3.388 1.295 5.334 5.334 0 00-9.089 4.864A15.143 15.143 0 013.809 5.411a5.321 5.321 0 00-.721 2.683 5.33 5.33 0 002.372 4.439 5.323 5.323 0 01-2.416-.667v.067a5.335 5.335 0 004.279 5.23 5.336 5.336 0 01-2.409.092 5.34 5.34 0 004.983 3.705 10.699 10.699 0 01-6.625 2.284c-.43 0-.855-.025-1.273-.075a15.102 15.102 0 008.177 2.396c9.812 0 15.176-8.128 15.176-15.177 0-.231-.005-.461-.015-.69A10.855 10.855 0 0028 6.937z"/></symbol><symbol viewBox="-1 -1 36.88 36.08" id="image-voting" xmlns="http://www.w3.org/2000/svg"><defs><style>.jcls-1{fill:none;stroke:#000;stroke-linecap:round;stroke-linejoin:round;stroke-width:1.44px}</style></defs><g id="jСлой_2" data-name="Слой 2"><g id="jLayer_1" data-name="Layer 1"><path class="jcls-1" d="M.72 28.11h16.42M1.83 27.91V13.64h5.52v14.27M10.61 27.91V7.46h5.52v20.45M19.38 18.27V.72h5.52v14.86"/><path class="jcls-1" d="M25.45 15.94a8.71 8.71 0 108.71 8.71 8.71 8.71 0 00-8.71-8.71zM28.75 20.85c-.67.27-6.22 6.35-7.17 7.26"/><path class="jcls-1" d="M28.75 27.03v-6.18h-6.18"/></g></g></symbol></svg>